<svg width="24" height="24" viewBox="0 0 24 24" fill="none" xmlns="http://www.w3.org/2000/svg">
<path d="M11.5 21.75C5.85 21.75 1.25 17.15 1.25 11.5C1.25 5.85 5.85 1.25 11.5 1.25C17.15 1.25 21.75 5.85 21.75 11.5C21.75 17.15 17.15 21.75 11.5 21.75ZM11.5 2.75C6.67 2.75 2.75 6.68 2.75 11.5C2.75 16.32 6.67 20.25 11.5 20.25C16.33 20.25 20.25 16.32 20.25 11.5C20.25 6.68 16.33 2.75 11.5 2.75Z" fill="#2A2A2A"/>
<path d="M21.9999 22.7514C21.8099 22.7514 21.6199 22.6814 21.4699 22.5314L19.4699 20.5314C19.1799 20.2414 19.1799 19.7614 19.4699 19.4714C19.7599 19.1814 20.2399 19.1814 20.5299 19.4714L22.5299 21.4714C22.8199 21.7614 22.8199 22.2414 22.5299 22.5314C22.3799 22.6814 22.1899 22.7514 21.9999 22.7514Z" fill="#2A2A2A"/>
</svg>
