<svg width="33" height="32" viewBox="0 0 33 32" fill="none" xmlns="http://www.w3.org/2000/svg">
<path d="M22.0231 17H11.3564C10.8098 17 10.3564 16.5467 10.3564 16C10.3564 15.4533 10.8098 15 11.3564 15H22.0231C22.5698 15 23.0231 15.4533 23.0231 16C23.0231 16.5467 22.5698 17 22.0231 17Z" fill="#008080"/>
<path d="M16.6895 22.3327C16.1428 22.3327 15.6895 21.8793 15.6895 21.3327V10.666C15.6895 10.1193 16.1428 9.66602 16.6895 9.66602C17.2361 9.66602 17.6895 10.1193 17.6895 10.666V21.3327C17.6895 21.8793 17.2361 22.3327 16.6895 22.3327Z" fill="#008080"/>
<path d="M20.6898 30.3327H12.6898C5.44978 30.3327 2.35645 27.2393 2.35645 19.9993V11.9993C2.35645 4.75935 5.44978 1.66602 12.6898 1.66602H20.6898C27.9298 1.66602 31.0231 4.75935 31.0231 11.9993V19.9993C31.0231 27.2393 27.9298 30.3327 20.6898 30.3327ZM12.6898 3.66602C6.54311 3.66602 4.35645 5.85268 4.35645 11.9993V19.9993C4.35645 26.146 6.54311 28.3327 12.6898 28.3327H20.6898C26.8364 28.3327 29.0231 26.146 29.0231 19.9993V11.9993C29.0231 5.85268 26.8364 3.66602 20.6898 3.66602H12.6898Z" fill="#008080"/>
</svg>
