<svg width="25" height="24" viewBox="0 0 25 24" fill="none" xmlns="http://www.w3.org/2000/svg">
<path d="M15.6791 20.7595C15.4891 20.7595 15.2991 20.6895 15.1491 20.5395C14.8591 20.2495 14.8591 19.7695 15.1491 19.4795L20.1591 14.4695C20.4491 14.1795 20.9291 14.1795 21.2191 14.4695C21.5091 14.7595 21.5091 15.2395 21.2191 15.5295L16.2091 20.5395C16.0591 20.6795 15.8691 20.7595 15.6791 20.7595Z" fill="#696969"/>
<path d="M20.6895 15.7402H3.68945C3.27945 15.7402 2.93945 15.4002 2.93945 14.9902C2.93945 14.5802 3.27945 14.2402 3.68945 14.2402H20.6895C21.0995 14.2402 21.4395 14.5802 21.4395 14.9902C21.4395 15.4002 21.0995 15.7402 20.6895 15.7402Z" fill="#696969"/>
<path d="M3.68988 9.75945C3.49988 9.75945 3.30988 9.68945 3.15988 9.53945C2.86988 9.24945 2.86988 8.76945 3.15988 8.47945L8.16988 3.46945C8.45988 3.17945 8.93988 3.17945 9.22988 3.46945C9.51988 3.75945 9.51988 4.23945 9.22988 4.52945L4.21988 9.53945C4.07988 9.67945 3.87988 9.75945 3.68988 9.75945Z" fill="#696969"/>
<path d="M20.6895 9.75977H3.68945C3.27945 9.75977 2.93945 9.41977 2.93945 9.00977C2.93945 8.59977 3.27945 8.25977 3.68945 8.25977H20.6895C21.0995 8.25977 21.4395 8.59977 21.4395 9.00977C21.4395 9.41977 21.0995 9.75977 20.6895 9.75977Z" fill="#696969"/>
</svg>
