<svg width="21" height="20" viewBox="0 0 21 20" fill="none" xmlns="http://www.w3.org/2000/svg">
<path d="M12.525 15.6834C12.3667 15.6834 12.2083 15.6251 12.0833 15.5001C11.8417 15.2584 11.8417 14.8584 12.0833 14.6168L16.7 10.0001L12.0833 5.38343C11.8417 5.14176 11.8417 4.74176 12.0833 4.5001C12.325 4.25843 12.725 4.25843 12.9667 4.5001L18.025 9.55843C18.2667 9.8001 18.2667 10.2001 18.025 10.4418L12.9667 15.5001C12.8417 15.6251 12.6834 15.6834 12.525 15.6834Z" fill="#5D3FD3"/>
<path d="M17.4417 10.625H3.41675C3.07508 10.625 2.79175 10.3417 2.79175 10C2.79175 9.65833 3.07508 9.375 3.41675 9.375H17.4417C17.7834 9.375 18.0667 9.65833 18.0667 10C18.0667 10.3417 17.7834 10.625 17.4417 10.625Z" fill="#5D3FD3"/>
</svg>
