<svg width="30" height="30" viewBox="0 0 30 30" fill="none" xmlns="http://www.w3.org/2000/svg">
<path d="M23.625 8.75C24.7556 10.6265 25.2386 12.8223 25 15V16.25C24.9985 17.5661 25.3434 18.8594 26 20M10 13.75C10 12.4239 10.5268 11.1521 11.4645 10.2145C12.4021 9.27678 13.6739 8.75 15 8.75C16.3261 8.75 17.5979 9.27678 18.5355 10.2145C19.4732 11.1521 20 12.4239 20 13.75V15C20 17.7046 20.8772 20.3363 22.5 22.5" stroke="#5D3FD3" stroke-width="2" stroke-linecap="round" stroke-linejoin="round"/>
<path d="M14.9996 13.7499V16.2499C14.9956 19.8242 16.0861 23.3139 18.1246 26.2499M9.99955 18.7499C10.3054 21.3622 11.067 23.9006 12.2496 26.2499M6.12455 23.7499C5.28111 20.9128 4.90123 17.9581 4.99955 14.9999V13.7499C4.99476 11.9922 5.45333 10.2644 6.32906 8.74037C7.20479 7.21638 8.46673 5.95013 9.98773 5.06922C11.5087 4.1883 13.235 3.72385 14.9927 3.72266C16.7504 3.72147 18.4774 4.18358 19.9996 5.06242" stroke="#5D3FD3" stroke-width="2" stroke-linecap="round" stroke-linejoin="round"/>
</svg>
