<svg width="24" height="25" viewBox="0 0 24 25" fill="none" xmlns="http://www.w3.org/2000/svg">
<path d="M8 5.87793C7.59 5.87793 7.25 5.53793 7.25 5.12793V2.12793C7.25 1.71793 7.59 1.37793 8 1.37793C8.41 1.37793 8.75 1.71793 8.75 2.12793V5.12793C8.75 5.53793 8.41 5.87793 8 5.87793Z" fill="#696969"/>
<path d="M16 5.87793C15.59 5.87793 15.25 5.53793 15.25 5.12793V2.12793C15.25 1.71793 15.59 1.37793 16 1.37793C16.41 1.37793 16.75 1.71793 16.75 2.12793V5.12793C16.75 5.53793 16.41 5.87793 16 5.87793Z" fill="#696969"/>
<path d="M8.5 14.6278C8.37 14.6278 8.24 14.5978 8.12 14.5478C7.99 14.4978 7.89 14.4277 7.79 14.3377C7.61 14.1477 7.5 13.8978 7.5 13.6278C7.5 13.4978 7.53 13.3677 7.58 13.2477C7.63 13.1277 7.7 13.0178 7.79 12.9178C7.89 12.8278 7.99 12.7577 8.12 12.7077C8.48 12.5577 8.93 12.6378 9.21 12.9178C9.39 13.1078 9.5 13.3678 9.5 13.6278C9.5 13.6878 9.49 13.7578 9.48 13.8278C9.47 13.8878 9.45 13.9478 9.42 14.0078C9.4 14.0678 9.37 14.1278 9.33 14.1878C9.3 14.2378 9.25 14.2877 9.21 14.3377C9.02 14.5177 8.76 14.6278 8.5 14.6278Z" fill="#292D32"/>
<path d="M12 14.6278C11.87 14.6278 11.74 14.5978 11.62 14.5478C11.49 14.4978 11.39 14.4278 11.29 14.3378C11.11 14.1478 11 13.8978 11 13.6278C11 13.4978 11.03 13.3678 11.08 13.2478C11.13 13.1278 11.2 13.0178 11.29 12.9178C11.39 12.8278 11.49 12.7578 11.62 12.7078C11.98 12.5478 12.43 12.6378 12.71 12.9178C12.89 13.1078 13 13.3678 13 13.6278C13 13.6878 12.99 13.7578 12.98 13.8278C12.97 13.8878 12.95 13.9478 12.92 14.0078C12.9 14.0678 12.87 14.1278 12.83 14.1878C12.8 14.2378 12.75 14.2878 12.71 14.3378C12.52 14.5178 12.26 14.6278 12 14.6278Z" fill="#292D32"/>
<path d="M15.5 14.6278C15.37 14.6278 15.24 14.5978 15.12 14.5478C14.99 14.4978 14.89 14.4278 14.79 14.3378C14.75 14.2878 14.71 14.2378 14.67 14.1878C14.63 14.1278 14.6 14.0678 14.58 14.0078C14.55 13.9478 14.53 13.8878 14.52 13.8278C14.51 13.7578 14.5 13.6878 14.5 13.6278C14.5 13.3678 14.61 13.1078 14.79 12.9178C14.89 12.8278 14.99 12.7578 15.12 12.7078C15.49 12.5478 15.93 12.6378 16.21 12.9178C16.39 13.1078 16.5 13.3678 16.5 13.6278C16.5 13.6878 16.49 13.7578 16.48 13.8278C16.47 13.8878 16.45 13.9478 16.42 14.0078C16.4 14.0678 16.37 14.1278 16.33 14.1878C16.3 14.2378 16.25 14.2878 16.21 14.3378C16.02 14.5178 15.76 14.6278 15.5 14.6278Z" fill="#292D32"/>
<path d="M8.5 18.1281C8.37 18.1281 8.24 18.0981 8.12 18.0481C8 17.9981 7.89 17.9281 7.79 17.8381C7.61 17.6481 7.5 17.3881 7.5 17.1281C7.5 16.9981 7.53 16.8681 7.58 16.7481C7.63 16.6181 7.7 16.5081 7.79 16.4181C8.16 16.0481 8.84 16.0481 9.21 16.4181C9.39 16.6081 9.5 16.8681 9.5 17.1281C9.5 17.3881 9.39 17.6481 9.21 17.8381C9.02 18.0181 8.76 18.1281 8.5 18.1281Z" fill="#292D32"/>
<path d="M12 18.1281C11.74 18.1281 11.48 18.0181 11.29 17.8381C11.11 17.6481 11 17.3881 11 17.1281C11 16.9981 11.03 16.8681 11.08 16.7481C11.13 16.6181 11.2 16.5081 11.29 16.4181C11.66 16.0481 12.34 16.0481 12.71 16.4181C12.8 16.5081 12.87 16.6181 12.92 16.7481C12.97 16.8681 13 16.9981 13 17.1281C13 17.3881 12.89 17.6481 12.71 17.8381C12.52 18.0181 12.26 18.1281 12 18.1281Z" fill="#292D32"/>
<path d="M15.5 18.1278C15.24 18.1278 14.98 18.0178 14.79 17.8378C14.7 17.7478 14.63 17.6378 14.58 17.5078C14.53 17.3878 14.5 17.2578 14.5 17.1278C14.5 16.9978 14.53 16.8678 14.58 16.7478C14.63 16.6178 14.7 16.5079 14.79 16.4179C15.02 16.1879 15.37 16.0778 15.69 16.1478C15.76 16.1578 15.82 16.1778 15.88 16.2078C15.94 16.2278 16 16.2579 16.06 16.2979C16.11 16.3279 16.16 16.3779 16.21 16.4179C16.39 16.6079 16.5 16.8678 16.5 17.1278C16.5 17.3878 16.39 17.6478 16.21 17.8378C16.02 18.0178 15.76 18.1278 15.5 18.1278Z" fill="#292D32"/>
<path d="M20.5 9.96777H3.5C3.09 9.96777 2.75 9.62777 2.75 9.21777C2.75 8.80777 3.09 8.46777 3.5 8.46777H20.5C20.91 8.46777 21.25 8.80777 21.25 9.21777C21.25 9.62777 20.91 9.96777 20.5 9.96777Z" fill="#292D32"/>
<path d="M16 22.8779H8C4.35 22.8779 2.25 20.7779 2.25 17.1279V8.62793C2.25 4.97793 4.35 2.87793 8 2.87793H16C19.65 2.87793 21.75 4.97793 21.75 8.62793V17.1279C21.75 20.7779 19.65 22.8779 16 22.8779ZM8 4.37793C5.14 4.37793 3.75 5.76793 3.75 8.62793V17.1279C3.75 19.9879 5.14 21.3779 8 21.3779H16C18.86 21.3779 20.25 19.9879 20.25 17.1279V8.62793C20.25 5.76793 18.86 4.37793 16 4.37793H8Z" fill="#292D32"/>
</svg>
