<svg width="30" height="30" viewBox="0 0 30 30" fill="none" xmlns="http://www.w3.org/2000/svg">
<path d="M24.4287 5.58876C23.4327 4.56349 22.1838 3.8191 20.8081 3.43071C19.4325 3.04232 17.9787 3.02367 16.5935 3.37666C15.2083 3.72964 13.9408 4.44176 12.9188 5.44115C11.8967 6.44054 11.1564 7.69183 10.7725 9.06876C10.2563 10.914 10.4068 12.8822 11.1975 14.6275L3.125 22.7238V26.875H7.33L6.9325 24.3875L9.38875 24.8L11.4762 22.7238L11.0787 20.2363L13.5487 20.6338L15.3863 18.7938C17.1294 19.5851 19.096 19.7355 20.9393 19.2184C22.7825 18.7013 24.384 17.55 25.4612 15.9675C26.5393 14.3841 27.0252 12.4716 26.8337 10.5657C26.6421 8.65975 25.7853 6.88218 24.4138 5.54501L24.4287 5.58876Z" stroke="#5D3FD3" stroke-width="1.5" stroke-linecap="round" stroke-linejoin="round"/>
<path d="M21.2368 12.7878C20.7423 13.2884 20.0786 13.5863 19.3758 13.6229C18.6731 13.6596 17.982 13.4324 17.4381 12.986C16.8941 12.5395 16.5366 11.906 16.4355 11.2096C16.3345 10.5132 16.4972 9.80417 16.8918 9.22153C17.1242 8.87455 17.4307 8.58343 17.7891 8.36911C18.1476 8.15479 18.5491 8.02261 18.9647 7.98208C19.3804 7.94156 19.7998 7.99369 20.1929 8.13474C20.586 8.27579 20.943 8.50223 21.238 8.79778C21.7617 9.32974 22.0552 10.0463 22.0552 10.7928C22.0552 11.5393 21.7605 12.2558 21.2368 12.7878Z" stroke="#5D3FD3" stroke-width="1.5" stroke-linecap="round" stroke-linejoin="round"/>
</svg>
