<svg width="33" height="32" viewBox="0 0 33 32" fill="none" xmlns="http://www.w3.org/2000/svg">
<path d="M29.8158 30.334H3.14917C2.6025 30.334 2.14917 29.8807 2.14917 29.334C2.14917 28.7873 2.6025 28.334 3.14917 28.334H29.8158C30.3625 28.334 30.8158 28.7873 30.8158 29.334C30.8158 29.8807 30.3625 30.334 29.8158 30.334Z" fill="#5D3FD3"/>
<path d="M19.4824 30.3327H13.4824C12.9358 30.3327 12.4824 29.8794 12.4824 29.3327V5.33268C12.4824 3.03935 13.7491 1.66602 15.8824 1.66602H17.0824C19.2158 1.66602 20.4824 3.03935 20.4824 5.33268V29.3327C20.4824 29.8794 20.0291 30.3327 19.4824 30.3327ZM14.4824 28.3327H18.4824V5.33268C18.4824 3.79935 17.7624 3.66602 17.0824 3.66602H15.8824C15.2024 3.66602 14.4824 3.79935 14.4824 5.33268V28.3327Z" fill="#5D3FD3"/>
<path d="M9.81575 30.3327H4.48242C3.93576 30.3327 3.48242 29.8793 3.48242 29.3327V13.3327C3.48242 11.0393 4.65575 9.66602 6.61575 9.66602H7.68242C9.64242 9.66602 10.8158 11.0393 10.8158 13.3327V29.3327C10.8158 29.8793 10.3624 30.3327 9.81575 30.3327ZM5.48242 28.3327H8.81575V13.3327C8.81575 11.666 8.08242 11.666 7.68242 11.666H6.61575C6.21575 11.666 5.48242 11.666 5.48242 13.3327V28.3327Z" fill="#5D3FD3"/>
<path d="M28.4825 30.334H23.1492C22.6025 30.334 22.1492 29.8807 22.1492 29.334V20.0007C22.1492 17.7073 23.3225 16.334 25.2825 16.334H26.3492C28.3092 16.334 29.4825 17.7073 29.4825 20.0007V29.334C29.4825 29.8807 29.0292 30.334 28.4825 30.334ZM24.1492 28.334H27.4825V20.0007C27.4825 18.334 26.7492 18.334 26.3492 18.334H25.2825C24.8825 18.334 24.1492 18.334 24.1492 20.0007V28.334Z" fill="#5D3FD3"/>
</svg>
