<svg width="33" height="32" viewBox="0 0 33 32" fill="none" xmlns="http://www.w3.org/2000/svg">
<path d="M16.5003 30.3327C8.59366 30.3327 2.16699 23.906 2.16699 15.9993C2.16699 8.09268 8.59366 1.66602 16.5003 1.66602C24.407 1.66602 30.8337 8.09268 30.8337 15.9993C30.8337 23.906 24.407 30.3327 16.5003 30.3327ZM16.5003 3.66602C9.70033 3.66602 4.16699 9.19935 4.16699 15.9993C4.16699 22.7993 9.70033 28.3327 16.5003 28.3327C23.3003 28.3327 28.8337 22.7993 28.8337 15.9993C28.8337 9.19935 23.3003 3.66602 16.5003 3.66602Z" fill="#5E5E60"/>
<path d="M12.7271 20.7738C12.4738 20.7738 12.2205 20.6805 12.0205 20.4805C11.6338 20.0938 11.6338 19.4538 12.0205 19.0671L19.5671 11.5205C19.9538 11.1338 20.5938 11.1338 20.9805 11.5205C21.3671 11.9071 21.3671 12.5471 20.9805 12.9338L13.4338 20.4805C13.2471 20.6805 12.9805 20.7738 12.7271 20.7738Z" fill="#5E5E60"/>
<path d="M20.2738 20.7738C20.0205 20.7738 19.7671 20.6805 19.5671 20.4805L12.0205 12.9338C11.6338 12.5471 11.6338 11.9071 12.0205 11.5205C12.4071 11.1338 13.0471 11.1338 13.4338 11.5205L20.9805 19.0671C21.3671 19.4538 21.3671 20.0938 20.9805 20.4805C20.7805 20.6805 20.5271 20.7738 20.2738 20.7738Z" fill="#5E5E60"/>
</svg>
