<svg width="32" height="32" viewBox="0 0 32 32" fill="none" xmlns="http://www.w3.org/2000/svg">
<g clip-path="url(#clip0_2279_2578)">
<path d="M16 32C7.17756 32 0 24.8224 0 16C0 7.17756 7.17756 0 16 0C24.8224 0 32 7.17756 32 16C32 24.8224 24.8224 32 16 32Z" fill="#FFD700"/>
<g opacity="0.2">
<path d="M17.232 9.46234V11.7665C16.871 11.7054 16.5239 11.6754 16.1908 11.6754C15.577 11.6754 15.1025 11.8007 14.7682 12.0525V9.46234C14.7682 8.78428 15.3231 8.23047 16.0001 8.23047C16.3386 8.23047 16.6471 8.36866 16.8699 8.59253C17.0842 8.80572 17.2202 9.09709 17.2309 9.41841C17.232 9.43341 17.232 9.44734 17.232 9.46234Z" fill="white"/>
<path d="M15.9809 20.7958C16.4726 20.7958 16.8892 20.7412 17.232 20.6309V23.0667C17.232 23.7437 16.6782 24.2986 16.0001 24.2986C15.3317 24.2986 14.7822 23.7577 14.7693 23.0924C14.7683 23.0839 14.7682 23.0753 14.7682 23.0667V20.6833C15.1582 20.7583 15.5631 20.7958 15.9809 20.7958Z" fill="white"/>
</g>
<g opacity="0.5">
<path d="M15.9989 29.5401C8.5331 29.5401 2.45929 23.4662 2.45929 16.0005C2.45929 8.53475 8.53304 2.46094 15.9989 2.46094C23.4646 2.46094 29.5384 8.53469 29.5384 16.0005C29.5384 23.4663 23.4646 29.5401 15.9989 29.5401ZM15.9989 5.91325C10.4367 5.91325 5.9116 10.4384 5.9116 16.0005C5.9116 21.5626 10.4367 26.0877 15.9989 26.0877C21.561 26.0877 26.0861 21.5626 26.0861 16.0005C26.0861 10.4384 21.5609 5.91325 15.9989 5.91325Z" fill="#FBBD04"/>
</g>
<path d="M19.0997 13.24C18.7797 12.6533 18.3397 12.2067 17.7797 11.9C17.2197 11.5933 16.5664 11.44 15.8197 11.44C14.993 11.44 14.2597 11.6267 13.6197 12C12.9797 12.3733 12.4797 12.9067 12.1197 13.6C11.7597 14.2933 11.5797 15.0933 11.5797 16C11.5797 16.9333 11.7597 17.7467 12.1197 18.44C12.493 19.1333 13.0064 19.6667 13.6597 20.04C14.313 20.4133 15.073 20.6 15.9397 20.6C17.0064 20.6 17.8797 20.32 18.5597 19.76C19.2397 19.1867 19.6864 18.3933 19.8997 17.38H15.0997V15.24H22.6597V17.68C22.473 18.6533 22.073 19.5533 21.4597 20.38C20.8464 21.2067 20.053 21.8733 19.0797 22.38C18.1197 22.8733 17.0397 23.12 15.8397 23.12C14.493 23.12 13.273 22.82 12.1797 22.22C11.0997 21.6067 10.2464 20.76 9.61969 19.68C9.00636 18.6 8.69969 17.3733 8.69969 16C8.69969 14.6267 9.00636 13.4 9.61969 12.32C10.2464 11.2267 11.0997 10.38 12.1797 9.78C13.273 9.16667 14.4864 8.86 15.8197 8.86C17.393 8.86 18.7597 9.24667 19.9197 10.02C21.0797 10.78 21.8797 11.8533 22.3197 13.24H19.0997Z" fill="#E2AA04"/>
<path d="M17.232 9.19672V11.5008C16.871 11.4398 16.5239 11.4098 16.1908 11.4098C15.577 11.4098 15.1025 11.5351 14.7682 11.7868V9.19672C14.7682 8.51866 15.3231 7.96484 16.0001 7.96484C16.3386 7.96484 16.6471 8.10303 16.8699 8.32691C17.0842 8.54009 17.2202 8.83141 17.2309 9.15278C17.232 9.16778 17.232 9.18172 17.232 9.19672Z" fill="#E2AA04"/>
<path d="M15.9809 20.5302C16.4726 20.5302 16.8892 20.4755 17.232 20.3652V22.8011C17.232 23.4781 16.6782 24.033 16.0001 24.033C15.3317 24.033 14.7822 23.492 14.7693 22.8268C14.7683 22.8182 14.7682 22.8097 14.7682 22.8011V20.4177C15.1582 20.4927 15.5631 20.5302 15.9809 20.5302Z" fill="#E2AA04"/>
<path d="M4.12259 16.5973C4.45258 16.5973 4.72009 16.3298 4.72009 15.9998C4.72009 15.6699 4.45258 15.4023 4.12259 15.4023C3.7926 15.4023 3.52509 15.6699 3.52509 15.9998C3.52509 16.3298 3.7926 16.5973 4.12259 16.5973Z" fill="#FFD700"/>
<path d="M27.7567 16.5973C28.0867 16.5973 28.3542 16.3298 28.3542 15.9998C28.3542 15.6699 28.0867 15.4023 27.7567 15.4023C27.4267 15.4023 27.1592 15.6699 27.1592 15.9998C27.1592 16.3298 27.4267 16.5973 27.7567 16.5973Z" fill="#FFD700"/>
</g>
<defs>
<clipPath id="clip0_2279_2578">
<rect width="32" height="32" fill="white"/>
</clipPath>
</defs>
</svg>
