<svg width="33" height="32" viewBox="0 0 33 32" fill="none" xmlns="http://www.w3.org/2000/svg">
<path d="M16.1895 32C7.36702 32 0.189453 24.8224 0.189453 16C0.189453 7.17756 7.36702 0 16.1895 0C25.0119 0 32.1895 7.17756 32.1895 16C32.1895 24.8224 25.0119 32 16.1895 32Z" fill="#FFD700"/>
<g opacity="0.2">
<path d="M17.4218 9.46234V11.7665C17.0608 11.7054 16.7137 11.6754 16.3806 11.6754C15.7668 11.6754 15.2923 11.8007 14.958 12.0525V9.46234C14.958 8.78428 15.5129 8.23047 16.1899 8.23047C16.5284 8.23047 16.8369 8.36866 17.0597 8.59253C17.2739 8.80572 17.41 9.09709 17.4207 9.41841C17.4218 9.43341 17.4218 9.44734 17.4218 9.46234Z" fill="white"/>
<path d="M16.1706 20.7958C16.6623 20.7958 17.079 20.7412 17.4218 20.6309V23.0667C17.4218 23.7437 16.8679 24.2986 16.1899 24.2986C15.5214 24.2986 14.9719 23.7577 14.9591 23.0924C14.958 23.0839 14.958 23.0753 14.958 23.0667V20.6833C15.3479 20.7583 15.7528 20.7958 16.1706 20.7958Z" fill="white"/>
</g>
<g opacity="0.5">
<path d="M16.188 29.5401C8.72225 29.5401 2.64844 23.4662 2.64844 16.0005C2.64844 8.53475 8.72219 2.46094 16.188 2.46094C23.6537 2.46094 29.7276 8.53469 29.7276 16.0005C29.7276 23.4663 23.6537 29.5401 16.188 29.5401ZM16.188 5.91325C10.6259 5.91325 6.10075 10.4384 6.10075 16.0005C6.10075 21.5626 10.6259 26.0877 16.188 26.0877C21.7501 26.0877 26.2752 21.5626 26.2752 16.0005C26.2752 10.4384 21.7501 5.91325 16.188 5.91325Z" fill="#FBBD04"/>
</g>
<path d="M19.2895 13.24C18.9695 12.6533 18.5295 12.2067 17.9695 11.9C17.4095 11.5933 16.7561 11.44 16.0095 11.44C15.1828 11.44 14.4495 11.6267 13.8095 12C13.1695 12.3733 12.6695 12.9067 12.3095 13.6C11.9495 14.2933 11.7695 15.0933 11.7695 16C11.7695 16.9333 11.9495 17.7467 12.3095 18.44C12.6828 19.1333 13.1961 19.6667 13.8495 20.04C14.5028 20.4133 15.2628 20.6 16.1295 20.6C17.1961 20.6 18.0695 20.32 18.7495 19.76C19.4295 19.1867 19.8761 18.3933 20.0895 17.38H15.2895V15.24H22.8495V17.68C22.6628 18.6533 22.2628 19.5533 21.6495 20.38C21.0361 21.2067 20.2428 21.8733 19.2695 22.38C18.3095 22.8733 17.2295 23.12 16.0295 23.12C14.6828 23.12 13.4628 22.82 12.3695 22.22C11.2895 21.6067 10.4361 20.76 9.80945 19.68C9.19612 18.6 8.88945 17.3733 8.88945 16C8.88945 14.6267 9.19612 13.4 9.80945 12.32C10.4361 11.2267 11.2895 10.38 12.3695 9.78C13.4628 9.16667 14.6761 8.86 16.0095 8.86C17.5828 8.86 18.9495 9.24667 20.1095 10.02C21.2695 10.78 22.0695 11.8533 22.5095 13.24H19.2895Z" fill="#E2AA04"/>
<path d="M17.4218 9.19672V11.5008C17.0608 11.4398 16.7137 11.4098 16.3806 11.4098C15.7668 11.4098 15.2923 11.5351 14.958 11.7868V9.19672C14.958 8.51866 15.5129 7.96484 16.1899 7.96484C16.5284 7.96484 16.8369 8.10303 17.0597 8.32691C17.2739 8.54009 17.41 8.83141 17.4207 9.15278C17.4218 9.16778 17.4218 9.18172 17.4218 9.19672Z" fill="#E2AA04"/>
<path d="M16.1706 20.5302C16.6623 20.5302 17.079 20.4755 17.4218 20.3652V22.8011C17.4218 23.4781 16.8679 24.033 16.1899 24.033C15.5214 24.033 14.9719 23.492 14.9591 22.8268C14.958 22.8182 14.958 22.8097 14.958 22.8011V20.4177C15.3479 20.4927 15.7528 20.5302 16.1706 20.5302Z" fill="#E2AA04"/>
<path d="M4.31234 16.5973C4.64233 16.5973 4.90984 16.3298 4.90984 15.9998C4.90984 15.6699 4.64233 15.4023 4.31234 15.4023C3.98235 15.4023 3.71484 15.6699 3.71484 15.9998C3.71484 16.3298 3.98235 16.5973 4.31234 16.5973Z" fill="#FFD700"/>
<path d="M27.9461 16.5973C28.2761 16.5973 28.5436 16.3298 28.5436 15.9998C28.5436 15.6699 28.2761 15.4023 27.9461 15.4023C27.6161 15.4023 27.3486 15.6699 27.3486 15.9998C27.3486 16.3298 27.6161 16.5973 27.9461 16.5973Z" fill="#FFD700"/>
</svg>
