<svg width="19" height="18" viewBox="0 0 19 18" fill="none" xmlns="http://www.w3.org/2000/svg">
<path d="M8.70391 17.0625H5.55391C2.62141 17.0625 1.31641 15.7575 1.31641 12.825V9.675C1.31641 6.7425 2.62141 5.4375 5.55391 5.4375H8.70391C11.6364 5.4375 12.9414 6.7425 12.9414 9.675V12.825C12.9414 15.7575 11.6364 17.0625 8.70391 17.0625ZM5.55391 6.5625C3.22891 6.5625 2.44141 7.35 2.44141 9.675V12.825C2.44141 15.15 3.22891 15.9375 5.55391 15.9375H8.70391C11.0289 15.9375 11.8164 15.15 11.8164 12.825V9.675C11.8164 7.35 11.0289 6.5625 8.70391 6.5625H5.55391Z" fill="#5D3FD3"/>
<path d="M13.2039 12.5625H12.3789C12.0714 12.5625 11.8164 12.3075 11.8164 12V9.675C11.8164 7.35 11.0289 6.5625 8.70391 6.5625H6.37891C6.07141 6.5625 5.81641 6.3075 5.81641 6V5.175C5.81641 2.2425 7.12141 0.9375 10.0539 0.9375H13.2039C16.1364 0.9375 17.4414 2.2425 17.4414 5.175V8.325C17.4414 11.2575 16.1364 12.5625 13.2039 12.5625ZM12.9414 11.4375H13.2039C15.5289 11.4375 16.3164 10.65 16.3164 8.325V5.175C16.3164 2.85 15.5289 2.0625 13.2039 2.0625H10.0539C7.72891 2.0625 6.94141 2.85 6.94141 5.175V5.4375H8.70391C11.6364 5.4375 12.9414 6.7425 12.9414 9.675V11.4375Z" fill="#5D3FD3"/>
</svg>
