<svg width="25" height="24" viewBox="0 0 25 24" fill="none" xmlns="http://www.w3.org/2000/svg">
<path d="M19.9595 11.25H15.9195C13.9095 11.25 12.9395 10.36 12.9395 8.52V3.98C12.9395 2.14 13.9195 1.25 15.9195 1.25H19.9595C21.9695 1.25 22.9395 2.14 22.9395 3.98V8.51C22.9395 10.36 21.9595 11.25 19.9595 11.25ZM15.9195 2.75C14.5795 2.75 14.4395 3.13 14.4395 3.98V8.51C14.4395 9.37 14.5795 9.74 15.9195 9.74H19.9595C21.2995 9.74 21.4395 9.36 21.4395 8.51V3.98C21.4395 3.12 21.2995 2.75 19.9595 2.75H15.9195Z" fill="#FEFEFE"/>
<path d="M19.9595 22.75H15.9195C13.9095 22.75 12.9395 21.77 12.9395 19.77V15.73C12.9395 13.72 13.9195 12.75 15.9195 12.75H19.9595C21.9695 12.75 22.9395 13.73 22.9395 15.73V19.77C22.9395 21.77 21.9595 22.75 19.9595 22.75ZM15.9195 14.25C14.7395 14.25 14.4395 14.55 14.4395 15.73V19.77C14.4395 20.95 14.7395 21.25 15.9195 21.25H19.9595C21.1395 21.25 21.4395 20.95 21.4395 19.77V15.73C21.4395 14.55 21.1395 14.25 19.9595 14.25H15.9195Z" fill="#FEFEFE"/>
<path d="M8.45945 11.25H4.41945C2.40945 11.25 1.43945 10.36 1.43945 8.52V3.98C1.43945 2.14 2.41945 1.25 4.41945 1.25H8.45945C10.4695 1.25 11.4395 2.14 11.4395 3.98V8.51C11.4395 10.36 10.4595 11.25 8.45945 11.25ZM4.41945 2.75C3.07945 2.75 2.93945 3.13 2.93945 3.98V8.51C2.93945 9.37 3.07945 9.74 4.41945 9.74H8.45945C9.79945 9.74 9.93945 9.36 9.93945 8.51V3.98C9.93945 3.12 9.79945 2.75 8.45945 2.75H4.41945Z" fill="#FEFEFE"/>
<path d="M8.45945 22.75H4.41945C2.40945 22.75 1.43945 21.77 1.43945 19.77V15.73C1.43945 13.72 2.41945 12.75 4.41945 12.75H8.45945C10.4695 12.75 11.4395 13.73 11.4395 15.73V19.77C11.4395 21.77 10.4595 22.75 8.45945 22.75ZM4.41945 14.25C3.23945 14.25 2.93945 14.55 2.93945 15.73V19.77C2.93945 20.95 3.23945 21.25 4.41945 21.25H8.45945C9.63945 21.25 9.93945 20.95 9.93945 19.77V15.73C9.93945 14.55 9.63945 14.25 8.45945 14.25H4.41945Z" fill="#FEFEFE"/>
</svg>
