<svg width="25" height="25" viewBox="0 0 25 25" fill="none" xmlns="http://www.w3.org/2000/svg">
<path d="M20.7524 11.3867H16.7124C14.7024 11.3867 13.7324 10.4967 13.7324 8.65672V4.11672C13.7324 2.27672 14.7124 1.38672 16.7124 1.38672H20.7524C22.7624 1.38672 23.7324 2.27672 23.7324 4.11672V8.64672C23.7324 10.4967 22.7524 11.3867 20.7524 11.3867ZM16.7124 2.88672C15.3724 2.88672 15.2324 3.26672 15.2324 4.11672V8.64672C15.2324 9.50672 15.3724 9.87672 16.7124 9.87672H20.7524C22.0924 9.87672 22.2324 9.49672 22.2324 8.64672V4.11672C22.2324 3.25672 22.0924 2.88672 20.7524 2.88672H16.7124Z" fill="#FEFEFE"/>
<path d="M20.7524 22.8867H16.7124C14.7024 22.8867 13.7324 21.9067 13.7324 19.9067V15.8667C13.7324 13.8567 14.7124 12.8867 16.7124 12.8867H20.7524C22.7624 12.8867 23.7324 13.8667 23.7324 15.8667V19.9067C23.7324 21.9067 22.7524 22.8867 20.7524 22.8867ZM16.7124 14.3867C15.5324 14.3867 15.2324 14.6867 15.2324 15.8667V19.9067C15.2324 21.0867 15.5324 21.3867 16.7124 21.3867H20.7524C21.9324 21.3867 22.2324 21.0867 22.2324 19.9067V15.8667C22.2324 14.6867 21.9324 14.3867 20.7524 14.3867H16.7124Z" fill="#FEFEFE"/>
<path d="M9.25242 11.3867H5.21242C3.20242 11.3867 2.23242 10.4967 2.23242 8.65672V4.11672C2.23242 2.27672 3.21242 1.38672 5.21242 1.38672H9.25242C11.2624 1.38672 12.2324 2.27672 12.2324 4.11672V8.64672C12.2324 10.4967 11.2524 11.3867 9.25242 11.3867ZM5.21242 2.88672C3.87242 2.88672 3.73242 3.26672 3.73242 4.11672V8.64672C3.73242 9.50672 3.87242 9.87672 5.21242 9.87672H9.25242C10.5924 9.87672 10.7324 9.49672 10.7324 8.64672V4.11672C10.7324 3.25672 10.5924 2.88672 9.25242 2.88672H5.21242Z" fill="#FEFEFE"/>
<path d="M9.25242 22.8867H5.21242C3.20242 22.8867 2.23242 21.9067 2.23242 19.9067V15.8667C2.23242 13.8567 3.21242 12.8867 5.21242 12.8867H9.25242C11.2624 12.8867 12.2324 13.8667 12.2324 15.8667V19.9067C12.2324 21.9067 11.2524 22.8867 9.25242 22.8867ZM5.21242 14.3867C4.03242 14.3867 3.73242 14.6867 3.73242 15.8667V19.9067C3.73242 21.0867 4.03242 21.3867 5.21242 21.3867H9.25242C10.4324 21.3867 10.7324 21.0867 10.7324 19.9067V15.8667C10.7324 14.6867 10.4324 14.3867 9.25242 14.3867H5.21242Z" fill="#FEFEFE"/>
</svg>
