<svg width="33" height="32" viewBox="0 0 33 32" fill="none" xmlns="http://www.w3.org/2000/svg">
<path d="M20.4993 30.3337H12.4993C5.25935 30.3337 2.16602 27.2403 2.16602 20.0003V12.0003C2.16602 4.76033 5.25935 1.66699 12.4993 1.66699H19.166C19.7127 1.66699 20.166 2.12033 20.166 2.66699C20.166 3.21366 19.7127 3.66699 19.166 3.66699H12.4993C6.35268 3.66699 4.16602 5.85366 4.16602 12.0003V20.0003C4.16602 26.147 6.35268 28.3337 12.4993 28.3337H20.4993C26.646 28.3337 28.8327 26.147 28.8327 20.0003V13.3337C28.8327 12.787 29.286 12.3337 29.8327 12.3337C30.3794 12.3337 30.8327 12.787 30.8327 13.3337V20.0003C30.8327 27.2403 27.7393 30.3337 20.4993 30.3337Z" fill="#292D32"/>
<path d="M29.8327 14.3336H24.4993C19.9393 14.3336 18.166 12.5603 18.166 8.00031V2.66698C18.166 2.26698 18.406 1.89364 18.7793 1.74698C19.1527 1.58698 19.5793 1.68031 19.8727 1.96031L30.5393 12.627C30.8193 12.907 30.9127 13.347 30.7527 13.7203C30.5927 14.0936 30.2327 14.3336 29.8327 14.3336ZM20.166 5.08031V8.00031C20.166 11.4403 21.0593 12.3336 24.4993 12.3336H27.4193L20.166 5.08031Z" fill="#292D32"/>
<path d="M17.834 18.333H9.83398C9.28732 18.333 8.83398 17.8797 8.83398 17.333C8.83398 16.7863 9.28732 16.333 9.83398 16.333H17.834C18.3807 16.333 18.834 16.7863 18.834 17.333C18.834 17.8797 18.3807 18.333 17.834 18.333Z" fill="#292D32"/>
<path d="M15.1673 23.667H9.83398C9.28732 23.667 8.83398 23.2137 8.83398 22.667C8.83398 22.1203 9.28732 21.667 9.83398 21.667H15.1673C15.714 21.667 16.1673 22.1203 16.1673 22.667C16.1673 23.2137 15.714 23.667 15.1673 23.667Z" fill="#292D32"/>
</svg>
