<svg width="25" height="24" viewBox="0 0 25 24" fill="none" xmlns="http://www.w3.org/2000/svg">
<path d="M15.5 22.75H9.5C4.07 22.75 1.75 20.43 1.75 15V9C1.75 3.57 4.07 1.25 9.5 1.25H11.5C11.91 1.25 12.25 1.59 12.25 2C12.25 2.41 11.91 2.75 11.5 2.75H9.5C4.89 2.75 3.25 4.39 3.25 9V15C3.25 19.61 4.89 21.25 9.5 21.25H15.5C20.11 21.25 21.75 19.61 21.75 15V13C21.75 12.59 22.09 12.25 22.5 12.25C22.91 12.25 23.25 12.59 23.25 13V15C23.25 20.43 20.93 22.75 15.5 22.75Z" fill="#008080"/>
<path d="M8.99935 17.6896C8.38935 17.6896 7.82935 17.4696 7.41935 17.0696C6.92935 16.5796 6.71935 15.8696 6.82935 15.1196L7.25935 12.1096C7.33935 11.5296 7.71935 10.7796 8.12935 10.3696L16.0093 2.48957C17.9993 0.49957 20.0193 0.49957 22.0093 2.48957C23.0993 3.57957 23.5893 4.68957 23.4893 5.79957C23.3993 6.69957 22.9193 7.57957 22.0093 8.47957L14.1293 16.3596C13.7193 16.7696 12.9693 17.1496 12.3893 17.2296L9.37935 17.6596C9.24935 17.6896 9.11935 17.6896 8.99935 17.6896ZM17.0693 3.54957L9.18935 11.4296C8.99935 11.6196 8.77935 12.0596 8.73935 12.3196L8.30935 15.3296C8.26935 15.6196 8.32935 15.8596 8.47935 16.0096C8.62935 16.1596 8.86935 16.2196 9.15935 16.1796L12.1693 15.7496C12.4293 15.7096 12.8793 15.4896 13.0593 15.2996L20.9393 7.41957C21.5893 6.76957 21.9293 6.18957 21.9793 5.64957C22.0393 4.99957 21.6993 4.30957 20.9393 3.53957C19.3393 1.93957 18.2393 2.38957 17.0693 3.54957Z" fill="#008080"/>
<path d="M20.3496 9.83027C20.2796 9.83027 20.2096 9.82027 20.1496 9.80027C17.5196 9.06027 15.4296 6.97027 14.6896 4.34027C14.5796 3.94027 14.8096 3.53027 15.2096 3.41027C15.6096 3.30027 16.0196 3.53027 16.1296 3.93027C16.7296 6.06027 18.4196 7.75027 20.5496 8.35027C20.9496 8.46027 21.1796 8.88027 21.0696 9.28027C20.9796 9.62027 20.6796 9.83027 20.3496 9.83027Z" fill="#FEFEFE"/>
</svg>
