<svg width="25" height="24" viewBox="0 0 25 24" fill="none" xmlns="http://www.w3.org/2000/svg">
<path d="M17.9295 22.75H6.44945C3.95945 22.75 1.93945 20.73 1.93945 18.24V11.51C1.93945 9.02001 3.95945 7 6.44945 7H17.9295C20.4195 7 22.4395 9.02001 22.4395 11.51V12.95C22.4395 13.36 22.0995 13.7 21.6895 13.7H19.6695C19.3195 13.7 18.9995 13.83 18.7695 14.07L18.7595 14.08C18.4795 14.35 18.3495 14.72 18.3795 15.1C18.4395 15.76 19.0695 16.29 19.7895 16.29H21.6895C22.0995 16.29 22.4395 16.63 22.4395 17.04V18.23C22.4395 20.73 20.4195 22.75 17.9295 22.75ZM6.44945 8.5C4.78945 8.5 3.43945 9.85001 3.43945 11.51V18.24C3.43945 19.9 4.78945 21.25 6.44945 21.25H17.9295C19.5895 21.25 20.9395 19.9 20.9395 18.24V17.8H19.7895C18.2795 17.8 16.9995 16.68 16.8795 15.24C16.7995 14.42 17.0995 13.61 17.6995 13.02C18.2195 12.49 18.9195 12.2 19.6695 12.2H20.9395V11.51C20.9395 9.85001 19.5895 8.5 17.9295 8.5H6.44945Z" fill="#696969"/>
<path d="M2.68945 13.16C2.27945 13.16 1.93945 12.82 1.93945 12.41V7.84006C1.93945 6.35006 2.87945 5.00001 4.26945 4.47001L12.2095 1.47001C13.0295 1.16001 13.9395 1.27005 14.6495 1.77005C15.3695 2.27005 15.7895 3.08005 15.7895 3.95005V7.75003C15.7895 8.16003 15.4495 8.50003 15.0395 8.50003C14.6295 8.50003 14.2895 8.16003 14.2895 7.75003V3.95005C14.2895 3.57005 14.1095 3.22003 13.7895 3.00003C13.4695 2.78003 13.0895 2.73003 12.7295 2.87003L4.78945 5.87003C3.97945 6.18003 3.42945 6.97006 3.42945 7.84006V12.41C3.43945 12.83 3.09945 13.16 2.68945 13.16Z" fill="#696969"/>
<path d="M19.7899 17.7992C18.2799 17.7992 16.9999 16.6792 16.8799 15.2392C16.7999 14.4092 17.0999 13.5992 17.6999 13.0092C18.2099 12.4892 18.9099 12.1992 19.6599 12.1992H21.7399C22.7299 12.2292 23.4899 13.0092 23.4899 13.9692V16.0292C23.4899 16.9892 22.7299 17.7692 21.7699 17.7992H19.7899ZM21.7199 13.6992H19.6699C19.3199 13.6992 18.9999 13.8292 18.7699 14.0692C18.4799 14.3492 18.3399 14.7292 18.3799 15.1092C18.4399 15.7692 19.0699 16.2992 19.7899 16.2992H21.7499C21.8799 16.2992 21.9999 16.1792 21.9999 16.0292V13.9692C21.9999 13.8192 21.8799 13.7092 21.7199 13.6992Z" fill="#696969"/>
<path d="M14.1895 12.75H7.18945C6.77945 12.75 6.43945 12.41 6.43945 12C6.43945 11.59 6.77945 11.25 7.18945 11.25H14.1895C14.5995 11.25 14.9395 11.59 14.9395 12C14.9395 12.41 14.5995 12.75 14.1895 12.75Z" fill="#696969"/>
</svg>
