<svg width="96" height="97" viewBox="0 0 96 97" fill="none" xmlns="http://www.w3.org/2000/svg">
<g clip-path="url(#clip0_2438_27430)">
<rect y="0.5" width="96" height="96" rx="48" fill="#DB0000" fill-opacity="0.25"/>
<path d="M29.0537 72.0519C27.7791 72.0519 26.5045 71.5823 25.4982 70.576C23.5527 68.6305 23.5527 65.4104 25.4982 63.4649L63.4688 25.4943C65.4143 23.5488 68.6345 23.5488 70.5799 25.4943C72.5254 27.4398 72.5254 30.6599 70.5799 32.6054L32.6093 70.576C31.6701 71.5823 30.3284 72.0519 29.0537 72.0519Z" fill="#DB0000"/>
<path d="M67.0244 72.0519C65.7498 72.0519 64.4751 71.5823 63.4688 70.576L25.4982 32.6054C23.5527 30.6599 23.5527 27.4398 25.4982 25.4943C27.4437 23.5488 30.6638 23.5488 32.6093 25.4943L70.5799 63.4649C72.5254 65.4104 72.5254 68.6305 70.5799 70.576C69.5737 71.5823 68.299 72.0519 67.0244 72.0519Z" fill="#DB0000"/>
</g>
<defs>
<clipPath id="clip0_2438_27430">
<rect y="0.5" width="96" height="96" rx="48" fill="white"/>
</clipPath>
</defs>
</svg>
