<svg width="16" height="17" viewBox="0 0 16 17" fill="none" xmlns="http://www.w3.org/2000/svg">
<path d="M7.29339 15.6004C6.97339 15.6004 6.66006 15.5204 6.36672 15.3604C5.78006 15.0337 5.42672 14.4404 5.42672 13.7737V10.2404C5.42672 9.90706 5.20672 9.40706 5.00006 9.15372L2.50672 6.51372C2.08672 6.09372 1.76672 5.37372 1.76672 4.83372V3.30039C1.76672 2.23372 2.57339 1.40039 3.60006 1.40039H12.4001C13.4134 1.40039 14.2334 2.22039 14.2334 3.23372V4.70039C14.2334 5.40039 13.8134 6.19372 13.4201 6.58706L10.5334 9.14039C10.2534 9.37372 10.0334 9.88706 10.0334 10.3004V13.1671C10.0334 13.7604 9.66006 14.4471 9.19339 14.7271L8.27339 15.3204C7.97339 15.5071 7.63339 15.6004 7.29339 15.6004ZM3.60006 2.40039C3.13339 2.40039 2.76672 2.79372 2.76672 3.30039V4.83372C2.76672 5.08039 2.96672 5.56039 3.22006 5.81372L5.76006 8.48706C6.10006 8.90706 6.43339 9.60706 6.43339 10.2337V13.7671C6.43339 14.2004 6.73339 14.4137 6.86006 14.4804C7.14006 14.6337 7.48006 14.6337 7.74006 14.4737L8.66672 13.8804C8.85339 13.7671 9.04006 13.4071 9.04006 13.1671V10.3004C9.04006 9.58706 9.38672 8.80039 9.88672 8.38039L12.7401 5.85372C12.9667 5.62706 13.2401 5.08706 13.2401 4.69372V3.23372C13.2401 2.77372 12.8667 2.40039 12.4067 2.40039H3.60006Z" fill="#696969"/>
<path d="M3.99995 7.66652C3.90661 7.66652 3.81995 7.63985 3.73328 7.59318C3.49995 7.44652 3.42661 7.13318 3.57328 6.89985L6.85995 1.63318C7.00661 1.39985 7.31328 1.32652 7.54661 1.47318C7.77995 1.61985 7.85328 1.92652 7.70661 2.15985L4.41995 7.42652C4.32661 7.57985 4.16661 7.66652 3.99995 7.66652Z" fill="#696969"/>
</svg>
