<svg width="32" height="32" viewBox="0 0 32 32" fill="none" xmlns="http://www.w3.org/2000/svg">
<path d="M22.9262 30.9994L16.0012 27.7744L9.07617 30.9994V11.5244H22.9262V30.9994Z" fill="#008600" fill-opacity="0.7"/>
<path d="M22.9262 31.2494C22.9012 31.2494 22.8512 31.2494 22.8262 31.2244L16.0012 28.0494L9.20117 31.2244C9.12617 31.2494 9.02617 31.2494 8.95117 31.1994C8.87617 31.1494 8.82617 31.0744 8.82617 30.9994V11.5244C8.82617 11.3744 8.92617 11.2744 9.07617 11.2744H22.9012C23.0512 11.2744 23.1512 11.3744 23.1512 11.5244V30.9994C23.1512 31.0744 23.1012 31.1744 23.0262 31.1994C23.0012 31.2244 22.9512 31.2494 22.9262 31.2494ZM16.0012 27.5244C16.0262 27.5244 16.0762 27.5244 16.1012 27.5494L22.6512 30.5994V11.7744H9.32617V30.6244L15.8762 27.5744C15.9262 27.5494 15.9762 27.5244 16.0012 27.5244Z" fill="#008600" fill-opacity="0.7"/>
<path d="M17.1262 1.675C17.5012 2.375 18.4262 2.55 19.0512 2.05C19.8512 1.425 21.0262 1.9 21.1262 2.9C21.1485 3.08466 21.2103 3.26238 21.3072 3.42114C21.4041 3.57991 21.534 3.71602 21.688 3.82029C21.842 3.92457 22.0167 3.99457 22.2001 4.02557C22.3835 4.05657 22.5714 4.04785 22.7512 4C23.7262 3.725 24.6262 4.625 24.3512 5.6C24.1262 6.375 24.6512 7.15 25.4512 7.225C26.4512 7.35 26.9512 8.525 26.3012 9.3C25.8012 9.925 25.9762 10.85 26.6762 11.225C27.5512 11.725 27.5512 12.975 26.6762 13.475C25.9762 13.85 25.8012 14.775 26.3012 15.4C26.9262 16.2 26.4512 17.375 25.4512 17.475C25.2665 17.4974 25.0888 17.5591 24.93 17.656C24.7713 17.7529 24.6352 17.8828 24.5309 18.0368C24.4266 18.1909 24.3566 18.3655 24.3256 18.5489C24.2946 18.7323 24.3033 18.9202 24.3512 19.1C24.6262 20.075 23.7262 20.975 22.7512 20.7C21.9762 20.475 21.2012 21 21.1262 21.8C21.0012 22.8 19.8262 23.3 19.0512 22.65C18.4262 22.15 17.5012 22.325 17.1262 23.025C16.6262 23.9 15.3762 23.9 14.8762 23.025C14.5012 22.325 13.5762 22.15 12.9512 22.65C12.1512 23.275 10.9762 22.8 10.8762 21.8C10.8538 21.6153 10.7921 21.4376 10.6952 21.2789C10.5982 21.1201 10.4684 20.984 10.3143 20.8797C10.1603 20.7754 9.98567 20.7054 9.80226 20.6744C9.61885 20.6434 9.43092 20.6521 9.25117 20.7C8.27617 20.975 7.37617 20.075 7.65117 19.1C7.87617 18.325 7.35117 17.55 6.55117 17.475C5.55117 17.35 5.05117 16.175 5.70117 15.4C6.20117 14.775 6.02617 13.85 5.32617 13.475C4.45117 12.975 4.45117 11.725 5.32617 11.225C6.02617 10.85 6.20117 9.925 5.70117 9.3C5.07617 8.5 5.55117 7.325 6.55117 7.225C6.73584 7.20264 6.91355 7.14092 7.07232 7.04399C7.23108 6.94707 7.36719 6.8172 7.47147 6.66316C7.57574 6.50912 7.64574 6.3345 7.67674 6.15109C7.70774 5.96768 7.69902 5.77975 7.65117 5.6C7.37617 4.625 8.27617 3.725 9.25117 4C10.0262 4.225 10.8012 3.7 10.8762 2.9C11.0012 1.9 12.1762 1.4 12.9512 2.05C13.5762 2.55 14.5012 2.375 14.8762 1.675C15.3762 0.775 16.6262 0.775 17.1262 1.675Z" fill="#FBBD04"/>
<path d="M16 23.975C15.425 23.975 14.925 23.675 14.65 23.175C14.475 22.85 14.125 22.65 13.75 22.65C13.525 22.65 13.3 22.725 13.1 22.875C12.825 23.1 12.5 23.2 12.15 23.2C11.375 23.2 10.7 22.625 10.625 21.825C10.575 21.3 10.125 20.9 9.6 20.9C9.5 20.9 9.4 20.925 9.3 20.95C8.7 21.125 8.025 20.9 7.65 20.4C7.35 20.025 7.275 19.525 7.4 19.05C7.475 18.75 7.425 18.45 7.275 18.2C7.1 17.95 6.825 17.775 6.525 17.75C5.95 17.675 5.5 17.325 5.275 16.8C5.05 16.275 5.15 15.7 5.5 15.25C5.7 15 5.775 14.7 5.7 14.4C5.65 14.1 5.45 13.85 5.175 13.7C4.675 13.425 4.375 12.925 4.375 12.35C4.375 11.775 4.675 11.275 5.175 11C5.45 10.85 5.625 10.6 5.7 10.3C5.75 10 5.675 9.7 5.5 9.45C5.15 9 5.075 8.425 5.275 7.9C5.5 7.375 5.95 7.025 6.525 6.95C6.825 6.925 7.1 6.75 7.275 6.5C7.45 6.25 7.5 5.925 7.4 5.65C7.275 5.175 7.35 4.7 7.65 4.3C8.025 3.8 8.7 3.575 9.3 3.75C9.4 3.775 9.5 3.8 9.6 3.8C10.125 3.8 10.575 3.4 10.625 2.875C10.725 2.1 11.375 1.5 12.15 1.5C12.5 1.5 12.825 1.625 13.1 1.825C13.3 2 13.5 2.075 13.75 2.075C14.125 2.075 14.475 1.875 14.65 1.55C14.925 1.05 15.425 0.75 16 0.75C16.575 0.75 17.075 1.05 17.35 1.55C17.525 1.875 17.875 2.075 18.25 2.075C18.475 2.075 18.7 2 18.9 1.85C19.175 1.625 19.5 1.525 19.85 1.525C20.625 1.525 21.3 2.1 21.375 2.9C21.425 3.425 21.875 3.825 22.4 3.825C22.5 3.825 22.6 3.8 22.7 3.775C23.3 3.6 23.975 3.825 24.35 4.325C24.65 4.7 24.725 5.2 24.6 5.675C24.525 5.975 24.575 6.275 24.725 6.525C24.9 6.775 25.175 6.95 25.475 6.975C26.05 7.05 26.5 7.4 26.725 7.925C26.95 8.45 26.85 9.025 26.5 9.475C26.3 9.725 26.225 10.025 26.3 10.325C26.35 10.625 26.55 10.875 26.825 11.025C27.325 11.3 27.625 11.8 27.625 12.375C27.625 12.95 27.325 13.45 26.825 13.725C26.55 13.875 26.375 14.125 26.3 14.425C26.25 14.725 26.325 15.025 26.5 15.275C26.85 15.725 26.925 16.3 26.725 16.825C26.5 17.35 26.05 17.7 25.475 17.775C25.175 17.8 24.9 17.975 24.725 18.225C24.55 18.475 24.5 18.8 24.6 19.075C24.725 19.55 24.65 20.025 24.35 20.425C23.975 20.925 23.3 21.15 22.7 20.975C22.6 20.95 22.5 20.925 22.4 20.925C21.875 20.925 21.425 21.325 21.375 21.85C21.275 22.625 20.625 23.225 19.85 23.225C19.5 23.225 19.175 23.1 18.9 22.9C18.725 22.75 18.5 22.675 18.25 22.675C17.875 22.675 17.525 22.875 17.35 23.2C17.075 23.675 16.575 23.975 16 23.975ZM13.75 22.15C14.3 22.15 14.825 22.45 15.1 22.95C15.275 23.275 15.625 23.475 16 23.475C16.375 23.475 16.725 23.275 16.9 22.95C17.175 22.45 17.675 22.15 18.25 22.15C18.6 22.15 18.925 22.275 19.2 22.475C19.375 22.625 19.6 22.7 19.85 22.7C20.3 22.7 20.825 22.375 20.875 21.775C20.975 21 21.625 20.4 22.4 20.4C22.55 20.4 22.675 20.425 22.825 20.45C23.25 20.575 23.675 20.425 23.95 20.075C24.15 19.825 24.2 19.475 24.125 19.175C24 18.75 24.075 18.275 24.325 17.9C24.575 17.525 24.975 17.275 25.425 17.225C25.8 17.175 26.125 16.95 26.275 16.6C26.425 16.25 26.375 15.85 26.125 15.55C25.85 15.2 25.725 14.725 25.825 14.3C25.925 13.85 26.2 13.475 26.6 13.25C26.925 13.075 27.125 12.725 27.125 12.35C27.125 11.975 26.925 11.625 26.6 11.45C26.2 11.225 25.925 10.85 25.825 10.4C25.725 9.95 25.85 9.5 26.125 9.15C26.375 8.85 26.425 8.45 26.275 8.1C26.125 7.75 25.825 7.5 25.425 7.475C24.975 7.425 24.575 7.175 24.325 6.8C24.075 6.425 24 5.95 24.125 5.525C24.225 5.2 24.15 4.875 23.95 4.625C23.7 4.275 23.25 4.125 22.825 4.25C22.675 4.3 22.55 4.3 22.4 4.3C21.625 4.3 20.975 3.725 20.875 2.925C20.8 2.325 20.3 2 19.85 2C19.625 2 19.4 2.075 19.2 2.225C18.925 2.45 18.6 2.55 18.25 2.55C17.7 2.55 17.175 2.25 16.9 1.75C16.725 1.45 16.375 1.25 16 1.25C15.625 1.25 15.275 1.45 15.1 1.775C14.825 2.275 14.325 2.575 13.75 2.575C13.4 2.575 13.075 2.45 12.8 2.25C12.625 2.1 12.4 2.025 12.15 2.025C11.7 2.025 11.175 2.35 11.125 2.95C11.025 3.725 10.375 4.325 9.6 4.325C9.45 4.325 9.325 4.3 9.175 4.275C8.75 4.15 8.325 4.3 8.05 4.65C7.85 4.9 7.8 5.25 7.875 5.55C8 5.975 7.925 6.45 7.675 6.825C7.425 7.2 7.025 7.45 6.575 7.5C6.2 7.55 5.875 7.775 5.725 8.125C5.575 8.475 5.625 8.875 5.875 9.175C6.15 9.525 6.275 9.975 6.175 10.425C6.075 10.875 5.8 11.25 5.4 11.475C5.075 11.65 4.875 12 4.875 12.375C4.875 12.75 5.075 13.1 5.4 13.275C5.8 13.5 6.075 13.875 6.175 14.325C6.275 14.775 6.15 15.225 5.875 15.575C5.625 15.875 5.575 16.275 5.725 16.625C5.875 16.975 6.175 17.225 6.575 17.25C7.025 17.3 7.425 17.55 7.675 17.925C7.925 18.3 8 18.775 7.875 19.2C7.775 19.525 7.85 19.85 8.05 20.1C8.3 20.45 8.75 20.6 9.175 20.475C9.325 20.425 9.45 20.425 9.6 20.425C10.375 20.425 11.025 21 11.125 21.8C11.2 22.4 11.7 22.725 12.15 22.725C12.375 22.725 12.6 22.65 12.8 22.5C13.075 22.25 13.4 22.15 13.75 22.15Z" fill="#FBBD04"/>
<path d="M16 23.975C15.425 23.975 14.925 23.675 14.65 23.175C14.475 22.85 14.125 22.65 13.75 22.65C13.525 22.65 13.3 22.725 13.1 22.875C12.825 23.1 12.5 23.2 12.15 23.2C11.375 23.2 10.7 22.625 10.625 21.825C10.575 21.3 10.125 20.9 9.6 20.9C9.5 20.9 9.4 20.925 9.3 20.95C8.7 21.125 8.025 20.9 7.65 20.4C7.35 20.025 7.275 19.525 7.4 19.05C7.475 18.75 7.425 18.45 7.275 18.2C7.1 17.95 6.825 17.775 6.525 17.75C5.95 17.675 5.5 17.325 5.275 16.8C5.05 16.275 5.15 15.7 5.5 15.25C5.7 15 5.775 14.7 5.7 14.4C5.65 14.1 5.45 13.85 5.175 13.7C4.675 13.425 4.375 12.925 4.375 12.35C4.375 11.775 4.675 11.275 5.175 11C5.45 10.85 5.625 10.6 5.7 10.3C5.75 10 5.675 9.7 5.5 9.45C5.15 9 5.075 8.425 5.275 7.9C5.5 7.375 5.95 7.025 6.525 6.95C6.825 6.925 7.1 6.75 7.275 6.5C7.45 6.25 7.5 5.925 7.4 5.65C7.275 5.175 7.35 4.7 7.65 4.3C8.025 3.8 8.7 3.575 9.3 3.75C9.4 3.775 9.5 3.8 9.6 3.8C10.125 3.8 10.575 3.4 10.625 2.875C10.725 2.1 11.375 1.5 12.15 1.5C12.5 1.5 12.825 1.625 13.1 1.825C13.3 2 13.5 2.075 13.75 2.075C14.125 2.075 14.475 1.875 14.65 1.55C14.925 1.05 15.425 0.75 16 0.75C16.575 0.75 17.075 1.05 17.35 1.55C17.525 1.875 17.875 2.075 18.25 2.075C18.475 2.075 18.7 2 18.9 1.85C19.175 1.625 19.5 1.525 19.85 1.525C20.625 1.525 21.3 2.1 21.375 2.9C21.425 3.425 21.875 3.825 22.4 3.825C22.5 3.825 22.6 3.8 22.7 3.775C23.3 3.6 23.975 3.825 24.35 4.325C24.65 4.7 24.725 5.2 24.6 5.675C24.525 5.975 24.575 6.275 24.725 6.525C24.9 6.775 25.175 6.95 25.475 6.975C26.05 7.05 26.5 7.4 26.725 7.925C26.95 8.45 26.85 9.025 26.5 9.475C26.3 9.725 26.225 10.025 26.3 10.325C26.35 10.625 26.55 10.875 26.825 11.025C27.325 11.3 27.625 11.8 27.625 12.375C27.625 12.95 27.325 13.45 26.825 13.725C26.55 13.875 26.375 14.125 26.3 14.425C26.25 14.725 26.325 15.025 26.5 15.275C26.85 15.725 26.925 16.3 26.725 16.825C26.5 17.35 26.05 17.7 25.475 17.775C25.175 17.8 24.9 17.975 24.725 18.225C24.55 18.475 24.5 18.8 24.6 19.075C24.725 19.55 24.65 20.025 24.35 20.425C23.975 20.925 23.3 21.15 22.7 20.975C22.6 20.95 22.5 20.925 22.4 20.925C21.875 20.925 21.425 21.325 21.375 21.85C21.275 22.625 20.625 23.225 19.85 23.225C19.5 23.225 19.175 23.1 18.9 22.9C18.725 22.75 18.5 22.675 18.25 22.675C17.875 22.675 17.525 22.875 17.35 23.2C17.075 23.675 16.575 23.975 16 23.975ZM13.75 22.15C14.3 22.15 14.825 22.45 15.1 22.95C15.275 23.275 15.625 23.475 16 23.475C16.375 23.475 16.725 23.275 16.9 22.95C17.175 22.45 17.675 22.15 18.25 22.15C18.6 22.15 18.925 22.275 19.2 22.475C19.375 22.625 19.6 22.7 19.85 22.7C20.3 22.7 20.825 22.375 20.875 21.775C20.975 21 21.625 20.4 22.4 20.4C22.55 20.4 22.675 20.425 22.825 20.45C23.25 20.575 23.675 20.425 23.95 20.075C24.15 19.825 24.2 19.475 24.125 19.175C24 18.75 24.075 18.275 24.325 17.9C24.575 17.525 24.975 17.275 25.425 17.225C25.8 17.175 26.125 16.95 26.275 16.6C26.425 16.25 26.375 15.85 26.125 15.55C25.85 15.2 25.725 14.725 25.825 14.3C25.925 13.85 26.2 13.475 26.6 13.25C26.925 13.075 27.125 12.725 27.125 12.35C27.125 11.975 26.925 11.625 26.6 11.45C26.2 11.225 25.925 10.85 25.825 10.4C25.725 9.95 25.85 9.5 26.125 9.15C26.375 8.85 26.425 8.45 26.275 8.1C26.125 7.75 25.825 7.5 25.425 7.475C24.975 7.425 24.575 7.175 24.325 6.8C24.075 6.425 24 5.95 24.125 5.525C24.225 5.2 24.15 4.875 23.95 4.625C23.7 4.275 23.25 4.125 22.825 4.25C22.675 4.3 22.55 4.3 22.4 4.3C21.625 4.3 20.975 3.725 20.875 2.925C20.8 2.325 20.3 2 19.85 2C19.625 2 19.4 2.075 19.2 2.225C18.925 2.45 18.6 2.55 18.25 2.55C17.7 2.55 17.175 2.25 16.9 1.75C16.725 1.45 16.375 1.25 16 1.25C15.625 1.25 15.275 1.45 15.1 1.775C14.825 2.275 14.325 2.575 13.75 2.575C13.4 2.575 13.075 2.45 12.8 2.25C12.625 2.1 12.4 2.025 12.15 2.025C11.7 2.025 11.175 2.35 11.125 2.95C11.025 3.725 10.375 4.325 9.6 4.325C9.45 4.325 9.325 4.3 9.175 4.275C8.75 4.15 8.325 4.3 8.05 4.65C7.85 4.9 7.8 5.25 7.875 5.55C8 5.975 7.925 6.45 7.675 6.825C7.425 7.2 7.025 7.45 6.575 7.5C6.2 7.55 5.875 7.775 5.725 8.125C5.575 8.475 5.625 8.875 5.875 9.175C6.15 9.525 6.275 9.975 6.175 10.425C6.075 10.875 5.8 11.25 5.4 11.475C5.075 11.65 4.875 12 4.875 12.375C4.875 12.75 5.075 13.1 5.4 13.275C5.8 13.5 6.075 13.875 6.175 14.325C6.275 14.775 6.15 15.225 5.875 15.575C5.625 15.875 5.575 16.275 5.725 16.625C5.875 16.975 6.175 17.225 6.575 17.25C7.025 17.3 7.425 17.55 7.675 17.925C7.925 18.3 8 18.775 7.875 19.2C7.775 19.525 7.85 19.85 8.05 20.1C8.3 20.45 8.75 20.6 9.175 20.475C9.325 20.425 9.45 20.425 9.6 20.425C10.375 20.425 11.025 21 11.125 21.8C11.2 22.4 11.7 22.725 12.15 22.725C12.375 22.725 12.6 22.65 12.8 22.5C13.075 22.25 13.4 22.15 13.75 22.15Z" fill="#6A576D" fill-opacity="0.5"/>
<path d="M19.2177 16.4004C19.4044 16.4004 19.551 16.4564 19.6577 16.5684C19.7644 16.6751 19.8177 16.8137 19.8177 16.9844V18.0244H12.0257V17.4404C12.0257 17.3231 12.0497 17.2004 12.0977 17.0724C12.1457 16.9444 12.223 16.8271 12.3297 16.7204L15.9137 13.1284C16.2177 12.8244 16.487 12.5337 16.7217 12.2564C16.9617 11.9791 17.1644 11.7017 17.3297 11.4244C17.5004 11.1471 17.6284 10.8671 17.7137 10.5844C17.8044 10.2964 17.8497 9.99508 17.8497 9.68041C17.8497 9.37641 17.8017 9.10975 17.7057 8.88041C17.615 8.64575 17.487 8.45375 17.3217 8.30441C17.1617 8.14975 16.967 8.03508 16.7377 7.96041C16.5137 7.88041 16.2657 7.84041 15.9937 7.84041C15.7324 7.84041 15.4897 7.87775 15.2657 7.95241C15.047 8.02708 14.8497 8.13108 14.6737 8.26441C14.503 8.39775 14.359 8.55775 14.2417 8.74441C14.1297 8.92575 14.047 9.12575 13.9937 9.34441C13.9137 9.56308 13.8097 9.70975 13.6817 9.78441C13.559 9.85908 13.3777 9.87508 13.1377 9.83241L12.2337 9.67241C12.3137 9.12841 12.463 8.65108 12.6817 8.24041C12.9057 7.82975 13.1857 7.48841 13.5217 7.21641C13.8577 6.93908 14.2417 6.73108 14.6737 6.59241C15.111 6.44841 15.583 6.37641 16.0897 6.37641C16.6017 6.37641 17.071 6.45375 17.4977 6.60841C17.9297 6.75775 18.3004 6.97375 18.6097 7.25641C18.9244 7.53375 19.1697 7.87241 19.3457 8.27241C19.5217 8.67241 19.6097 9.12308 19.6097 9.62441C19.6097 10.0511 19.5457 10.4457 19.4177 10.8084C19.295 11.1711 19.127 11.5177 18.9137 11.8484C18.7004 12.1791 18.4497 12.5017 18.1617 12.8164C17.879 13.1257 17.5804 13.4404 17.2657 13.7604L14.4817 16.6084C14.711 16.5444 14.9404 16.4937 15.1697 16.4564C15.4044 16.4191 15.6257 16.4004 15.8337 16.4004H19.2177Z" fill="#696969"/>
</svg>
