<svg width="33" height="32" viewBox="0 0 33 32" fill="none" xmlns="http://www.w3.org/2000/svg">
<path d="M23.6236 30.3332C19.5436 30.3332 16.2236 27.0132 16.2236 22.9332C16.2236 18.8532 19.5436 15.5332 23.6236 15.5332C27.7036 15.5332 31.0236 18.8532 31.0236 22.9332C31.0236 27.0132 27.7036 30.3332 23.6236 30.3332ZM23.6236 17.5332C20.6503 17.5332 18.2236 19.9599 18.2236 22.9332C18.2236 25.9065 20.6503 28.3332 23.6236 28.3332C26.597 28.3332 29.0236 25.9065 29.0236 22.9332C29.0236 19.9599 26.597 17.5332 23.6236 17.5332Z" fill="#008080"/>
<path d="M26.0103 24.0137H21.2236C20.677 24.0137 20.2236 23.5603 20.2236 23.0137C20.2236 22.467 20.677 22.0137 21.2236 22.0137H26.0103C26.5569 22.0137 27.0103 22.467 27.0103 23.0137C27.0103 23.5603 26.5703 24.0137 26.0103 24.0137Z" fill="#008080"/>
<path d="M23.623 26.4663C23.0764 26.4663 22.623 26.013 22.623 25.4663V20.6797C22.623 20.133 23.0764 19.6797 23.623 19.6797C24.1697 19.6797 24.623 20.133 24.623 20.6797V25.4663C24.623 26.013 24.1697 26.4663 23.623 26.4663Z" fill="#008080"/>
<path d="M16.6898 28.8662C16.2764 28.8662 15.8631 28.8129 15.5298 28.6929C12.1165 27.5329 2.35645 21.8795 2.35645 11.5862C2.35645 6.91952 6.12978 3.13281 10.7698 3.13281C12.9964 3.13281 15.1298 4.02618 16.6898 5.58618C18.2498 4.02618 20.3964 3.13281 22.6098 3.13281C27.2498 3.13281 31.0231 6.91952 31.0231 11.5862C31.0231 14.1862 30.3964 16.6795 29.1564 19.0129C29.0097 19.2929 28.7298 19.4929 28.4098 19.5329C28.0764 19.5729 27.7698 19.4662 27.5431 19.2262C26.5031 18.1328 25.1031 17.5195 23.6098 17.5195C20.6364 17.5195 18.2098 19.9462 18.2098 22.9195C18.2098 24.2395 18.7031 25.5195 19.5964 26.5195C19.8098 26.7595 19.8897 27.0795 19.8231 27.3861C19.7564 27.6928 19.5431 27.9595 19.2631 28.0929C18.7298 28.3329 18.2498 28.5329 17.8098 28.6795C17.5031 28.8129 17.1031 28.8662 16.6898 28.8662ZM10.7698 5.13281C7.23644 5.13281 4.35645 8.02618 4.35645 11.5862C4.35645 20.7062 13.1164 25.7461 16.1831 26.7995C16.4231 26.8928 16.9431 26.8795 17.1831 26.7995C17.2231 26.7861 17.2631 26.7729 17.3031 26.7595C16.6098 25.6129 16.2231 24.2929 16.2231 22.9329C16.2231 18.8529 19.5431 15.5329 23.6231 15.5329C25.1965 15.5329 26.6898 16.0262 27.9431 16.9195C28.6631 15.2128 29.0231 13.4262 29.0231 11.5862C29.0231 8.02618 26.1431 5.13281 22.6098 5.13281C20.6098 5.13281 18.6897 6.09288 17.4897 7.70622C17.1164 8.21288 16.2631 8.21288 15.8898 7.70622C14.6898 6.09288 12.7698 5.13281 10.7698 5.13281Z" fill="#008080"/>
</svg>
