<svg width="33" height="32" viewBox="0 0 33 32" fill="none" xmlns="http://www.w3.org/2000/svg">
<path d="M29.8327 30.333H3.16602C2.61935 30.333 2.16602 29.8797 2.16602 29.333C2.16602 28.7863 2.61935 28.333 3.16602 28.333H29.8327C30.3794 28.333 30.8327 28.7863 30.8327 29.333C30.8327 29.8797 30.3794 30.333 29.8327 30.333Z" fill="#292D32"/>
<path d="M5.43164 29.3336H3.43164L3.49831 13.2936C3.49831 12.1603 4.01831 11.107 4.91164 10.4136L14.245 3.14695C15.565 2.12029 17.4183 2.12029 18.7516 3.14695L28.085 10.4003C28.965 11.0936 29.4983 12.1736 29.4983 13.2936V29.3336H27.4983V13.3069C27.4983 12.8003 27.2583 12.307 26.8583 11.987L17.525 4.73362C16.925 4.26696 16.085 4.26696 15.4716 4.73362L6.13832 12.0003C5.73832 12.307 5.49831 12.8003 5.49831 13.3069L5.43164 29.3336Z" fill="#292D32"/>
<path d="M23.1673 30.3337H9.83398C9.28732 30.3337 8.83398 29.8803 8.83398 29.3337V16.667C8.83398 15.0137 10.1807 13.667 11.834 13.667H21.1673C22.8207 13.667 24.1673 15.0137 24.1673 16.667V29.3337C24.1673 29.8803 23.714 30.3337 23.1673 30.3337ZM10.834 28.3337H22.1673V16.667C22.1673 16.1203 21.714 15.667 21.1673 15.667H11.834C11.2873 15.667 10.834 16.1203 10.834 16.667V28.3337Z" fill="#292D32"/>
<path d="M13.834 24.667C13.2873 24.667 12.834 24.2137 12.834 23.667V21.667C12.834 21.1203 13.2873 20.667 13.834 20.667C14.3807 20.667 14.834 21.1203 14.834 21.667V23.667C14.834 24.2137 14.3807 24.667 13.834 24.667Z" fill="#292D32"/>
<path d="M18.5 11H14.5C13.9533 11 13.5 10.5467 13.5 10C13.5 9.45333 13.9533 9 14.5 9H18.5C19.0467 9 19.5 9.45333 19.5 10C19.5 10.5467 19.0467 11 18.5 11Z" fill="#292D32"/>
</svg>
