<svg width="65" height="64" viewBox="0 0 65 64" fill="none" xmlns="http://www.w3.org/2000/svg">
<path d="M32.527 60.6421C30.847 60.6421 29.1936 60.0821 27.887 58.9621L23.6736 55.3621C23.247 54.9888 22.1803 54.6155 21.6203 54.6155H16.9536C13.007 54.6155 9.80698 51.4155 9.80698 47.4688V42.9088C9.80698 42.3488 9.43365 41.2821 9.08698 40.8821L5.46031 36.6155C3.27365 34.0288 3.27365 29.9755 5.46031 27.3621L9.08698 23.0955C9.43365 22.6955 9.80698 21.6288 9.80698 21.0688V16.5355C9.80698 12.5888 13.007 9.3888 16.9536 9.3888H21.567C22.127 9.3888 23.167 8.9888 23.6203 8.61547L27.8336 5.01547C30.447 2.80214 34.527 2.80214 37.1403 5.01547L41.3536 8.61547C41.7803 8.9888 42.8736 9.36214 43.4336 9.36214H47.967C51.9136 9.36214 55.1136 12.5621 55.1136 16.5088V21.0421C55.1136 21.6021 55.5136 22.6421 55.887 23.0955L59.487 27.3088C61.727 29.9488 61.7003 34.0288 59.487 36.6155L55.887 40.8288C55.5136 41.2821 55.1403 42.3221 55.1403 42.8821V47.4155C55.1403 51.3621 51.9403 54.5621 47.9936 54.5621H43.4603C42.9003 54.5621 41.8603 54.9621 41.3803 55.3355L37.167 58.9355C35.8603 60.0821 34.1803 60.6421 32.527 60.6421ZM16.9536 13.3888C15.2203 13.3888 13.807 14.8021 13.807 16.5355V21.0688C13.807 22.5888 13.1136 24.5088 12.127 25.6821L8.50031 29.9488C7.59365 31.0421 7.59365 32.9621 8.50031 34.0288L12.1003 38.2688C13.0603 39.3621 13.7803 41.3621 13.7803 42.8821V47.4421C13.7803 49.1755 15.1936 50.5888 16.927 50.5888H21.567C23.0603 50.5888 25.0336 51.3088 26.207 52.2955L30.447 55.9221C31.5403 56.8555 33.4603 56.8555 34.5536 55.9221L38.767 52.3221C39.967 51.3088 41.9136 50.6155 43.407 50.6155H47.9403C49.6736 50.6155 51.087 49.2021 51.087 47.4688V42.9355C51.087 41.4421 51.807 39.4955 52.7936 38.2955L56.4203 34.0555C57.3536 32.9621 57.3536 31.0421 56.4203 29.9488L52.8203 25.7355C51.807 24.5355 51.1136 22.5888 51.1136 21.0955V16.5355C51.1136 14.8021 49.7003 13.3888 47.967 13.3888H43.4336C41.9136 13.3888 39.9403 12.6688 38.767 11.6821L34.527 8.05547C33.4336 7.12213 31.5403 7.12213 30.4203 8.05547L26.2336 11.6821C25.0336 12.6688 23.087 13.3888 21.567 13.3888H16.9536Z" fill="#B0B0B0"/>
<path d="M32.4999 44.9896C31.0333 44.9896 29.8333 43.7896 29.8333 42.3229C29.8333 40.8562 31.0066 39.6562 32.4999 39.6562C33.9666 39.6562 35.1666 40.8562 35.1666 42.3229C35.1666 43.7896 33.9933 44.9896 32.4999 44.9896Z" fill="#B0B0B0"/>
<path d="M32.5 36.5824C31.4067 36.5824 30.5 35.6758 30.5 34.5824V21.6758C30.5 20.5824 31.4067 19.6758 32.5 19.6758C33.5933 19.6758 34.5 20.5824 34.5 21.6758V34.5558C34.5 35.6758 33.62 36.5824 32.5 36.5824Z" fill="#B0B0B0"/>
</svg>
