<svg width="535" height="535" viewBox="0 0 535 535" fill="none" xmlns="http://www.w3.org/2000/svg">
<path fill-rule="evenodd" clip-rule="evenodd" d="M328.798 217.005C334.427 217.005 338.993 221.574 338.993 227.202C338.993 232.83 334.427 237.399 328.798 237.399C323.17 237.399 318.599 232.83 318.599 227.202C318.599 221.574 323.17 217.005 328.798 217.005ZM328.798 222.104C331.61 222.104 333.898 224.388 333.898 227.202C333.898 230.016 331.61 232.301 328.798 232.301C325.982 232.301 323.699 230.016 323.699 227.202C323.699 224.388 325.982 222.104 328.798 222.104Z" fill="#EEEEEE"/>
<path fill-rule="evenodd" clip-rule="evenodd" d="M364.039 232.301C369.668 232.301 374.234 236.87 374.234 242.498C374.234 248.126 369.668 252.695 364.039 252.695C358.411 252.695 353.84 248.126 353.84 242.498C353.84 236.87 358.411 232.301 364.039 232.301ZM364.039 237.399C366.852 237.399 369.139 239.684 369.139 242.498C369.139 245.312 366.852 247.596 364.039 247.596C361.223 247.596 358.94 245.312 358.94 242.498C358.94 239.684 361.223 237.399 364.039 237.399Z" fill="#EEEEEE"/>
<path fill-rule="evenodd" clip-rule="evenodd" d="M389.587 191.297C395.216 191.297 399.782 195.866 399.782 201.494C399.782 207.122 395.216 211.691 389.587 211.691C383.959 211.691 379.388 207.122 379.388 201.494C379.388 195.866 383.959 191.297 389.587 191.297ZM389.587 196.396C392.399 196.396 394.687 198.68 394.687 201.494C394.687 204.308 392.399 206.593 389.587 206.593C386.771 206.593 384.488 204.308 384.488 201.494C384.488 198.68 386.771 196.396 389.587 196.396Z" fill="#EEEEEE"/>
<path fill-rule="evenodd" clip-rule="evenodd" d="M415.447 217.005C421.075 217.005 425.642 221.574 425.642 227.202C425.642 232.83 421.075 237.399 415.447 237.399C409.818 237.399 405.248 232.83 405.248 227.202C405.248 221.574 409.818 217.005 415.447 217.005ZM415.447 222.104C418.259 222.104 420.546 224.388 420.546 227.202C420.546 230.016 418.259 232.301 415.447 232.301C412.63 232.301 410.347 230.016 410.347 227.202C410.347 224.388 412.63 222.104 415.447 222.104Z" fill="#EEEEEE"/>
<path fill-rule="evenodd" clip-rule="evenodd" d="M328.033 228.956L363.276 244.251C364.143 244.629 365.158 244.312 365.66 243.508L389.936 204.542L414.099 228.557C414.275 228.743 414.487 228.89 414.721 228.992C414.956 229.094 415.208 229.148 415.464 229.151C415.719 229.153 415.973 229.105 416.209 229.008C416.446 228.911 416.66 228.767 416.84 228.586C417.02 228.404 417.162 228.189 417.257 227.951C417.353 227.714 417.399 227.46 417.395 227.205C417.39 226.949 417.334 226.697 417.23 226.464C417.127 226.23 416.977 226.019 416.791 225.845L390.934 200.137C390.73 199.935 390.484 199.781 390.212 199.687C389.941 199.593 389.652 199.561 389.366 199.594C389.081 199.626 388.806 199.723 388.563 199.877C388.32 200.031 388.115 200.237 387.963 200.482L363.288 240.086L329.556 225.447C329.093 225.261 328.577 225.264 328.116 225.453C327.656 225.642 327.287 226.004 327.089 226.461C326.89 226.918 326.878 227.434 327.055 227.9C327.231 228.366 327.582 228.744 328.033 228.956Z" fill="#EEEEEE"/>
<path fill-rule="evenodd" clip-rule="evenodd" d="M104.47 397.088C92.4929 376.978 100.7 378.893 84.1383 360.713C60.0432 334.24 61.5145 297.218 76.9815 273.85C101.446 236.903 142.147 244.471 187.772 228.29C221.515 216.322 228.332 180.716 247.185 154.58C257.647 140.078 274.977 130.253 292.595 137.985C349.539 162.971 272.537 233.984 305.859 268.977C337.104 301.791 388.288 264.973 420.146 253.263C435.51 247.614 454.178 242.339 468.263 253.703C483.153 265.712 477.985 286.871 469.956 301.247C458.607 321.563 440.804 337.598 432.235 359.618C426.948 373.222 424.213 382.797 425.64 397.088H104.47Z" fill="#EEEEEE"/>
<path fill-rule="evenodd" clip-rule="evenodd" d="M462.427 275.982C465.087 269.539 461.229 255.203 454.748 255.11C434.813 254.823 395.33 263.279 375.395 262.992C368.914 262.899 361.506 268.047 358.845 274.49C348.296 300.033 318.357 354.765 307.807 380.308C305.146 386.751 313.142 397.939 319.623 398.032L399.741 399.186C406.222 399.279 413.63 394.131 416.291 387.688L462.427 275.982Z" fill="#023341"/>
<path fill-rule="evenodd" clip-rule="evenodd" d="M458.043 265.688C460.704 259.246 457.611 253.946 451.13 253.852L371.012 252.698C364.531 252.605 357.123 257.754 354.462 264.196L308.326 375.902C305.665 382.345 308.758 387.645 315.239 387.738L395.358 388.892C401.839 388.986 409.247 383.837 411.908 377.394L458.043 265.688Z" fill="#A6D2E4"/>
<path fill-rule="evenodd" clip-rule="evenodd" d="M445.715 274.966C448.079 269.242 445.335 264.534 439.576 264.451L373.721 263.503C367.97 263.42 361.385 267.993 359.021 273.717L355.59 282.025C353.226 287.748 355.978 292.456 361.728 292.539L427.584 293.487C433.343 293.57 439.92 288.997 442.284 283.273L445.715 274.966Z" fill="white"/>
<path d="M411.086 281.945C409.836 284.679 408.311 286.764 406.514 288.201C404.715 289.638 402.719 290.346 400.528 290.324C398.365 290.303 397.036 289.576 396.54 288.144C396.042 286.711 396.387 284.668 397.571 282.016L399.234 278.377C400.496 275.616 402.028 273.526 403.832 272.107C405.636 270.688 407.619 269.989 409.785 270.011C411.948 270.032 413.279 270.757 413.776 272.185C414.277 273.613 413.932 275.653 412.748 278.306L411.086 281.945ZM408.968 277.914C409.717 276.275 410.038 275.08 409.928 274.329C409.819 273.578 409.287 273.197 408.333 273.188C407.404 273.179 406.557 273.527 405.792 274.234C405.027 274.94 404.285 276.049 403.567 277.56L401.37 282.367C400.634 283.978 400.308 285.178 400.391 285.965C400.473 286.753 401.002 287.151 401.974 287.161C402.938 287.17 403.805 286.801 404.576 286.054C405.347 285.307 406.096 284.16 406.821 282.612L408.968 277.914ZM411.26 288.221C411.545 287.596 411.988 287.091 412.588 286.706C413.189 286.321 413.807 286.132 414.443 286.138C415.09 286.144 415.535 286.344 415.78 286.738C416.024 287.131 416.004 287.64 415.718 288.265C415.437 288.88 415 289.379 414.407 289.759C413.811 290.14 413.186 290.327 412.532 290.32C411.886 290.314 411.442 290.116 411.2 289.727C410.959 289.339 410.978 288.836 411.26 288.221ZM423.153 280.509L428.89 270.472L440.019 270.582L438.523 273.854L430.626 273.776L428.193 278.022C429.357 277.533 430.469 277.294 431.522 277.304C433.413 277.323 434.63 277.922 435.168 279.1C435.708 280.278 435.498 281.918 434.538 284.018C433.955 285.294 433.161 286.434 432.16 287.438C431.157 288.442 430.025 289.218 428.761 289.764C427.496 290.311 426.178 290.578 424.806 290.564C423.605 290.552 422.603 290.299 421.797 289.805C420.99 289.31 420.489 288.621 420.295 287.737C420.101 286.853 420.242 285.85 420.72 284.727L424.621 284.765C424.326 285.59 424.321 286.233 424.608 286.695C424.893 287.157 425.437 287.392 426.237 287.4C427.13 287.409 427.96 287.097 428.735 286.463C429.508 285.83 430.162 284.929 430.696 283.762C431.209 282.639 431.324 281.776 431.043 281.173C430.761 280.57 430.111 280.264 429.093 280.254C428.157 280.245 427.284 280.482 426.48 280.965L425.937 281.314L423.153 280.509Z" fill="#023341"/>
<path fill-rule="evenodd" clip-rule="evenodd" d="M359.946 311.639C361.377 308.174 359.711 305.324 356.231 305.273L351.943 305.212C348.463 305.162 344.476 307.93 343.045 311.396L339.712 319.464C338.282 322.928 339.948 325.779 343.428 325.829L347.716 325.891C351.196 325.941 355.183 323.172 356.614 319.707L359.946 311.639Z" fill="white"/>
<path fill-rule="evenodd" clip-rule="evenodd" d="M348.466 339.419C349.897 335.953 348.231 333.103 344.751 333.053L340.463 332.991C336.983 332.941 332.996 335.71 331.565 339.175L328.232 347.243C326.802 350.708 328.468 353.558 331.948 353.608L336.236 353.67C339.716 353.72 343.703 350.951 345.134 347.487L348.466 339.419Z" fill="white"/>
<path fill-rule="evenodd" clip-rule="evenodd" d="M337.003 367.204C338.434 363.738 336.768 360.888 333.288 360.838L329 360.776C325.52 360.726 321.533 363.494 320.102 366.96L316.77 375.028C315.339 378.493 317.005 381.343 320.485 381.393L324.773 381.455C328.253 381.505 332.24 378.736 333.671 375.272L337.003 367.204Z" fill="white"/>
<path fill-rule="evenodd" clip-rule="evenodd" d="M385.713 312.008C387.145 308.543 385.478 305.693 381.999 305.642L377.71 305.581C374.23 305.531 370.243 308.299 368.812 311.765L365.48 319.833C364.049 323.297 365.715 326.148 369.195 326.198L373.484 326.26C376.963 326.31 380.95 323.541 382.381 320.076L385.713 312.008Z" fill="white"/>
<path fill-rule="evenodd" clip-rule="evenodd" d="M374.233 339.79C375.665 336.324 373.998 333.474 370.519 333.424L366.23 333.362C362.75 333.312 358.764 336.08 357.332 339.546L354 347.614C352.569 351.079 354.235 353.929 357.715 353.979L362.004 354.041C365.483 354.091 369.47 351.322 370.901 347.857L374.233 339.79Z" fill="white"/>
<path fill-rule="evenodd" clip-rule="evenodd" d="M362.771 367.573C364.202 364.107 362.536 361.257 359.056 361.207L354.767 361.145C351.288 361.095 347.301 363.864 345.869 367.329L342.537 375.397C341.106 378.862 342.773 381.712 346.252 381.762L350.541 381.824C354.021 381.874 358.008 379.105 359.438 375.641L362.771 367.573Z" fill="white"/>
<path fill-rule="evenodd" clip-rule="evenodd" d="M411.481 312.38C412.912 308.914 411.246 306.064 407.766 306.014L403.478 305.952C399.998 305.902 396.011 308.67 394.58 312.136L391.248 320.204C389.817 323.669 391.483 326.519 394.963 326.569L399.251 326.631C402.731 326.681 406.718 323.912 408.149 320.447L411.481 312.38Z" fill="white"/>
<path fill-rule="evenodd" clip-rule="evenodd" d="M432.689 312.687C434.121 309.222 432.455 306.372 428.975 306.322L424.686 306.26C421.206 306.21 417.22 308.978 415.788 312.444L412.456 320.512C411.025 323.977 412.691 326.827 416.171 326.877L420.46 326.939C423.94 326.989 427.926 324.22 429.357 320.755L432.689 312.687Z" fill="white"/>
<path fill-rule="evenodd" clip-rule="evenodd" d="M400.018 340.163C401.449 336.697 399.783 333.847 396.303 333.797L392.015 333.735C388.535 333.685 384.548 336.453 383.117 339.919L379.785 347.987C378.354 351.452 380.02 354.302 383.5 354.352L387.788 354.414C391.268 354.464 395.255 351.695 396.686 348.23L400.018 340.163Z" fill="white"/>
<path fill-rule="evenodd" clip-rule="evenodd" d="M388.538 367.943C389.969 364.478 388.303 361.627 384.823 361.577L380.535 361.516C377.055 361.465 373.068 364.234 371.637 367.7L368.305 375.768C366.874 379.232 368.54 382.083 372.02 382.133L376.309 382.194C379.788 382.245 383.775 379.476 385.206 376.011L388.538 367.943Z" fill="white"/>
<path fill-rule="evenodd" clip-rule="evenodd" d="M419.573 340.437C421.004 336.973 419.342 334.122 415.851 334.072L414.844 334.057C411.353 334.007 407.37 336.777 405.939 340.24L391.133 376.091C389.701 379.558 391.364 382.406 394.855 382.456L395.862 382.471C399.353 382.521 403.335 379.754 404.766 376.287L419.573 340.437Z" fill="white"/>
<path fill-rule="evenodd" clip-rule="evenodd" d="M229.197 394.296H321.934V398.406H229.197V394.296Z" fill="#6993A4"/>
<path fill-rule="evenodd" clip-rule="evenodd" d="M229.197 386.078H321.934V390.187H229.197V386.078Z" fill="#6993A4"/>
<path fill-rule="evenodd" clip-rule="evenodd" d="M229.197 377.859H321.934V381.968H229.197V377.859Z" fill="#6993A4"/>
<path fill-rule="evenodd" clip-rule="evenodd" d="M229.197 369.641H321.934V373.75H229.197V369.641Z" fill="#6993A4"/>
<path fill-rule="evenodd" clip-rule="evenodd" d="M229.197 361.422H321.934V365.531H229.197V361.422Z" fill="#6993A4"/>
<path fill-rule="evenodd" clip-rule="evenodd" d="M229.197 353.203H321.934V357.313H229.197V353.203Z" fill="#6993A4"/>
<path fill-rule="evenodd" clip-rule="evenodd" d="M229.197 390.187H321.934V394.296H229.197V390.187Z" fill="#A6D2E4"/>
<path fill-rule="evenodd" clip-rule="evenodd" d="M229.197 381.968H321.934V386.078H229.197V381.968Z" fill="#A6D2E4"/>
<path fill-rule="evenodd" clip-rule="evenodd" d="M229.197 373.75H321.934V377.859H229.197V373.75Z" fill="#A6D2E4"/>
<path fill-rule="evenodd" clip-rule="evenodd" d="M229.197 365.531H321.934V369.641H229.197V365.531Z" fill="#A6D2E4"/>
<path fill-rule="evenodd" clip-rule="evenodd" d="M229.197 357.313H321.934V361.422H229.197V357.313Z" fill="#A6D2E4"/>
<path fill-rule="evenodd" clip-rule="evenodd" d="M229.197 349.094H321.934V353.203H229.197V349.094Z" fill="#A6D2E4"/>
<path fill-rule="evenodd" clip-rule="evenodd" d="M321.934 394.296H364.657V398.406H321.934V394.296Z" fill="#023341"/>
<path fill-rule="evenodd" clip-rule="evenodd" d="M321.934 386.078H364.657V390.187H321.934V386.078Z" fill="#023341"/>
<path fill-rule="evenodd" clip-rule="evenodd" d="M321.934 377.859H364.657V381.968H321.934V377.859Z" fill="#023341"/>
<path fill-rule="evenodd" clip-rule="evenodd" d="M321.934 369.641H364.657V373.75H321.934V369.641Z" fill="#023341"/>
<path fill-rule="evenodd" clip-rule="evenodd" d="M321.934 361.422H364.657V365.531H321.934V361.422Z" fill="#023341"/>
<path fill-rule="evenodd" clip-rule="evenodd" d="M321.934 353.203H364.657V357.313H321.934V353.203Z" fill="#023341"/>
<path fill-rule="evenodd" clip-rule="evenodd" d="M321.934 390.187H364.657V394.296H321.934V390.187Z" fill="#4B7686"/>
<path fill-rule="evenodd" clip-rule="evenodd" d="M321.934 381.968H364.657V386.078H321.934V381.968Z" fill="#4B7686"/>
<path fill-rule="evenodd" clip-rule="evenodd" d="M321.934 373.75H364.657V377.859H321.934V373.75Z" fill="#4B7686"/>
<path fill-rule="evenodd" clip-rule="evenodd" d="M321.934 365.531H364.657V369.641H321.934V365.531Z" fill="#4B7686"/>
<path fill-rule="evenodd" clip-rule="evenodd" d="M321.934 357.313H364.657V361.422H321.934V357.313Z" fill="#4B7686"/>
<path fill-rule="evenodd" clip-rule="evenodd" d="M321.934 349.094H364.657V353.203H321.934V349.094Z" fill="#4B7686"/>
<path fill-rule="evenodd" clip-rule="evenodd" d="M274.486 347.939C274.1 342.94 272.431 337.963 270.85 333.242C266.631 320.672 260.554 309.385 249.785 301.279C244.553 297.343 237.456 293.657 230.672 294.587C227.458 295.026 223.873 296.881 224.034 300.595C224.31 307.236 232.275 312.424 237.142 315.652C249.034 323.543 271.113 332.09 274.486 347.939Z" fill="#6993A4"/>
<mask id="mask0_673_5922" style="mask-type:luminance" maskUnits="userSpaceOnUse" x="224" y="294" width="51" height="54">
<path d="M274.486 347.939C274.1 342.94 272.431 337.963 270.85 333.242C266.631 320.672 260.554 309.385 249.785 301.279C244.553 297.343 237.456 293.657 230.672 294.587C227.458 295.026 223.873 296.881 224.034 300.595C224.31 307.236 232.275 312.424 237.142 315.652C249.034 323.543 271.113 332.09 274.486 347.939Z" fill="white"/>
</mask>
<g mask="url(#mask0_673_5922)">
<path fill-rule="evenodd" clip-rule="evenodd" d="M226.952 291.171C226.042 293.44 226.427 296.128 226.9 298.448C227.32 300.54 227.907 302.667 228.983 304.523C232.888 311.229 241.1 314.048 248.366 315.151C251.649 315.65 256.911 315.983 259.485 313.287C261.253 311.431 259.975 309.645 259.87 307.561C259.844 307.01 260.281 306.878 260.745 307.018C263.258 307.754 265.411 311.334 266.76 313.322C270.804 319.319 273.387 326.576 274.455 333.711C274.831 336.224 275.392 339.734 273.772 341.958C271.741 344.751 267.119 342.615 264.764 341.512C264.081 341.188 263.398 340.846 262.724 340.496C261.945 340.093 261.165 339.673 260.404 339.253C259.204 338.596 258.031 337.896 256.867 337.195C249.749 332.941 215.738 315.265 211.255 306.905C206.58 298.176 218.872 294.132 226.952 291.171Z" fill="#477282"/>
</g>
<path fill-rule="evenodd" clip-rule="evenodd" d="M278.143 347.939C278.529 342.94 280.197 337.963 281.779 333.242C285.998 320.672 292.075 309.385 302.844 301.279C308.076 297.343 315.173 293.657 321.957 294.587C325.171 295.026 328.756 296.881 328.595 300.595C328.318 307.236 320.354 312.424 315.487 315.652C303.595 323.543 281.516 332.09 278.143 347.939Z" fill="#6993A4"/>
<mask id="mask1_673_5922" style="mask-type:luminance" maskUnits="userSpaceOnUse" x="278" y="294" width="51" height="54">
<path d="M278.143 347.939C278.529 342.94 280.197 337.963 281.779 333.242C285.998 320.672 292.075 309.385 302.844 301.279C308.076 297.343 315.173 293.657 321.957 294.587C325.171 295.026 328.756 296.881 328.595 300.595C328.318 307.236 320.354 312.424 315.487 315.652C303.595 323.543 281.516 332.09 278.143 347.939Z" fill="white"/>
</mask>
<g mask="url(#mask1_673_5922)">
<path fill-rule="evenodd" clip-rule="evenodd" d="M325.677 291.171C326.587 293.44 326.202 296.128 325.729 298.448C325.309 300.54 324.722 302.667 323.645 304.523C319.741 311.229 311.529 314.048 304.263 315.151C300.98 315.65 295.718 315.983 293.144 313.287C291.376 311.431 292.654 309.645 292.759 307.561C292.785 307.01 292.348 306.878 291.884 307.018C289.371 307.754 287.217 311.334 285.869 313.322C281.825 319.319 279.242 326.576 278.174 333.711C277.797 336.224 277.237 339.734 278.857 341.958C280.888 344.751 285.51 342.615 287.865 341.512C288.548 341.188 289.231 340.846 289.905 340.496C290.684 340.093 291.463 339.673 292.225 339.253C293.425 338.596 294.598 337.896 295.762 337.195C302.88 332.941 336.891 315.265 341.374 306.905C346.049 298.176 333.757 294.132 325.677 291.171Z" fill="#477282"/>
</g>
<path fill-rule="evenodd" clip-rule="evenodd" d="M272.896 345.467C273.147 336.053 273.737 325.924 272.654 316.209C271.62 307.012 269.087 298.181 263.026 290.845C256.463 282.89 247.106 277.9 238.725 272.097C229.397 265.633 221.229 258.235 218.088 246.036C217.131 242.359 216.773 238.536 217.141 234.755C217.537 230.725 218.871 226.838 220.659 223.204C221.519 221.453 223.646 220.733 225.396 221.597C227.145 222.46 227.87 224.582 227 226.333C225.589 229.205 224.497 232.265 224.178 235.451C223.888 238.407 224.187 241.394 224.932 244.269C227.619 254.661 234.801 260.777 242.756 266.283C251.659 272.451 261.509 277.888 268.488 286.341C282.049 302.78 280.503 325.699 279.971 345.655C279.913 347.611 278.289 349.154 276.337 349.097C274.384 349.05 272.847 347.423 272.896 345.467Z" fill="#6993A4"/>
<mask id="mask2_673_5922" style="mask-type:luminance" maskUnits="userSpaceOnUse" x="216" y="221" width="65" height="129">
<path d="M272.896 345.467C273.147 336.053 273.737 325.924 272.654 316.209C271.62 307.012 269.087 298.181 263.026 290.845C256.463 282.89 247.106 277.9 238.725 272.097C229.397 265.633 221.229 258.235 218.088 246.036C217.131 242.359 216.773 238.536 217.141 234.755C217.537 230.725 218.871 226.838 220.659 223.204C221.519 221.453 223.646 220.733 225.396 221.597C227.145 222.46 227.87 224.582 227 226.333C225.589 229.205 224.497 232.265 224.178 235.451C223.888 238.407 224.187 241.394 224.932 244.269C227.619 254.661 234.801 260.777 242.756 266.283C251.659 272.451 261.509 277.888 268.488 286.341C282.049 302.78 280.503 325.699 279.971 345.655C279.913 347.611 278.289 349.154 276.337 349.097C274.384 349.05 272.847 347.423 272.896 345.467Z" fill="white"/>
</mask>
<g mask="url(#mask2_673_5922)">
<path fill-rule="evenodd" clip-rule="evenodd" d="M236.258 216.592C230.89 220.987 228.831 248.014 224.954 253.664C224.035 255.017 222.62 260.31 220.77 260.612C219.34 260.844 218.116 258.767 217.509 257.802C215.348 254.391 214.155 250.249 213.122 246.389C210.432 236.433 208.949 224.441 211.974 214.409C212.479 212.715 213.163 211.007 214.115 209.511C218.293 202.985 225.912 206.269 230.491 210.358C232.606 212.251 234.479 214.379 236.258 216.592Z" fill="#477282"/>
</g>
<path d="M230.653 243.676C212.319 243.676 197.457 228.814 197.457 210.48C197.457 192.147 212.319 177.284 230.653 177.284C248.986 177.284 263.848 192.147 263.848 210.48C263.848 228.814 248.986 243.676 230.653 243.676Z" fill="#F29F05"/>
<mask id="mask3_673_5922" style="mask-type:luminance" maskUnits="userSpaceOnUse" x="197" y="177" width="67" height="67">
<path d="M230.653 243.676C212.319 243.676 197.457 228.814 197.457 210.48C197.457 192.147 212.319 177.284 230.653 177.284C248.986 177.284 263.848 192.147 263.848 210.48C263.848 228.814 248.986 243.676 230.653 243.676Z" fill="white"/>
</mask>
<g mask="url(#mask3_673_5922)">
<path fill-rule="evenodd" clip-rule="evenodd" d="M203.591 184.471C200.282 200.807 201.341 220.549 216.259 230.958C219.11 232.934 222.221 234.505 225.504 235.624C233.751 238.443 243.644 238.4 251.558 234.565C253.887 233.444 256.102 232.017 257.984 230.24C259.166 229.128 260.339 227.272 261.81 226.546C263.272 225.819 263.674 227.675 263.587 228.726C263.272 232.683 260.593 236.605 258.185 239.581C248.923 251.041 233.628 254.403 219.813 249.938C195.992 242.243 183.525 206.217 203.591 184.471Z" fill="#D98A00"/>
</g>
<path fill-rule="evenodd" clip-rule="evenodd" d="M288.087 156.282L290.94 169.229L279.466 175.879L292.417 173.022L299.066 184.491L296.213 171.544L307.676 164.9L294.737 167.751L288.087 156.282Z" fill="#F29F05"/>
<path fill-rule="evenodd" clip-rule="evenodd" d="M261.362 167.937L263.037 175.538L256.301 179.443L263.904 177.765L267.808 184.498L266.133 176.897L272.863 172.996L265.266 174.671L261.362 167.937Z" fill="#F29F05"/>
<path fill-rule="evenodd" clip-rule="evenodd" d="M277.924 186.573L279.599 194.174L272.863 198.078L280.466 196.4L284.37 203.134L282.694 195.533L289.424 191.632L281.828 193.306L277.924 186.573Z" fill="#F29F05"/>
<path d="M237.309 215.04C236.697 213.979 235.916 213.304 234.963 213.017C234.014 212.728 232.68 212.726 230.961 213.011C229.246 213.294 227.725 213.469 226.401 213.535C225.073 213.603 223.85 213.507 222.726 213.25C221.61 212.995 220.559 212.514 219.636 211.838C218.696 211.155 217.862 210.179 217.13 208.911C215.867 206.724 215.532 204.528 216.123 202.324C216.714 200.119 218.098 198.234 220.281 196.662L217.883 192.509L220.987 190.717L223.418 194.928C225.898 193.928 228.242 193.847 230.45 194.686C232.658 195.525 234.492 197.205 235.949 199.728L230.339 202.967C229.442 201.414 228.45 200.439 227.368 200.037C226.282 199.637 225.201 199.748 224.129 200.367C223.068 200.979 222.42 201.755 222.184 202.693C221.948 203.632 222.139 204.63 222.751 205.691C223.319 206.675 224.057 207.301 224.973 207.566C225.885 207.833 227.294 207.831 229.199 207.559C231.104 207.287 232.714 207.139 234.027 207.113C235.34 207.088 236.539 207.224 237.627 207.519C238.694 207.807 239.693 208.303 240.566 208.98C241.44 209.657 242.217 210.585 242.897 211.762C244.167 213.962 244.51 216.145 243.933 218.307C243.352 220.471 241.928 222.371 239.665 224.006L241.895 227.868L238.81 229.65L236.591 225.806C233.772 227.054 231.175 227.299 228.796 226.541C226.418 225.784 224.463 224.079 222.931 221.426L228.541 218.187C229.43 219.727 230.478 220.696 231.684 221.096C232.89 221.495 234.177 221.299 235.55 220.507C236.687 219.85 237.411 219.031 237.727 218.047C238.039 217.064 237.899 216.062 237.309 215.04Z" fill="white"/>
<path fill-rule="evenodd" clip-rule="evenodd" d="M276.758 312.034C272.149 317.261 269.844 311.73 274.81 305.54C279.516 299.685 277.133 297.496 277.885 289.809C278.706 281.478 276.222 273.237 274.763 265.093C273.143 256.025 272.725 247.09 277.947 238.299C279.515 235.643 281.51 233.249 283.896 231.296C286.443 229.217 289.443 227.76 292.558 226.709C294.058 226.201 295.689 227.013 296.194 228.514C296.699 230.015 295.892 231.647 294.387 232.149C291.926 232.981 289.54 234.104 287.524 235.744C285.657 237.269 284.11 239.152 282.881 241.226C278.439 248.721 279.031 256.354 280.416 264.084C281.963 272.738 284.473 281.518 283.604 290.373C282.605 300.496 283.335 304.574 276.758 312.034Z" fill="#6993A4"/>
<mask id="mask4_673_5922" style="mask-type:luminance" maskUnits="userSpaceOnUse" x="272" y="226" width="25" height="89">
<path d="M276.758 312.034C272.149 317.261 269.844 311.729 274.81 305.54C279.516 299.685 277.133 297.496 277.885 289.809C278.706 281.478 276.222 273.237 274.763 265.093C273.143 256.025 272.725 247.09 277.947 238.299C279.515 235.643 281.51 233.249 283.896 231.296C286.443 229.217 289.443 227.76 292.558 226.709C294.058 226.201 295.689 227.013 296.194 228.514C296.699 230.015 295.892 231.647 294.387 232.149C291.926 232.981 289.54 234.104 287.524 235.744C285.657 237.269 284.11 239.152 282.881 241.226C278.439 248.721 279.031 256.354 280.416 264.084C281.963 272.738 284.473 281.518 283.604 290.373C282.605 300.496 283.335 304.574 276.758 312.034Z" fill="white"/>
</mask>
<g mask="url(#mask4_673_5922)">
<path fill-rule="evenodd" clip-rule="evenodd" d="M305.292 231.9C299.69 231.327 282.959 245.613 277.488 246.617C276.183 246.862 272.328 249.077 271.095 248.186C270.143 247.496 270.637 245.602 270.845 244.701C271.571 241.504 273.272 238.447 274.901 235.643C279.091 228.396 285.143 220.678 292.647 216.676C293.911 215.997 295.286 215.413 296.691 215.104C302.838 213.773 305.31 220.037 305.579 225.013C305.7 227.313 305.547 229.609 305.292 231.9Z" fill="#477282"/>
</g>
<path d="M286.498 244.177C276.003 233.627 276.048 216.567 286.598 206.072C297.148 195.577 314.208 195.622 324.703 206.172C335.198 216.723 335.153 233.783 324.602 244.277C314.052 254.772 296.992 254.727 286.498 244.177Z" fill="#F29F05"/>
<mask id="mask5_673_5922" style="mask-type:luminance" maskUnits="userSpaceOnUse" x="278" y="198" width="55" height="55">
<path d="M286.498 244.177C276.003 233.627 276.048 216.567 286.598 206.072C297.148 195.577 314.208 195.622 324.703 206.172C335.198 216.723 335.153 233.783 324.602 244.277C314.052 254.772 296.992 254.727 286.498 244.177Z" fill="white"/>
</mask>
<g mask="url(#mask5_673_5922)">
<path fill-rule="evenodd" clip-rule="evenodd" d="M305.076 194.714C293.781 202.161 283.027 214.071 285.577 228.614C286.071 231.386 286.949 234.075 288.183 236.606C291.282 242.965 296.97 248.633 303.707 250.992C305.685 251.691 307.774 252.148 309.874 252.214C311.191 252.258 312.93 251.87 314.19 252.301C315.445 252.726 314.608 254.02 313.953 254.571C311.495 256.655 307.705 257.359 304.614 257.677C292.717 258.907 282.028 252.03 276.689 241.525C267.481 223.411 281.076 195.615 305.076 194.714Z" fill="#D98A00"/>
</g>
<path d="M306.786 231.616C307.046 230.656 306.988 229.82 306.607 229.108C306.23 228.396 305.468 227.628 304.32 226.802C303.175 225.977 302.204 225.201 301.408 224.477C300.609 223.752 299.964 222.993 299.468 222.199C298.976 221.411 298.651 220.531 298.512 219.613C298.367 218.681 298.451 217.643 298.762 216.495C299.298 214.517 300.369 213.067 301.976 212.145C303.583 211.223 305.46 210.94 307.614 211.297L308.632 207.539L311.44 208.3L310.408 212.11C312.403 212.964 313.791 214.267 314.572 216.017C315.354 217.768 315.437 219.786 314.819 222.068L309.744 220.694C310.124 219.289 310.117 218.16 309.729 217.307C309.337 216.453 308.655 215.895 307.685 215.632C306.725 215.372 305.908 215.443 305.233 215.844C304.558 216.246 304.092 216.927 303.832 217.887C303.592 218.777 303.654 219.56 304.026 220.239C304.394 220.917 305.202 221.726 306.449 222.667C307.696 223.607 308.702 224.448 309.469 225.19C310.235 225.931 310.843 226.699 311.296 227.494C311.741 228.272 312.027 229.131 312.138 230.021C312.248 230.912 312.159 231.89 311.871 232.955C311.332 234.945 310.272 236.392 308.698 237.297C307.12 238.202 305.211 238.471 302.976 238.104L302.029 241.598L299.238 240.842L300.179 237.365C297.847 236.458 296.22 235.103 295.295 233.301C294.369 231.498 294.231 229.397 294.881 226.998L299.956 228.372C299.579 229.765 299.621 230.922 300.081 231.845C300.542 232.768 301.391 233.397 302.633 233.733C303.662 234.011 304.548 233.959 305.295 233.577C306.039 233.194 306.536 232.541 306.786 231.616Z" fill="white"/>
<path fill-rule="evenodd" clip-rule="evenodd" d="M285.758 354.036C291.415 350.164 236.47 322.874 228.371 327.308C201.337 342.119 181.476 361.683 166.614 384.547L229.677 398.41C243.574 376.778 266.612 359.41 285.758 354.036Z" fill="#4B7686"/>
<path fill-rule="evenodd" clip-rule="evenodd" d="M271.206 337.807C276.028 332.456 213.172 318.161 205.997 324.69C182.047 346.495 166.598 371.382 157.069 398.404H229.097C237.944 372.885 252.982 348.026 271.206 337.807Z" fill="#6993A4"/>
<path fill-rule="evenodd" clip-rule="evenodd" d="M187.074 358.764C181.457 368.755 185.01 381.424 195 387.04C204.991 392.655 217.66 389.105 223.276 379.114C227.303 371.951 226.617 363.413 222.227 357.084C220.493 354.582 218.179 352.428 215.35 350.838C205.359 345.222 192.69 348.773 187.074 358.764ZM188.957 359.822C193.989 350.871 205.341 347.688 214.292 352.72C223.243 357.751 226.424 369.104 221.393 378.055C216.361 387.006 205.011 390.185 196.06 385.154C187.109 380.122 183.925 368.774 188.957 359.822Z" fill="white"/>
<path d="M212.285 368.845C211.455 368.378 210.665 368.237 209.914 368.423C209.164 368.606 208.271 369.133 207.234 370.005C206.199 370.875 205.251 371.595 204.391 372.164C203.53 372.736 202.673 373.157 201.821 373.428C200.974 373.702 200.079 373.799 199.193 373.712C198.294 373.628 197.348 373.305 196.356 372.747C194.644 371.785 193.549 370.449 193.07 368.74C192.591 367.031 192.769 365.221 193.606 363.304L190.355 361.476L191.721 359.047L195.018 360.9C196.28 359.248 197.816 358.264 199.625 357.95C201.435 357.635 203.328 358.031 205.303 359.142L202.835 363.533C201.619 362.85 200.57 362.588 199.685 362.751C198.8 362.914 198.121 363.417 197.65 364.256C197.183 365.087 197.057 365.863 197.271 366.584C197.486 367.305 198.009 367.898 198.839 368.364C199.609 368.797 200.353 368.921 201.069 368.737C201.785 368.554 202.727 367.994 203.893 367.057C205.06 366.119 206.078 365.382 206.946 364.844C207.815 364.307 208.671 363.922 209.516 363.688C210.343 363.458 211.208 363.394 212.061 363.5C212.914 363.606 213.802 363.919 214.723 364.437C216.445 365.405 217.54 366.729 218.012 368.404C218.481 370.082 218.282 371.918 217.417 373.909L220.44 375.608L219.083 378.024L216.074 376.333C214.683 378.285 213.043 379.478 211.151 379.915C209.26 380.352 207.276 379.986 205.199 378.819L207.668 374.428C208.873 375.105 209.958 375.338 210.923 375.127C211.888 374.916 212.672 374.275 213.276 373.2C213.777 372.31 213.938 371.472 213.757 370.691C213.576 369.91 213.085 369.295 212.285 368.845Z" fill="white"/>
<path fill-rule="evenodd" clip-rule="evenodd" d="M254.372 334.451C254.329 334.711 254.226 334.825 254.112 335.02C253.885 335.423 253.598 336.044 253.479 337.76C253.43 338.406 253.701 339.164 254.145 339.904C254.74 340.894 255.774 342.051 256.271 342.591C256.163 342.711 256.028 342.854 255.882 343.01C251.537 347.607 230.341 369.98 224.627 397.268C224.557 397.62 224.779 397.961 225.13 398.036C225.482 398.107 225.823 397.885 225.899 397.533C231.542 370.553 252.527 348.445 256.823 343.899C257.224 343.476 257.483 343.196 257.586 343.073C257.644 343.004 257.691 342.928 257.727 342.846C257.77 342.744 257.846 342.478 257.63 342.16C257.402 341.831 256.049 340.55 255.259 339.236C254.967 338.753 254.74 338.274 254.767 337.853C254.886 336.204 255.151 335.807 255.351 335.473C255.552 335.14 255.709 334.849 255.687 334.063C255.681 333.91 255.633 333.69 255.389 333.503C255.243 333.394 254.837 333.22 254.183 333.041C249.426 331.733 229.4 328.354 220.071 327.29C217.657 327.014 215.937 326.903 215.325 326.998C213.523 327.277 213.015 328.091 212.56 329.001C212.241 329.638 211.987 330.363 210.883 330.834C210.499 330.999 209.995 331.053 209.443 331.077C208.486 331.119 207.382 331.053 206.348 331.111C205.033 331.185 203.832 331.481 203.069 332.274C189.969 345.906 174.953 362.837 163.497 393.01C162.859 394.698 162.653 394.557 162.036 396.332C161.917 396.667 162.096 397.041 162.431 397.154C162.594 397.212 162.772 397.202 162.927 397.128C163.082 397.054 163.202 396.922 163.259 396.759C163.871 395.001 164.076 395.142 164.71 393.47C176.078 363.513 191.002 346.707 204.005 333.172C204.33 332.833 204.784 332.654 205.293 332.543C205.899 332.414 206.575 332.385 207.257 332.381C208.816 332.371 210.396 332.451 211.391 332.026C212.62 331.501 213.112 330.771 213.491 330.045C213.88 329.286 214.059 328.506 215.525 328.278C216.288 328.16 218.907 328.427 222.446 328.887C230.909 329.985 244.513 332.256 251.093 333.648C252.543 333.956 253.652 334.219 254.269 334.416C254.302 334.427 254.34 334.439 254.372 334.451Z" fill="white"/>
<path d="M186.993 282.334C170.961 288.673 153.597 282.766 148.209 269.141C142.822 255.515 151.451 239.331 167.483 232.992C183.515 226.653 200.879 232.56 206.266 246.186C211.654 259.811 203.025 275.995 186.993 282.334Z" fill="#FAD8BA"/>
<mask id="mask6_673_5922" style="mask-type:luminance" maskUnits="userSpaceOnUse" x="146" y="230" width="62" height="55">
<path d="M186.993 282.334C170.961 288.673 153.597 282.766 148.209 269.141C142.822 255.515 151.451 239.331 167.483 232.992C183.515 226.653 200.879 232.56 206.266 246.186C211.654 259.811 203.025 275.995 186.993 282.334Z" fill="white"/>
</mask>
<g mask="url(#mask6_673_5922)">
<path fill-rule="evenodd" clip-rule="evenodd" d="M221.145 247.3C222.105 251.073 197.462 235.561 197.462 235.561C197.462 235.561 200.89 248.077 197.464 256.334C191.749 270.093 173.779 278.475 165.569 278.63C161.382 278.709 157.34 277.455 153.494 275.915C151.753 275.218 149.046 273.381 147.124 274.208C143.188 275.904 145.661 282.913 146.945 285.39C147.341 286.16 147.794 286.9 148.299 287.605C160.311 304.297 196.778 291.51 210.935 277.837C219.055 269.996 222.781 258.401 221.145 247.3Z" fill="#E2C0A3"/>
</g>
<path fill-rule="evenodd" clip-rule="evenodd" d="M138.625 262.265C135.876 266.029 144.417 270.811 92.9786 286.036C49.8631 298.799 107.562 398.338 107.562 398.338L184.234 398.337C201.526 378.169 175.566 344.009 146.608 331.97C119.2 320.572 175.031 292.189 177.239 289.206C184.406 279.543 159.407 283.035 149.997 267.05C143.284 255.639 149.985 253.509 146.61 252.694C142.328 251.66 141.768 257.959 138.625 262.265Z" fill="#F25C05"/>
<mask id="mask7_673_5922" style="mask-type:luminance" maskUnits="userSpaceOnUse" x="76" y="252" width="114" height="147">
<path d="M138.625 262.265C135.876 266.029 144.417 270.811 92.9786 286.036C49.8631 298.799 107.562 398.338 107.562 398.338L184.234 398.337C201.526 378.169 175.566 344.009 146.608 331.97C119.2 320.573 175.031 292.189 177.239 289.206C184.406 279.543 159.407 283.035 149.997 267.05C143.284 255.639 149.985 253.509 146.61 252.694C142.328 251.66 141.768 257.959 138.625 262.265Z" fill="white"/>
</mask>
<g mask="url(#mask7_673_5922)">
<path fill-rule="evenodd" clip-rule="evenodd" d="M166.717 272.097C165.581 277.947 162.225 285.409 158.229 289.81C151.797 296.895 138.352 298.001 130.124 301.987C121.497 306.166 110.869 313.364 111.812 324.296C112.459 331.835 117.942 336.535 124.2 339.97C135.734 346.308 149.669 346.839 160.739 354.218C169.994 360.389 171.234 372.577 160.648 378.096C143.128 387.225 116.522 380.273 100.931 370.032C94.2262 365.631 89.3172 359.307 84.4989 353.019C83.2415 351.376 80.8958 347.066 78.2479 348.969C73.738 352.209 77.1659 366.435 78.2964 370.594C84.2694 392.66 102.031 406.395 124.109 410.748C148.962 415.645 179.685 413.293 201.836 400.15C212.325 393.923 222.469 384.124 223.43 371.295C224.875 351.934 208.709 331.045 202.803 312.931C201.074 307.615 199.689 302.176 198.613 296.69C197.821 292.671 197.168 288.623 196.582 284.57C194.333 268.974 193.432 242.739 172.098 242.008C168.857 241.897 169.849 271.328 166.717 272.097Z" fill="#D23F00"/>
</g>
<path fill-rule="evenodd" clip-rule="evenodd" d="M183.34 215.68C177.877 220.014 160.476 234.256 159.411 239.039C158.711 242.182 172.914 236.22 174.587 238.329C178.808 243.648 189.583 242.134 198.633 234.954C207.685 227.771 211.61 217.622 207.389 212.303C203.169 206.984 192.393 208.497 183.34 215.68Z" fill="#FAD8BA"/>
<mask id="mask8_673_5922" style="mask-type:luminance" maskUnits="userSpaceOnUse" x="159" y="209" width="51" height="33">
<path d="M183.34 215.68C177.877 220.014 160.476 234.256 159.411 239.039C158.711 242.182 172.914 236.22 174.587 238.329C178.808 243.648 189.583 242.134 198.633 234.954C207.685 227.771 211.61 217.622 207.389 212.303C203.169 206.984 192.393 208.497 183.34 215.68Z" fill="white"/>
</mask>
<g mask="url(#mask8_673_5922)">
<path fill-rule="evenodd" clip-rule="evenodd" d="M211.193 204.488C212.637 205.42 189.76 194.428 199.172 210.57C203.33 217.7 199.649 227.016 195.288 233.029C193.084 236.067 190.548 238.484 187.626 240.096C186.53 240.701 185.397 241.181 184.282 241.723C183.732 241.992 182.977 242.35 183.789 242.985C188.272 246.497 194.739 245.046 198.999 241.974C208.61 235.048 213.996 218.628 209.428 204.724" fill="#E2C0A3"/>
</g>
<path fill-rule="evenodd" clip-rule="evenodd" d="M104.812 397.085H443.322V399.308H104.812V397.085Z" fill="#03222F"/>
<path fill-rule="evenodd" clip-rule="evenodd" d="M57.2422 397.364H93.5114V399.726H57.2422V397.364Z" fill="#03222F"/>
</svg>
