<svg width="65" height="64" viewBox="0 0 65 64" fill="none" xmlns="http://www.w3.org/2000/svg">
<path d="M33.8338 39.3333H27.1671C26.0738 39.3333 25.1671 38.4267 25.1671 37.3333C25.1671 36.24 26.0738 35.3333 27.1671 35.3333H33.8338C40.8205 35.3333 46.5005 29.6533 46.5005 22.6667C46.5005 15.68 40.8205 10 33.8338 10H20.5005C13.5138 10 7.8338 15.68 7.8338 22.6667C7.8338 25.6 8.87379 28.4533 10.7405 30.72C11.4338 31.5733 11.3271 32.8266 10.4738 33.5466C9.62046 34.24 8.36714 34.1334 7.64714 33.28C5.16714 30.2934 3.80713 26.5333 3.80713 22.6667C3.80713 13.4667 11.2738 6 20.4738 6H33.8071C43.0071 6 50.4738 13.4667 50.4738 22.6667C50.4738 31.8667 43.0338 39.3333 33.8338 39.3333Z" fill="#B0B0B0"/>
<path d="M44.5 57.9994H31.1667C21.9667 57.9994 14.5 50.5327 14.5 41.3327C14.5 32.1327 21.9667 24.666 31.1667 24.666H37.8333C38.9267 24.666 39.8333 25.5727 39.8333 26.666C39.8333 27.7593 38.9267 28.666 37.8333 28.666H31.1667C24.18 28.666 18.5 34.346 18.5 41.3327C18.5 48.3194 24.18 53.9994 31.1667 53.9994H44.5C51.4867 53.9994 57.1667 48.3194 57.1667 41.3327C57.1667 38.3994 56.1267 35.546 54.26 33.2794C53.5667 32.426 53.6733 31.1727 54.5267 30.4527C55.38 29.7327 56.6333 29.866 57.3533 30.7193C59.8333 33.706 61.1933 37.466 61.1933 41.3327C61.1667 50.5327 53.7 57.9994 44.5 57.9994Z" fill="#B0B0B0"/>
</svg>
