<svg width="175" height="70" viewBox="0 0 175 70" fill="none" xmlns="http://www.w3.org/2000/svg">
<path d="M33.6375 43.4C32.4655 43.4 31.3049 43.1759 30.2221 42.7406C29.1392 42.3052 28.1553 41.6672 27.3266 40.8628C26.4978 40.0584 25.8404 39.1034 25.3919 38.0524C24.9434 37.0015 24.7125 35.875 24.7125 34.7375C24.7125 33.5999 24.9434 32.4734 25.3919 31.4225C25.8404 30.3715 26.4978 29.4165 27.3266 28.6121C28.1553 27.8078 29.1392 27.1697 30.2221 26.7343C31.3049 26.299 32.4655 26.075 33.6375 26.075L33.6375 34.7375V43.4Z" fill="#FEFEFE"/>
<path d="M59.0665 44.7327C56.8148 50.373 52.6771 55.0579 47.3584 57.9894C42.0397 60.9209 35.869 61.9175 29.8979 60.8094C23.9268 59.7013 18.5246 56.5571 14.6118 51.9124C10.699 47.2678 8.51778 41.4102 8.43967 35.3376C8.36157 29.2651 10.3915 23.3533 14.1835 18.6095C17.9755 13.8658 23.295 10.5837 29.2357 9.32241C35.1764 8.06111 41.3706 8.89867 46.7629 11.6924C52.1553 14.4861 54.3415 17.3446 56.7375 22.925L49.8728 25.8724C48.1587 21.8802 47.184 20.3243 43.3263 18.3257C39.4686 16.3271 35.0372 15.7279 30.7873 16.6302C26.5373 17.5326 22.7317 19.8806 20.0189 23.2743C17.3061 26.6679 15.8539 30.8972 15.9098 35.2415C15.9656 39.5859 17.5261 43.7764 20.3253 47.0992C23.1245 50.422 26.9893 52.6713 31.261 53.4641C35.5328 54.2568 39.9472 53.5438 43.7523 51.4467C47.5573 49.3495 50.5174 45.9979 52.1283 41.9628L59.0665 44.7327Z" fill="#FEFEFE"/>
<circle cx="42.3008" cy="34.7375" r="3.9375" fill="#FEFEFE"/>
<circle cx="51.3555" cy="34.8687" r="1.96875" fill="#FEFEFE"/>
<ellipse cx="57.657" cy="34.8687" rx="0.91875" ry="0.91875" fill="#FEFEFE"/>
<path d="M86.3173 30.2357C85.9514 29.5617 85.4219 29.0514 84.7286 28.7048C84.0547 28.3389 83.2555 28.156 82.3312 28.156C80.733 28.156 79.4525 28.6856 78.4896 29.7446C77.5268 30.7845 77.0454 32.1805 77.0454 33.9329C77.0454 35.8007 77.5461 37.2642 78.5474 38.3233C79.568 39.3631 80.9641 39.883 82.7356 39.883C83.9488 39.883 84.9693 39.5749 85.7974 38.9587C86.6446 38.3425 87.2608 37.4567 87.6459 36.3014H81.3781V32.662H92.123V37.2545C91.7571 38.4869 91.1313 39.6327 90.2455 40.6918C89.379 41.7508 88.2718 42.6077 86.9238 43.2625C85.5759 43.9172 84.0547 44.2445 82.3601 44.2445C80.3575 44.2445 78.5667 43.8113 76.9877 42.9447C75.4279 42.0589 74.2052 40.8362 73.3194 39.2764C72.4528 37.7167 72.0196 35.9355 72.0196 33.9329C72.0196 31.9302 72.4528 30.149 73.3194 28.5893C74.2052 27.0103 75.4279 25.7875 76.9877 24.921C78.5474 24.0352 80.3286 23.5923 82.3312 23.5923C84.7575 23.5923 86.7987 24.1796 88.4547 25.3542C90.13 26.5289 91.2372 28.156 91.7764 30.2357H86.3173ZM107.135 33.7018C108.309 33.9521 109.253 34.5394 109.965 35.4637C110.678 36.3688 111.034 37.4086 111.034 38.5832C111.034 40.2778 110.437 41.6257 109.243 42.627C108.069 43.6091 106.422 44.1001 104.304 44.1001H94.8589V23.8234H103.986C106.047 23.8234 107.655 24.2952 108.81 25.2387C109.985 26.1823 110.572 27.4628 110.572 29.0803C110.572 30.2742 110.254 31.2659 109.619 32.0554C109.003 32.8449 108.174 33.3937 107.135 33.7018ZM99.7981 32.0265H103.033C103.842 32.0265 104.458 31.8532 104.882 31.5066C105.325 31.1407 105.546 30.6112 105.546 29.918C105.546 29.2247 105.325 28.6952 104.882 28.3293C104.458 27.9635 103.842 27.7805 103.033 27.7805H99.7981V32.0265ZM103.437 40.1141C104.265 40.1141 104.901 39.9311 105.344 39.5653C105.806 39.1802 106.037 38.6314 106.037 37.9189C106.037 37.2064 105.796 36.648 105.315 36.2436C104.853 35.8392 104.208 35.637 103.38 35.637H99.7981V40.1141H103.437ZM118.838 27.7805V31.8821H125.452V35.6948H118.838V40.143H126.319V44.1001H113.899V23.8234H126.319V27.7805H118.838ZM136.862 44.3023C135.379 44.3023 134.051 44.0616 132.876 43.5802C131.702 43.0988 130.758 42.3863 130.045 41.4428C129.352 40.4992 128.986 39.3631 128.948 38.0344H134.205C134.282 38.7854 134.542 39.3631 134.985 39.7675C135.428 40.1526 136.005 40.3452 136.718 40.3452C137.449 40.3452 138.027 40.1815 138.451 39.8541C138.874 39.5075 139.086 39.0357 139.086 38.4388C139.086 37.9381 138.913 37.5241 138.566 37.1968C138.239 36.8694 137.825 36.5998 137.324 36.388C136.843 36.1762 136.15 35.9355 135.245 35.6659C133.935 35.2615 132.867 34.8572 132.038 34.4528C131.21 34.0484 130.498 33.4515 129.901 32.662C129.304 31.8724 129.006 30.8422 129.006 29.5713C129.006 27.6842 129.689 26.2111 131.056 25.1521C132.424 24.0737 134.205 23.5345 136.4 23.5345C138.634 23.5345 140.434 24.0737 141.801 25.1521C143.169 26.2111 143.9 27.6939 143.997 29.6002H138.653C138.614 28.9455 138.374 28.4352 137.931 28.0694C137.488 27.6842 136.92 27.4917 136.227 27.4917C135.63 27.4917 135.148 27.6554 134.782 27.9827C134.417 28.2908 134.234 28.7433 134.234 29.3403C134.234 29.995 134.542 30.5053 135.158 30.8711C135.774 31.237 136.737 31.6317 138.046 32.0554C139.356 32.4983 140.415 32.9219 141.224 33.3263C142.052 33.7307 142.764 34.318 143.361 35.0882C143.958 35.8585 144.257 36.8502 144.257 38.0633C144.257 39.2187 143.958 40.2681 143.361 41.2117C142.783 42.1552 141.936 42.9062 140.819 43.4646C139.702 44.0231 138.383 44.3023 136.862 44.3023ZM152.235 27.7805V31.8821H158.85V35.6948H152.235V40.143H159.716V44.1001H147.296V23.8234H159.716V27.7805H152.235Z" fill="#FEFEFE"/>
</svg>
