<svg width="155" height="160" viewBox="0 0 155 160" fill="none" xmlns="http://www.w3.org/2000/svg">
<path d="M77.1511 105.396C73.5861 105.396 70.0559 104.714 66.7622 103.39C63.4685 102.066 60.4758 100.125 57.9549 97.6786C55.4341 95.2319 53.4344 92.3272 52.0701 89.1303C50.7058 85.9335 50.0036 82.5072 50.0036 79.047C50.0036 75.5868 50.7058 72.1605 52.0701 68.9637C53.4344 65.7669 55.4341 62.8622 57.955 60.4154C60.4758 57.9687 63.4685 56.0279 66.7622 54.7037C70.0559 53.3795 73.5861 52.698 77.1511 52.698L77.1511 79.047V105.396Z" fill="#AE9FE9"/>
<path d="M154.5 109.45C147.651 126.606 135.065 140.856 118.887 149.773C102.709 158.69 83.9394 161.721 65.7768 158.351C47.6143 154.98 31.1823 145.416 19.2806 131.289C7.37902 117.161 0.744177 99.3436 0.506608 80.8725C0.269039 62.4013 6.44344 44.4192 17.9778 29.9901C29.5121 15.561 45.6927 5.57767 63.7626 1.74113C81.8325 -2.09542 100.674 0.452214 117.076 8.94994C133.478 17.4477 140.128 26.1424 147.416 43.1166L126.535 52.0819C121.321 39.9385 118.356 35.206 106.622 29.1267C94.8883 23.0474 81.4093 21.2249 68.4821 23.9695C55.5548 26.7142 43.9792 33.8563 35.7275 44.1789C27.4759 54.5015 23.0587 67.3659 23.2286 80.5802C23.3986 93.7945 28.1452 106.541 36.6596 116.648C45.174 126.755 56.9295 133.597 69.9231 136.008C82.9166 138.42 96.3442 136.251 107.918 129.872C119.492 123.493 128.496 113.298 133.396 101.025L154.5 109.45Z" fill="#008080"/>
<circle cx="103.501" cy="79.0469" r="11.9768" fill="#AE9FE9"/>
<circle cx="131.047" cy="79.4464" r="5.98841" fill="#AE9FE9"/>
<circle cx="150.21" cy="79.4464" r="2.79459" fill="#AE9FE9"/>
</svg>
