<svg width="25" height="24" viewBox="0 0 25 24" fill="none" xmlns="http://www.w3.org/2000/svg">
<path d="M11.1095 19.7496C10.8195 19.7496 10.5394 19.7096 10.3094 19.6196C6.88945 18.4496 1.43945 14.2696 1.43945 8.0896C1.43945 4.9196 3.99944 2.34961 7.14944 2.34961C8.65944 2.34961 10.0694 2.92959 11.1194 3.95959C12.1794 2.92959 13.5794 2.34961 15.0894 2.34961C18.2394 2.34961 20.7994 4.9196 20.7994 8.0896C20.7994 8.5196 20.7694 8.95961 20.7094 9.40961C20.6794 9.63961 20.5394 9.8496 20.3394 9.9696C20.1394 10.0896 19.8895 10.0996 19.6695 10.0096C18.4395 9.47961 16.9095 9.87962 16.1095 10.9496C15.9695 11.1396 15.6995 11.2396 15.5095 11.2496C15.2695 11.2496 15.0495 11.1396 14.9095 10.9496C14.3395 10.1896 13.4694 9.75961 12.5294 9.75961C10.8994 9.75961 9.56946 11.0996 9.56946 12.7496C9.56946 15.3496 11.0595 17.1996 12.3195 18.3096C12.4995 18.4696 12.5895 18.6996 12.5695 18.9396C12.5495 19.1796 12.4194 19.3896 12.2094 19.5196C12.0994 19.5796 12.0094 19.6196 11.9594 19.6296C11.6994 19.7096 11.4095 19.7496 11.1095 19.7496ZM7.14944 3.84961C4.82944 3.84961 2.93945 5.7496 2.93945 8.0896C2.93945 13.3196 7.28946 16.5396 9.78946 17.7796C8.83946 16.5096 8.05945 14.8296 8.05945 12.7396C8.05945 10.2596 10.0594 8.2496 12.5194 8.2496C13.6394 8.2496 14.6895 8.65962 15.4995 9.38962C16.5095 8.48962 17.9495 8.07959 19.2895 8.32959C19.2895 8.24959 19.2895 8.16961 19.2895 8.09961C19.2895 5.75961 17.3995 3.85959 15.0795 3.85959C13.7495 3.85959 12.5194 4.47959 11.7094 5.54959C11.5694 5.73959 11.3495 5.84961 11.1095 5.84961C10.8695 5.84961 10.6495 5.73959 10.5095 5.54959C9.71946 4.46959 8.48944 3.84961 7.14944 3.84961Z" fill="#696969"/>
<path d="M15.5101 21.65C15.2801 21.65 15.0401 21.62 14.8501 21.55C13.9901 21.26 12.6001 20.55 11.3301 19.42C9.85008 18.11 8.08008 15.89 8.08008 12.74C8.08008 10.26 10.0801 8.25 12.5401 8.25C13.6601 8.25 14.7101 8.66001 15.5201 9.39001C16.7801 8.26001 18.7001 7.94 20.2801 8.63C21.9001 9.35 22.9501 10.97 22.9501 12.75C22.9501 17.49 18.7901 20.67 16.1701 21.56C15.9701 21.62 15.7401 21.65 15.5101 21.65ZM12.5301 9.75C10.9001 9.75 9.57007 11.09 9.57007 12.74C9.57007 15.34 11.0601 17.19 12.3201 18.3C13.4301 19.28 14.6001 19.89 15.3301 20.13C15.4101 20.16 15.6001 20.16 15.6701 20.13C17.1701 19.62 21.4401 17.17 21.4401 12.74C21.4401 11.55 20.7401 10.47 19.6701 10C18.4601 9.47 16.9101 9.87 16.1101 10.94C15.9701 11.13 15.7001 11.23 15.5101 11.24C15.2701 11.24 15.0501 11.13 14.9101 10.94C14.3401 10.18 13.4701 9.75 12.5301 9.75Z" fill="#696969"/>
</svg>
