<svg width="30" height="30" viewBox="0 0 30 30" fill="none" xmlns="http://www.w3.org/2000/svg">
<path fill-rule="evenodd" clip-rule="evenodd" d="M12.4305 4.0625H17.5705C19.868 4.0625 21.688 4.0625 23.1117 4.25375C24.5767 4.45125 25.763 4.86625 26.6992 5.80125C27.6342 6.7375 28.0492 7.92375 28.2467 9.38875C28.3592 10.23 28.4055 11.2087 28.4242 12.3425C28.4397 12.4376 28.4414 12.5344 28.4292 12.63C28.4367 13.3367 28.4396 14.1033 28.438 14.93V15.07C28.438 17.3675 28.438 19.1875 28.2467 20.6112C28.0492 22.0763 27.6342 23.2625 26.6992 24.1987C25.763 25.1337 24.5767 25.5487 23.1117 25.7463C21.6867 25.9375 19.868 25.9375 17.5705 25.9375H12.4305C10.133 25.9375 8.31295 25.9375 6.8892 25.7463C5.4242 25.5487 4.23795 25.1337 3.3017 24.1987C2.3667 23.2625 1.9517 22.0763 1.7542 20.6112C1.56295 19.1863 1.56295 17.3675 1.56295 15.07V14.93C1.56129 14.1033 1.5642 13.3367 1.5717 12.63C1.5591 12.5345 1.56036 12.4377 1.57545 12.3425C1.59545 11.2087 1.6417 10.23 1.7542 9.38875C1.9517 7.92375 2.3667 6.7375 3.3017 5.80125C4.23795 4.86625 5.4242 4.45125 6.8892 4.25375C8.31421 4.0625 10.133 4.0625 12.4305 4.0625ZM3.44045 13.4375C3.43879 13.9225 3.43795 14.4433 3.43795 15C3.43795 17.3837 3.44045 19.0775 3.61295 20.3625C3.7817 21.6188 4.0992 22.3438 4.62795 22.8725C5.1567 23.4013 5.8817 23.7188 7.1392 23.8875C8.4242 24.06 10.1167 24.0625 12.5005 24.0625H17.5005C19.8842 24.0625 21.578 24.06 22.863 23.8875C24.1192 23.7188 24.8442 23.4013 25.373 22.8725C25.9017 22.3438 26.2192 21.6187 26.388 20.3612C26.5605 19.0762 26.563 17.3837 26.563 15C26.563 14.4433 26.5621 13.9225 26.5605 13.4375H3.44045ZM26.5305 11.5625H3.47045C3.49545 10.8288 3.53795 10.195 3.61295 9.6375C3.7817 8.38125 4.0992 7.65625 4.62795 7.1275C5.1567 6.59875 5.8817 6.28125 7.1392 6.1125C8.4242 5.94 10.1167 5.9375 12.5005 5.9375H17.5005C19.8842 5.9375 21.578 5.94 22.863 6.1125C24.1192 6.28125 24.8442 6.59875 25.373 7.1275C25.9017 7.65625 26.2192 8.38125 26.388 9.63875C26.463 10.195 26.5055 10.8288 26.5305 11.5625ZM6.56295 20C6.56295 19.7514 6.66173 19.5129 6.83754 19.3371C7.01336 19.1613 7.25181 19.0625 7.50045 19.0625H12.5005C12.7491 19.0625 12.9876 19.1613 13.1634 19.3371C13.3392 19.5129 13.438 19.7514 13.438 20C13.438 20.2486 13.3392 20.4871 13.1634 20.6629C12.9876 20.8387 12.7491 20.9375 12.5005 20.9375H7.50045C7.25181 20.9375 7.01336 20.8387 6.83754 20.6629C6.66173 20.4871 6.56295 20.2486 6.56295 20ZM14.688 20C14.688 19.7514 14.7867 19.5129 14.9625 19.3371C15.1384 19.1613 15.3768 19.0625 15.6255 19.0625H17.5005C17.7491 19.0625 17.9876 19.1613 18.1634 19.3371C18.3392 19.5129 18.438 19.7514 18.438 20C18.438 20.2486 18.3392 20.4871 18.1634 20.6629C17.9876 20.8387 17.7491 20.9375 17.5005 20.9375H15.6255C15.3768 20.9375 15.1384 20.8387 14.9625 20.6629C14.7867 20.4871 14.688 20.2486 14.688 20Z" fill="#5D3FD3"/>
</svg>
