<svg width="28" height="22" viewBox="0 0 28 22" fill="none" xmlns="http://www.w3.org/2000/svg">
<path fill-rule="evenodd" clip-rule="evenodd" d="M11.4305 0.0625H16.5705C18.868 0.0625 20.688 0.0625001 22.1117 0.25375C23.5767 0.45125 24.763 0.86625 25.6992 1.80125C26.6342 2.7375 27.0492 3.92375 27.2467 5.38875C27.3592 6.23 27.4055 7.20875 27.4242 8.3425C27.4397 8.43759 27.4414 8.53443 27.4292 8.63C27.4367 9.33667 27.4396 10.1033 27.438 10.93V11.07C27.438 13.3675 27.438 15.1875 27.2467 16.6112C27.0492 18.0763 26.6342 19.2625 25.6992 20.1987C24.763 21.1337 23.5767 21.5487 22.1117 21.7463C20.6867 21.9375 18.868 21.9375 16.5705 21.9375H11.4305C9.13295 21.9375 7.31295 21.9375 5.8892 21.7463C4.4242 21.5487 3.23795 21.1337 2.3017 20.1987C1.3667 19.2625 0.951705 18.0763 0.754205 16.6112C0.562955 15.1863 0.562955 13.3675 0.562955 11.07V10.93C0.561288 10.1033 0.564205 9.33667 0.571705 8.63C0.559099 8.53449 0.560362 8.43765 0.575455 8.3425C0.595455 7.20875 0.641705 6.23 0.754205 5.38875C0.951705 3.92375 1.3667 2.7375 2.3017 1.80125C3.23795 0.86625 4.4242 0.45125 5.8892 0.25375C7.31421 0.0625001 9.13295 0.0625 11.4305 0.0625ZM2.44045 9.4375C2.43879 9.9225 2.43795 10.4433 2.43795 11C2.43795 13.3837 2.44045 15.0775 2.61295 16.3625C2.7817 17.6188 3.0992 18.3438 3.62795 18.8725C4.1567 19.4013 4.8817 19.7188 6.1392 19.8875C7.4242 20.06 9.1167 20.0625 11.5005 20.0625H16.5005C18.8842 20.0625 20.578 20.06 21.863 19.8875C23.1192 19.7188 23.8442 19.4013 24.373 18.8725C24.9017 18.3438 25.2192 17.6187 25.388 16.3612C25.5605 15.0762 25.563 13.3837 25.563 11C25.563 10.4433 25.5621 9.9225 25.5605 9.4375H2.44045ZM25.5305 7.5625H2.47045C2.49545 6.82875 2.53795 6.195 2.61295 5.6375C2.7817 4.38125 3.0992 3.65625 3.62795 3.1275C4.1567 2.59875 4.8817 2.28125 6.1392 2.1125C7.4242 1.94 9.1167 1.9375 11.5005 1.9375H16.5005C18.8842 1.9375 20.578 1.94 21.863 2.1125C23.1192 2.28125 23.8442 2.59875 24.373 3.1275C24.9017 3.65625 25.2192 4.38125 25.388 5.63875C25.463 6.195 25.5055 6.82875 25.5305 7.5625ZM5.56295 16C5.56295 15.7514 5.66173 15.5129 5.83754 15.3371C6.01336 15.1613 6.25181 15.0625 6.50045 15.0625H11.5005C11.7491 15.0625 11.9876 15.1613 12.1634 15.3371C12.3392 15.5129 12.438 15.7514 12.438 16C12.438 16.2486 12.3392 16.4871 12.1634 16.6629C11.9876 16.8387 11.7491 16.9375 11.5005 16.9375H6.50045C6.25181 16.9375 6.01336 16.8387 5.83754 16.6629C5.66173 16.4871 5.56295 16.2486 5.56295 16ZM13.688 16C13.688 15.7514 13.7867 15.5129 13.9625 15.3371C14.1384 15.1613 14.3768 15.0625 14.6255 15.0625H16.5005C16.7491 15.0625 16.9876 15.1613 17.1634 15.3371C17.3392 15.5129 17.438 15.7514 17.438 16C17.438 16.2486 17.3392 16.4871 17.1634 16.6629C16.9876 16.8387 16.7491 16.9375 16.5005 16.9375H14.6255C14.3768 16.9375 14.1384 16.8387 13.9625 16.6629C13.7867 16.4871 13.688 16.2486 13.688 16Z" fill="#5D3FD3"/>
</svg>
