<svg width="25" height="25" viewBox="0 0 25 25" fill="none" xmlns="http://www.w3.org/2000/svg">
<path d="M15.6824 22.8874H10.2824C5.34243 22.8874 3.24243 20.7774 3.24243 15.8474V11.3574C3.24243 10.9474 3.58243 10.6074 3.99243 10.6074C4.40243 10.6074 4.74243 10.9474 4.74243 11.3574V15.8474C4.74243 19.9374 6.19243 21.3874 10.2824 21.3874H15.6724C19.7624 21.3874 21.2124 19.9374 21.2124 15.8474V11.3574C21.2124 10.9474 21.5524 10.6074 21.9624 10.6074C22.3724 10.6074 22.7124 10.9474 22.7124 11.3574V15.8474C22.7224 20.7774 20.6124 22.8874 15.6824 22.8874Z" fill="#696969"/>
<path d="M12.9824 12.8867C11.8824 12.8867 10.8824 12.4567 10.1724 11.6667C9.46242 10.8767 9.13242 9.84672 9.24242 8.74672L9.91242 2.06672C9.95242 1.68672 10.2724 1.38672 10.6624 1.38672H15.3324C15.7224 1.38672 16.0424 1.67672 16.0824 2.06672L16.7524 8.74672C16.8624 9.84672 16.5324 10.8767 15.8224 11.6667C15.0824 12.4567 14.0824 12.8867 12.9824 12.8867ZM11.3324 2.88672L10.7324 8.89672C10.6624 9.56672 10.8624 10.1967 11.2824 10.6567C12.1324 11.5967 13.8324 11.5967 14.6824 10.6567C15.1024 10.1867 15.3024 9.55672 15.2324 8.89672L14.6324 2.88672H11.3324Z" fill="#696969"/>
<path d="M19.2924 12.8867C17.2624 12.8867 15.4524 11.2467 15.2424 9.22672L14.5424 2.21672C14.5224 2.00672 14.5924 1.79672 14.7324 1.63672C14.8724 1.47672 15.0724 1.38672 15.2924 1.38672H18.3424C21.2824 1.38672 22.6524 2.61672 23.0624 5.63672L23.3424 8.41672C23.4624 9.59672 23.1024 10.7167 22.3324 11.5667C21.5624 12.4167 20.4824 12.8867 19.2924 12.8867ZM16.1224 2.88672L16.7424 9.07672C16.8724 10.3267 18.0324 11.3867 19.2924 11.3867C20.0524 11.3867 20.7324 11.0967 21.2224 10.5667C21.7024 10.0367 21.9224 9.32672 21.8524 8.56672L21.5724 5.81672C21.2624 3.55672 20.5324 2.88672 18.3424 2.88672H16.1224Z" fill="#696969"/>
<path d="M6.62244 12.8867C5.43244 12.8867 4.35244 12.4167 3.58244 11.5667C2.81244 10.7167 2.45244 9.59672 2.57244 8.41672L2.84244 5.66672C3.26244 2.61672 4.63244 1.38672 7.57244 1.38672H10.6224C10.8324 1.38672 11.0324 1.47672 11.1824 1.63672C11.3324 1.79672 11.3924 2.00672 11.3724 2.21672L10.6724 9.22672C10.4624 11.2467 8.65244 12.8867 6.62244 12.8867ZM7.57244 2.88672C5.38244 2.88672 4.65244 3.54672 4.33244 5.83672L4.06244 8.56672C3.98244 9.32672 4.21244 10.0367 4.69244 10.5667C5.17244 11.0967 5.85244 11.3867 6.62244 11.3867C7.88244 11.3867 9.05244 10.3267 9.17244 9.07672L9.79244 2.88672H7.57244Z" fill="#696969"/>
<path d="M15.4824 22.8867H10.4824C10.0724 22.8867 9.73242 22.5467 9.73242 22.1367V19.6367C9.73242 17.5367 10.8824 16.3867 12.9824 16.3867C15.0824 16.3867 16.2324 17.5367 16.2324 19.6367V22.1367C16.2324 22.5467 15.8924 22.8867 15.4824 22.8867ZM11.2324 21.3867H14.7324V19.6367C14.7324 18.3767 14.2424 17.8867 12.9824 17.8867C11.7224 17.8867 11.2324 18.3767 11.2324 19.6367V21.3867Z" fill="#696969"/>
</svg>
