<svg width="28" height="28" viewBox="0 0 28 28" fill="none" xmlns="http://www.w3.org/2000/svg">
<path d="M24.5 9.04199H3.5C3.02167 9.04199 2.625 8.64533 2.625 8.16699C2.625 7.68866 3.02167 7.29199 3.5 7.29199H24.5C24.9783 7.29199 25.375 7.68866 25.375 8.16699C25.375 8.64533 24.9783 9.04199 24.5 9.04199Z" fill="#292D32"/>
<path d="M24.5 14.875H3.5C3.02167 14.875 2.625 14.4783 2.625 14C2.625 13.5217 3.02167 13.125 3.5 13.125H24.5C24.9783 13.125 25.375 13.5217 25.375 14C25.375 14.4783 24.9783 14.875 24.5 14.875Z" fill="#292D32"/>
<path d="M24.5 20.708H3.5C3.02167 20.708 2.625 20.3113 2.625 19.833C2.625 19.3547 3.02167 18.958 3.5 18.958H24.5C24.9783 18.958 25.375 19.3547 25.375 19.833C25.375 20.3113 24.9783 20.708 24.5 20.708Z" fill="#292D32"/>
</svg>
