<svg width="33" height="32" viewBox="0 0 33 32" fill="none" xmlns="http://www.w3.org/2000/svg">
<rect x="0.939453" width="32" height="32" rx="16" fill="#5D3FD3" fill-opacity="0.3"/>
<path d="M10.1389 24.6004H23.7389C24.0669 24.6004 24.3389 24.3284 24.3389 24.0004C24.3389 23.6724 24.0669 23.4004 23.7389 23.4004H10.1389C9.81087 23.4004 9.53887 23.6724 9.53887 24.0004C9.53887 24.3284 9.81087 24.6004 10.1389 24.6004Z" fill="#5D3FD3"/>
<path d="M11.3397 20.9996C11.4917 20.9996 11.6437 20.9436 11.7637 20.8236L22.9637 9.62356C23.1957 9.39156 23.1957 9.00756 22.9637 8.77556C22.7317 8.54356 22.3477 8.54356 22.1157 8.77556L10.9157 19.9756C10.6837 20.2076 10.6837 20.5916 10.9157 20.8236C11.0357 20.9436 11.1877 20.9996 11.3397 20.9996Z" fill="#5D3FD3"/>
<path d="M22.5387 18.0156C22.8667 18.0156 23.1387 17.7436 23.1387 17.4156V9.19961C23.1387 8.87161 22.8667 8.59961 22.5387 8.59961H14.3227C13.9947 8.59961 13.7227 8.87161 13.7227 9.19961C13.7227 9.52761 13.9947 9.79961 14.3227 9.79961H21.9387V17.4156C21.9387 17.7436 22.2107 18.0156 22.5387 18.0156Z" fill="#5D3FD3"/>
</svg>
