<svg width="32" height="32" viewBox="0 0 32 32" fill="none" xmlns="http://www.w3.org/2000/svg">
<path d="M17.3998 21.667H14.8932C13.1199 21.667 11.6665 20.1736 11.6665 18.3336C11.6665 17.787 12.1198 17.3336 12.6665 17.3336C13.2132 17.3336 13.6665 17.787 13.6665 18.3336C13.6665 19.067 14.2132 19.667 14.8932 19.667H17.3998C17.9198 19.667 18.3332 19.2003 18.3332 18.627C18.3332 17.907 18.1332 17.8003 17.6799 17.6403L13.6665 16.2403C12.8132 15.947 11.6665 15.3203 11.6665 13.3603C11.6665 11.6936 12.9865 10.3203 14.5999 10.3203H17.1065C18.8798 10.3203 20.3332 11.8136 20.3332 13.6536C20.3332 14.2003 19.8798 14.6536 19.3332 14.6536C18.7865 14.6536 18.3332 14.2003 18.3332 13.6536C18.3332 12.9203 17.7865 12.3203 17.1065 12.3203H14.5999C14.0799 12.3203 13.6665 12.787 13.6665 13.3603C13.6665 14.0803 13.8665 14.187 14.3198 14.347L18.3332 15.747C19.1865 16.0403 20.3332 16.667 20.3332 18.627C20.3332 20.307 19.0132 21.667 17.3998 21.667Z" fill="#696969"/>
<path d="M16 23C15.4533 23 15 22.5467 15 22V10C15 9.45333 15.4533 9 16 9C16.5467 9 17 9.45333 17 10V22C17 22.5467 16.5467 23 16 23Z" fill="#696969"/>
<path d="M15.9998 30.3346C8.09317 30.3346 1.6665 23.908 1.6665 16.0013C1.6665 8.09464 8.09317 1.66797 15.9998 1.66797C16.5465 1.66797 16.9998 2.1213 16.9998 2.66797C16.9998 3.21464 16.5465 3.66797 15.9998 3.66797C9.19984 3.66797 3.6665 9.2013 3.6665 16.0013C3.6665 22.8013 9.19984 28.3346 15.9998 28.3346C22.7998 28.3346 28.3332 22.8013 28.3332 16.0013C28.3332 15.4546 28.7865 15.0013 29.3332 15.0013C29.8798 15.0013 30.3332 15.4546 30.3332 16.0013C30.3332 23.908 23.9065 30.3346 15.9998 30.3346Z" fill="#696969"/>
<path d="M27.9998 10.3333H22.6665C22.1198 10.3333 21.6665 9.88 21.6665 9.33333V4C21.6665 3.45333 22.1198 3 22.6665 3C23.2132 3 23.6665 3.45333 23.6665 4V8.33333H27.9998C28.5465 8.33333 28.9998 8.78667 28.9998 9.33333C28.9998 9.88 28.5465 10.3333 27.9998 10.3333Z" fill="#696969"/>
<path d="M22.6666 10.3352C22.4133 10.3352 22.1599 10.2419 21.9599 10.0419C21.5733 9.65521 21.5733 9.01521 21.9599 8.62854L28.6266 1.96188C29.0133 1.57521 29.6533 1.57521 30.0399 1.96188C30.4266 2.34854 30.4266 2.98854 30.0399 3.37521L23.3733 10.0419C23.1733 10.2419 22.9199 10.3352 22.6666 10.3352Z" fill="#696969"/>
</svg>
