<svg width="32" height="32" viewBox="0 0 32 32" fill="none" xmlns="http://www.w3.org/2000/svg">
<path d="M22.6665 28.3346H9.33317C4.4665 28.3346 1.6665 25.5346 1.6665 20.668V11.3346C1.6665 6.46797 4.4665 3.66797 9.33317 3.66797H22.6665C27.5332 3.66797 30.3332 6.46797 30.3332 11.3346V20.668C30.3332 25.5346 27.5332 28.3346 22.6665 28.3346ZM9.33317 5.66797C5.51984 5.66797 3.6665 7.5213 3.6665 11.3346V20.668C3.6665 24.4813 5.51984 26.3346 9.33317 26.3346H22.6665C26.4798 26.3346 28.3332 24.4813 28.3332 20.668V11.3346C28.3332 7.5213 26.4798 5.66797 22.6665 5.66797H9.33317Z" fill="#696969"/>
<path d="M16 21C13.24 21 11 18.76 11 16C11 13.24 13.24 11 16 11C18.76 11 21 13.24 21 16C21 18.76 18.76 21 16 21ZM16 13C14.3467 13 13 14.3467 13 16C13 17.6533 14.3467 19 16 19C17.6533 19 19 17.6533 19 16C19 14.3467 17.6533 13 16 13Z" fill="#696969"/>
<path d="M6 14.3333C5.45333 14.3333 5 13.88 5 13.3333V11.3333C5 8.94667 6.94667 7 9.33333 7H11.3333C11.88 7 12.3333 7.45333 12.3333 8C12.3333 8.54667 11.88 9 11.3333 9H9.33333C8.05333 9 7 10.0533 7 11.3333V13.3333C7 13.88 6.54667 14.3333 6 14.3333Z" fill="#696969"/>
<path d="M25.9998 14.3333C25.4532 14.3333 24.9998 13.88 24.9998 13.3333V11.3333C24.9998 10.0533 23.9465 9 22.6665 9H20.6665C20.1198 9 19.6665 8.54667 19.6665 8C19.6665 7.45333 20.1198 7 20.6665 7H22.6665C25.0532 7 26.9998 8.94667 26.9998 11.3333V13.3333C26.9998 13.88 26.5465 14.3333 25.9998 14.3333Z" fill="#696969"/>
<path d="M11.3333 25.0013H9.33333C6.94667 25.0013 5 23.0546 5 20.668V18.668C5 18.1213 5.45333 17.668 6 17.668C6.54667 17.668 7 18.1213 7 18.668V20.668C7 21.948 8.05333 23.0013 9.33333 23.0013H11.3333C11.88 23.0013 12.3333 23.4546 12.3333 24.0013C12.3333 24.548 11.88 25.0013 11.3333 25.0013Z" fill="#696969"/>
<path d="M22.6665 25.0013H20.6665C20.1198 25.0013 19.6665 24.548 19.6665 24.0013C19.6665 23.4546 20.1198 23.0013 20.6665 23.0013H22.6665C23.9465 23.0013 24.9998 21.948 24.9998 20.668V18.668C24.9998 18.1213 25.4532 17.668 25.9998 17.668C26.5465 17.668 26.9998 18.1213 26.9998 18.668V20.668C26.9998 23.0546 25.0532 25.0013 22.6665 25.0013Z" fill="#696969"/>
</svg>
