<svg width="25" height="24" viewBox="0 0 25 24" fill="none" xmlns="http://www.w3.org/2000/svg">
<path d="M12.1895 10.5195C11.7795 10.5195 11.4395 10.1795 11.4395 9.76945V6.43945C11.4395 6.02945 11.7795 5.68945 12.1895 5.68945C12.5995 5.68945 12.9395 6.02945 12.9395 6.43945V9.76945C12.9395 10.1895 12.5995 10.5195 12.1895 10.5195Z" fill="#5D3FD3"/>
<path d="M12.2093 20.3502C9.62932 20.3502 7.05932 19.9402 4.60932 19.1202C3.69932 18.8202 3.00932 18.1702 2.70932 17.3502C2.40932 16.5302 2.50932 15.5902 2.99932 14.7702L4.26932 12.6502C4.54932 12.1802 4.79932 11.3002 4.79932 10.7502V8.65023C4.79932 4.56023 8.11932 1.24023 12.2093 1.24023C16.2993 1.24023 19.6193 4.56023 19.6193 8.65023V10.7502C19.6193 11.2902 19.8693 12.1802 20.1493 12.6502L21.4193 14.7702C21.8893 15.5502 21.9693 16.4802 21.6593 17.3302C21.3493 18.1802 20.6693 18.8302 19.8093 19.1202C17.3593 19.9502 14.7893 20.3502 12.2093 20.3502ZM12.2093 2.75023C8.94932 2.75023 6.29932 5.40023 6.29932 8.66023V10.7602C6.29932 11.5702 5.97932 12.7402 5.55932 13.4302L4.28932 15.5602C4.02932 15.9902 3.96932 16.4502 4.11932 16.8502C4.26932 17.2502 4.60932 17.5502 5.08932 17.7102C9.68932 19.2402 14.7493 19.2402 19.3493 17.7102C19.7793 17.5702 20.1093 17.2502 20.2593 16.8302C20.4193 16.4102 20.3693 15.9502 20.1393 15.5602L18.8693 13.4402C18.4493 12.7502 18.1293 11.5802 18.1293 10.7702V8.67023C18.1193 5.40023 15.4693 2.75023 12.2093 2.75023Z" fill="#5D3FD3"/>
<path d="M12.1894 22.9003C11.1194 22.9003 10.0694 22.4603 9.30937 21.7003C8.54937 20.9403 8.10938 19.8903 8.10938 18.8203H9.60938C9.60938 19.5003 9.88938 20.1603 10.3694 20.6403C10.8494 21.1203 11.5094 21.4003 12.1894 21.4003C13.6094 21.4003 14.7694 20.2403 14.7694 18.8203H16.2694C16.2694 21.0703 14.4394 22.9003 12.1894 22.9003Z" fill="#5D3FD3"/>
</svg>
