<svg width="535" height="535" viewBox="0 0 535 535" fill="none" xmlns="http://www.w3.org/2000/svg">
<path fill-rule="evenodd" clip-rule="evenodd" d="M385.223 175.47L393.398 187.65L396.541 141.468L357.173 169.84L368.793 169.861L351.03 197.383L238.187 166.076C237.114 165.779 235.992 165.698 234.887 165.837C233.782 165.975 232.715 166.332 231.749 166.885C230.782 167.438 229.935 168.177 229.255 169.06C228.576 169.942 228.078 170.95 227.79 172.026L213.834 224.423L190.784 227.922C189.229 228.159 187.771 228.826 186.575 229.847C185.379 230.869 184.492 232.204 184.014 233.703L166.974 287.34C165.567 291.77 168.02 296.511 172.452 297.918C176.885 299.325 181.631 296.868 183.037 292.438L198.491 243.793L221.809 240.255C223.431 240.008 224.946 239.293 226.168 238.199C227.391 237.104 228.268 235.677 228.692 234.092L241.884 184.585L352.496 215.274C354.228 215.754 356.067 215.668 357.746 215.029C359.425 214.39 360.856 213.232 361.831 211.723L385.223 175.47Z" fill="#EEEEEE"/>
<path fill-rule="evenodd" clip-rule="evenodd" d="M137.593 396.965C135.208 378.766 121.96 375.534 109.712 369.207C98.7604 363.54 87.3204 355.522 78.853 345.323C68.4957 332.855 63.7395 314.784 72.3946 299.266C75.6363 293.452 79.9232 288.399 84.692 284.434C88.497 281.273 92.7212 279.003 97.1708 277.545C133.375 265.665 141.704 328.314 175.937 323.272C196.87 320.189 210.432 297.09 222.442 278.643C233.913 261.02 247.524 244.97 264.985 236.494C285.105 226.73 303.867 241.257 322.742 248.872C333.782 253.326 345.284 255.396 356.918 254.592C384.661 252.676 384.41 207.476 409.813 192.554C461.699 162.072 488.566 232.855 446.054 283.845C433.869 298.462 416.803 309.439 407.484 327.377C396.251 349.013 398.936 371.384 401.145 395.485L137.593 396.965Z" fill="#EEEEEE"/>
<path fill-rule="evenodd" clip-rule="evenodd" d="M142.842 395.442C142.491 390.905 140.976 386.387 139.541 382.1C135.711 370.69 130.194 360.444 120.418 353.086C115.669 349.512 109.226 346.166 103.068 347.01C100.15 347.409 96.896 349.093 97.0415 352.464C97.2929 358.492 104.523 363.202 108.941 366.132C119.737 373.296 139.779 381.055 142.842 395.442Z" fill="#6993A4"/>
<mask id="mask0_673_5840" style="mask-type:luminance" maskUnits="userSpaceOnUse" x="97" y="346" width="46" height="50">
<path d="M142.842 395.442C142.491 390.905 140.976 386.387 139.541 382.1C135.711 370.69 130.194 360.444 120.418 353.086C115.669 349.512 109.226 346.166 103.068 347.01C100.15 347.409 96.896 349.093 97.0415 352.464C97.2929 358.492 104.523 363.202 108.941 366.132C119.737 373.296 139.779 381.055 142.842 395.442Z" fill="white"/>
</mask>
<g mask="url(#mask0_673_5840)">
<path fill-rule="evenodd" clip-rule="evenodd" d="M99.6913 343.909C98.8648 345.969 99.2144 348.409 99.6435 350.515C100.025 352.414 100.557 354.346 101.535 356.03C105.08 362.118 112.534 364.677 119.13 365.679C122.111 366.132 126.887 366.434 129.224 363.986C130.829 362.301 129.669 360.68 129.573 358.788C129.549 358.287 129.947 358.168 130.368 358.295C132.649 358.963 134.604 362.213 135.828 364.017C139.499 369.461 141.844 376.05 142.813 382.527C143.155 384.808 143.664 387.995 142.193 390.013C140.35 392.548 136.154 390.609 134.016 389.608C133.396 389.314 132.776 389.004 132.164 388.686C131.457 388.32 130.749 387.939 130.058 387.557C128.969 386.961 127.904 386.326 126.847 385.69C120.386 381.827 89.5107 365.782 85.4417 358.192C81.1978 350.269 92.3559 346.597 99.6913 343.909Z" fill="#477282"/>
</g>
<path fill-rule="evenodd" clip-rule="evenodd" d="M146.162 395.442C146.512 390.905 148.027 386.387 149.462 382.1C153.292 370.69 158.809 360.444 168.586 353.086C173.335 349.512 179.778 346.166 185.936 347.01C188.853 347.409 192.107 349.093 191.962 352.464C191.711 358.492 184.481 363.202 180.062 366.132C169.267 373.296 149.224 381.055 146.162 395.442Z" fill="#6993A4"/>
<mask id="mask1_673_5840" style="mask-type:luminance" maskUnits="userSpaceOnUse" x="146" y="346" width="46" height="50">
<path d="M146.162 395.442C146.512 390.905 148.027 386.387 149.462 382.1C153.292 370.69 158.809 360.444 168.586 353.086C173.335 349.512 179.778 346.166 185.936 347.01C188.853 347.409 192.107 349.093 191.962 352.464C191.711 358.492 184.481 363.202 180.062 366.132C169.267 373.296 149.224 381.055 146.162 395.442Z" fill="white"/>
</mask>
<g mask="url(#mask1_673_5840)">
<path fill-rule="evenodd" clip-rule="evenodd" d="M189.312 343.909C190.139 345.969 189.789 348.409 189.36 350.515C188.978 352.414 188.446 354.346 187.468 356.03C183.924 362.118 176.469 364.677 169.873 365.679C166.893 366.132 162.116 366.434 159.78 363.986C158.175 362.301 159.335 360.68 159.43 358.788C159.454 358.287 159.057 358.168 158.636 358.295C156.355 358.963 154.4 362.213 153.176 364.017C149.504 369.461 147.16 376.05 146.19 382.527C145.848 384.808 145.34 387.995 146.81 390.013C148.654 392.548 152.85 390.609 154.988 389.608C155.608 389.314 156.227 389.004 156.839 388.686C157.547 388.32 158.254 387.939 158.945 387.557C160.034 386.961 161.099 386.326 162.156 385.69C168.617 381.827 199.493 365.782 203.562 358.192C207.806 350.269 196.648 346.597 189.312 343.909Z" fill="#477282"/>
</g>
<path fill-rule="evenodd" clip-rule="evenodd" d="M141.398 393.198C141.626 384.652 142.161 375.457 141.178 366.638C140.24 358.289 137.941 350.272 132.439 343.613C126.481 336.392 117.986 331.862 110.379 326.594C101.911 320.726 94.496 314.01 91.6441 302.936C90.7754 299.598 90.4508 296.128 90.7842 292.696C91.144 289.037 92.3549 285.508 93.9783 282.209C94.7593 280.62 96.6898 279.967 98.278 280.75C99.8663 281.534 100.524 283.461 99.7347 285.05C98.4535 287.657 97.4619 290.435 97.1724 293.327C96.9091 296.011 97.1812 298.722 97.8568 301.332C100.296 310.766 106.816 316.318 114.038 321.316C122.119 326.915 131.061 331.851 137.396 339.524C149.708 354.447 148.304 375.253 147.821 393.369C147.768 395.145 146.294 396.545 144.522 396.494C142.749 396.451 141.354 394.974 141.398 393.198Z" fill="#6993A4"/>
<mask id="mask2_673_5840" style="mask-type:luminance" maskUnits="userSpaceOnUse" x="90" y="280" width="59" height="117">
<path d="M141.398 393.198C141.626 384.652 142.161 375.457 141.178 366.638C140.24 358.289 137.941 350.272 132.439 343.613C126.481 336.392 117.986 331.862 110.379 326.594C101.911 320.726 94.496 314.01 91.6441 302.936C90.7754 299.598 90.4508 296.128 90.7842 292.696C91.144 289.037 92.3549 285.508 93.9783 282.209C94.7593 280.62 96.6898 279.967 98.278 280.75C99.8663 281.534 100.524 283.461 99.7347 285.05C98.4535 287.657 97.4619 290.435 97.1724 293.327C96.9091 296.011 97.1812 298.722 97.8568 301.332C100.296 310.766 106.816 316.318 114.038 321.316C122.119 326.915 131.061 331.851 137.396 339.524C149.708 354.447 148.304 375.253 147.821 393.369C147.768 395.145 146.294 396.545 144.522 396.494C142.749 396.451 141.354 394.974 141.398 393.198Z" fill="white"/>
</mask>
<g mask="url(#mask2_673_5840)">
<path fill-rule="evenodd" clip-rule="evenodd" d="M108.139 276.208C103.266 280.198 101.397 304.732 97.8779 309.861C97.0431 311.089 95.7584 315.894 94.0796 316.169C92.7816 316.379 91.6698 314.493 91.1192 313.617C89.1568 310.521 88.0746 306.761 87.1362 303.257C84.6943 294.219 83.3487 283.333 86.0945 274.226C86.5528 272.688 87.174 271.138 88.0379 269.78C91.8306 263.855 98.7467 266.837 102.904 270.548C104.824 272.267 106.524 274.199 108.139 276.208Z" fill="#477282"/>
</g>
<path d="M103.049 300.794C86.4065 300.794 72.9148 287.303 72.9148 270.66C72.9148 254.017 86.4065 240.525 103.049 240.525C119.692 240.525 133.184 254.017 133.184 270.66C133.184 287.303 119.692 300.794 103.049 300.794Z" fill="#F29F05"/>
<mask id="mask3_673_5840" style="mask-type:luminance" maskUnits="userSpaceOnUse" x="72" y="240" width="62" height="61">
<path d="M103.049 300.794C86.4065 300.794 72.9148 287.303 72.9148 270.66C72.9148 254.017 86.4065 240.525 103.049 240.525C119.692 240.525 133.184 254.017 133.184 270.66C133.184 287.303 119.692 300.794 103.049 300.794Z" fill="white"/>
</mask>
<g mask="url(#mask3_673_5840)">
<path fill-rule="evenodd" clip-rule="evenodd" d="M78.4832 247.049C75.4791 261.879 76.4408 279.8 89.9831 289.249C92.5709 291.043 95.3953 292.469 98.3755 293.485C105.862 296.044 114.842 296.005 122.027 292.524C124.141 291.506 126.152 290.211 127.86 288.598C128.933 287.588 129.998 285.904 131.333 285.244C132.66 284.584 133.026 286.269 132.946 287.223C132.66 290.815 130.228 294.375 128.043 297.078C119.635 307.481 105.751 310.532 93.2097 306.479C71.5849 299.494 60.2678 266.79 78.4832 247.049Z" fill="#D98A00"/>
</g>
<path d="M109.093 274.798C108.537 273.835 107.828 273.222 106.964 272.962C106.102 272.7 104.891 272.698 103.331 272.957C101.774 273.214 100.393 273.373 99.191 273.432C97.9859 273.494 96.8749 273.407 95.8547 273.174C94.8421 272.942 93.8875 272.506 93.0498 271.892C92.1969 271.272 91.4397 270.386 90.775 269.235C89.6288 267.25 89.3242 265.256 89.8607 263.255C90.3973 261.254 91.6535 259.542 93.6354 258.115L91.4586 254.345L94.2762 252.718L96.4836 256.542C98.7342 255.634 100.862 255.56 102.866 256.322C104.871 257.083 106.536 258.608 107.859 260.899L102.766 263.839C101.952 262.429 101.051 261.544 100.069 261.179C99.0831 260.816 98.1021 260.917 97.1289 261.478C96.1656 262.035 95.577 262.739 95.363 263.59C95.1491 264.442 95.3217 265.349 95.8779 266.312C96.3933 267.205 97.0635 267.773 97.8948 268.014C98.7231 268.256 100.002 268.254 101.731 268.007C103.461 267.761 104.922 267.626 106.114 267.603C107.306 267.58 108.394 267.704 109.382 267.972C110.35 268.233 111.257 268.683 112.05 269.297C112.843 269.912 113.549 270.754 114.166 271.823C115.319 273.82 115.63 275.802 115.106 277.764C114.579 279.729 113.286 281.454 111.232 282.937L113.257 286.444L110.456 288.061L108.441 284.572C105.882 285.705 103.525 285.927 101.365 285.239C99.2061 284.552 97.4314 283.004 96.0412 280.596L101.134 277.656C101.941 279.053 102.892 279.933 103.986 280.296C105.081 280.658 106.25 280.481 107.496 279.761C108.528 279.165 109.186 278.422 109.472 277.528C109.755 276.636 109.629 275.727 109.093 274.798Z" fill="white"/>
<path fill-rule="evenodd" clip-rule="evenodd" d="M384.724 274.957C355.62 259.998 294.495 276.888 294.495 276.888L244.083 215.481C244.083 215.481 246.633 201.1 245.042 199.904C239.818 195.979 235.941 206.752 235.941 206.752C235.941 206.752 214.823 194.663 208.832 194.987C196.982 195.63 219.335 214.493 219.335 214.493C219.335 214.493 239.492 290.539 261.728 309.606C283.964 328.674 334.665 327.861 352.732 328.902C385.957 330.816 401.634 283.647 384.724 274.957Z" fill="#FAD8BA"/>
<mask id="mask4_673_5840" style="mask-type:luminance" maskUnits="userSpaceOnUse" x="205" y="194" width="187" height="135">
<path d="M384.724 274.957C355.62 259.998 294.495 276.888 294.495 276.888L244.083 215.481C244.083 215.481 246.633 201.1 245.042 199.904C239.818 195.979 235.941 206.752 235.941 206.752C235.941 206.752 214.823 194.663 208.832 194.987C196.982 195.63 219.335 214.493 219.335 214.493C219.335 214.493 239.492 290.539 261.728 309.606C283.964 328.674 334.665 327.861 352.732 328.902C385.957 330.816 401.634 283.647 384.724 274.957Z" fill="white"/>
</mask>
<g mask="url(#mask4_673_5840)">
<path fill-rule="evenodd" clip-rule="evenodd" d="M219.936 216.127C224.999 221.131 240.147 292.794 287.002 312.498C297.359 316.852 316.235 309.747 327.459 309.72C332.915 309.707 339.246 307.883 344.6 308.893C348.952 309.712 351.527 313.926 352.192 318.03C355.513 338.551 329.486 345.117 314.249 345.384C310.684 345.447 307.119 345.365 303.567 345.031C299.69 344.665 295.807 344.141 291.984 343.388C252.476 335.598 229.75 254.925 219.936 216.127Z" fill="#D7B699"/>
<path fill-rule="evenodd" clip-rule="evenodd" d="M327.793 264.35C321.943 273.347 321.474 285.409 321.276 295.791C321.128 303.421 321.154 310.857 323.729 318.108C325.986 324.457 329.485 331.607 334.558 336.222C344.985 345.693 360.656 340.188 371.076 333.702C389.839 322.023 406.233 294.757 390.057 274.504C387.55 271.364 384.449 268.613 381.055 266.459C374.707 262.432 335.138 265.437 327.793 264.35Z" fill="#F25C05"/>
</g>
<path fill-rule="evenodd" clip-rule="evenodd" d="M425.041 289.767C409.94 274.663 345.646 246.967 340.183 288.918C333.039 343.763 306.382 396.828 306.382 396.828L422.662 396.029C422.662 396.029 440.135 304.872 425.041 289.767Z" fill="#F25C05"/>
<mask id="mask5_673_5840" style="mask-type:luminance" maskUnits="userSpaceOnUse" x="306" y="266" width="126" height="131">
<path d="M425.041 289.767C409.94 274.663 345.646 246.967 340.183 288.918C333.039 343.763 306.382 396.828 306.382 396.828L422.662 396.029C422.662 396.029 440.135 304.872 425.041 289.767Z" fill="white"/>
</mask>
<g mask="url(#mask5_673_5840)">
<path fill-rule="evenodd" clip-rule="evenodd" d="M432.829 288.498C427.23 315.158 418.595 345.787 397.266 364.146C389.064 371.208 376.031 372.828 365.24 382.764C346.94 399.607 336.875 392.131 321.767 386.601C314.413 383.917 304.979 380.284 297.171 381.26C286.489 382.602 289.573 391.108 295.171 398.265C299.902 404.298 307.209 407.788 314.237 410.384C328.532 415.671 344.175 417.887 359.337 418.538C380.477 419.439 403.881 417.691 422.832 407.422C461.58 386.418 448.411 326.654 432.829 288.498Z" fill="#D23F00"/>
</g>
<path fill-rule="evenodd" clip-rule="evenodd" d="M376.722 259.507L393.628 259.753C391.284 266.108 392.329 269.347 394.741 275.309C373.239 316.838 367.699 302.758 374.985 275.691C377.835 271.636 378.779 266.456 376.722 259.507Z" fill="#FAD8BA"/>
<mask id="mask6_673_5840" style="mask-type:luminance" maskUnits="userSpaceOnUse" x="371" y="259" width="24" height="43">
<path d="M376.722 259.507L393.628 259.753C391.284 266.108 392.329 269.347 394.741 275.309C373.239 316.838 367.699 302.758 374.985 275.691C377.835 271.636 378.779 266.456 376.722 259.507Z" fill="white"/>
</mask>
<g mask="url(#mask6_673_5840)">
<path fill-rule="evenodd" clip-rule="evenodd" d="M374.895 269.488C377.983 273.966 383.283 275.787 388.526 274.691C391.547 274.063 394.425 272.159 395.071 268.941C395.726 265.664 393.703 263.064 390.958 261.5C386.674 259.065 378.771 266.358 374.895 269.488Z" fill="#D7B699"/>
<path fill-rule="evenodd" clip-rule="evenodd" d="M375.607 248.976C374.577 256.87 373.44 264.877 373.971 272.847C374.247 276.988 368.791 296.233 377.42 298.408C384.936 300.299 386.258 302.711 381.263 307.166C376.355 311.536 369.742 311.365 365.733 305.922C363.371 302.721 362.15 298.665 361.433 294.799C359.857 286.288 373.815 257.373 375.607 248.976Z" fill="#D7B699"/>
</g>
<path fill-rule="evenodd" clip-rule="evenodd" d="M384.673 239.217C378.135 239.217 372.828 246.233 372.828 254.874C372.828 263.514 373.963 271.011 380.493 271.011C387.031 271.011 396.51 263.514 396.51 254.874C396.51 246.233 391.203 239.217 384.673 239.217Z" fill="#FAD8BA"/>
<path fill-rule="evenodd" clip-rule="evenodd" d="M384.747 251.101C382.991 253.41 379.555 254.138 376.851 254.048C374.431 253.968 371.896 253.363 369.72 252.316C363.661 249.405 364.413 242.184 367.077 237.074C369.443 232.539 373.509 229.827 378.369 232.608C379.304 233.146 380.023 233.905 380.707 234.732C382.666 233.924 385.059 234.038 387.112 234.26C388.949 234.458 390.901 234.771 392.623 235.459C400.356 238.552 402.091 247.178 400.017 254.402C399.13 257.482 397.449 260.634 394.975 262.732C393.863 263.673 392.352 264.596 390.82 264.298C386.868 263.532 390.766 259.756 391.193 257.852C391.403 256.923 391.382 255.373 390.278 255.015C389.627 254.802 388.99 255.089 388.488 255.503C387.133 256.621 386.462 258.391 384.991 259.414C383.676 260.33 383.276 259.228 383.635 258.071C383.757 257.677 383.9 257.291 384.049 256.905C384.34 256.132 384.652 251.923 384.747 251.101Z" fill="#03222F"/>
<path d="M233.683 314.398L224.682 303.179C224.682 303.179 249.34 296.657 253.887 293.826C260.381 289.786 268.758 287.242 279.026 286.192C289.302 285.144 296.73 283.622 301.319 281.629C305.914 279.636 309.608 276.704 312.4 272.834C320.832 261.155 319.653 251.425 308.876 243.643C303.759 239.952 298.533 238.569 293.185 239.493C287.838 240.418 283.107 243.595 278.972 249.024L248.913 227.325L239.898 215.698C239.898 215.698 272.852 206.715 284.089 205.571C297.869 204.168 312.021 208.704 326.532 219.179C341.186 229.754 349.997 241.502 352.966 254.421C355.941 267.341 352.762 280.262 343.436 293.184C339.193 299.059 333.879 303.657 327.488 306.979C321.096 310.301 312.319 312.772 301.17 314.391L287.011 316.312C278.118 317.566 270.846 321.304 265.193 327.528L260.218 333.553L233.683 314.398ZM207.703 344.052C211.045 339.421 215.376 336.738 220.69 336.002C226.003 335.265 231.114 336.668 236.021 340.209C240.928 343.751 243.863 348.159 244.839 353.437C245.815 358.71 244.629 363.664 241.287 368.294C237.993 372.855 233.744 375.512 228.518 376.264C223.299 377.017 218.168 375.573 213.126 371.927C208.076 368.287 205.094 363.875 204.159 358.683C203.23 353.491 204.409 348.613 207.703 344.052Z" fill="#023341"/>
<path d="M224.58 302.637C231.563 292.962 238.343 286.13 244.837 282.101C251.336 278.066 259.702 275.508 269.931 274.436C280.236 273.408 287.645 271.877 292.239 269.878C296.828 267.887 300.556 264.982 303.351 261.109C311.783 249.427 310.567 239.669 299.777 231.882C294.705 228.22 289.426 226.801 284.084 227.727C278.743 228.654 274.04 231.856 269.905 237.283L239.825 215.57C249.493 202.477 261.237 195.239 274.987 193.806C288.802 192.433 302.932 196.948 317.436 207.418C332.083 217.99 340.886 229.734 343.921 242.695C346.878 255.61 343.659 268.501 334.335 281.419C330.09 287.299 324.802 291.916 318.394 295.224C312.057 298.583 303.235 301.018 292.071 302.632L277.95 304.579C269.022 305.807 261.757 309.55 256.153 315.808L251.16 321.822L224.58 302.637ZM198.608 332.295C201.95 327.665 206.282 324.977 211.591 324.245C216.907 323.506 222.062 324.945 226.92 328.452C231.85 332.011 234.769 336.399 235.742 341.677C236.72 346.947 235.532 351.905 232.19 356.535C228.9 361.093 224.682 363.775 219.464 364.53C214.246 365.285 209.1 363.831 204.027 360.169C199.026 356.559 196.026 352.133 195.099 346.943C194.172 341.753 195.318 336.853 198.608 332.295Z" fill="#A6D2E4"/>
<path fill-rule="evenodd" clip-rule="evenodd" d="M421.334 289.654C388.786 293.04 346.839 340.599 346.839 340.599L271.056 316.742C271.056 316.742 265.328 303.307 263.343 303.175C256.822 302.744 259.466 313.884 259.466 313.884C259.466 313.884 239.383 311.98 235.879 313.198C224.668 317.101 249.794 329.445 249.794 329.445C249.794 329.445 308.246 382.1 337.289 385.909C366.332 389.718 408.341 361.319 424.038 352.314C452.905 335.753 440.244 287.686 421.334 289.654Z" fill="#FAD8BA"/>
<mask id="mask7_673_5840" style="mask-type:luminance" maskUnits="userSpaceOnUse" x="232" y="289" width="210" height="98">
<path d="M421.334 289.654C388.786 293.04 346.839 340.599 346.839 340.599L271.056 316.742C271.056 316.742 265.328 303.307 263.343 303.175C256.822 302.744 259.466 313.884 259.466 313.884C259.466 313.884 239.383 311.98 235.879 313.198C224.668 317.101 249.794 329.445 249.794 329.445C249.794 329.445 308.246 382.1 337.289 385.909C366.332 389.718 408.341 361.319 424.038 352.314C452.905 335.753 440.244 287.686 421.334 289.654Z" fill="white"/>
</mask>
<g mask="url(#mask7_673_5840)">
<path fill-rule="evenodd" clip-rule="evenodd" d="M383.086 315.977C381.649 322.993 382.686 331.6 385.472 338.101C387.444 342.686 389.823 347.088 391.755 351.683C392.548 353.566 393.822 356.033 393.192 358.134C392.46 360.574 389.634 362.512 387.607 363.759C385.777 364.884 383.812 365.793 381.799 366.525C378.396 367.765 374.831 368.551 371.279 369.229C365.694 370.293 359.974 370.862 354.301 371.215C345.686 371.744 336.882 371.669 328.322 370.422C308.998 367.602 290.976 359.835 274.817 349.08C268.636 344.964 262.549 340.654 256.653 336.136C255.243 335.053 249.929 329.867 250.831 334.764C251.61 339.017 254.07 343.181 256.266 346.817C260.855 354.413 266.284 361.435 272.648 367.623C278.626 373.438 285.37 378.494 292.507 382.785C325.793 402.779 366.433 399.878 400.336 382.88C415.667 375.194 432.544 364.241 439.776 347.974C442.04 342.869 382.639 321.503 383.086 315.977Z" fill="#D7B699"/>
<path fill-rule="evenodd" clip-rule="evenodd" d="M377.21 305.203C377.23 315.934 383.432 326.291 388.942 335.093C392.989 341.562 397.076 347.775 403.196 352.438C408.557 356.521 415.396 360.594 422.167 361.685C436.075 363.915 446.188 350.738 451.366 339.611C460.692 319.573 459.513 287.781 434.896 279.666C431.08 278.407 426.98 277.799 422.96 277.851C415.444 277.949 383.954 302.098 377.21 305.203Z" fill="#F25C05"/>
</g>
<path fill-rule="evenodd" clip-rule="evenodd" d="M130.16 395.57H432.851V397.557H130.16V395.57Z" fill="#03222F"/>
<path fill-rule="evenodd" clip-rule="evenodd" d="M87.6238 395.819H120.055V397.932H87.6238V395.819Z" fill="#03222F"/>
<path fill-rule="evenodd" clip-rule="evenodd" d="M84.0162 159.973C84.0162 148.647 99.612 137.069 110.937 137.069H187.161C198.486 137.069 207.681 146.264 207.681 157.59V198.631C207.681 209.957 198.486 219.152 187.161 219.152V244.813C187.161 246.327 177.596 254.665 176.579 253.541C167.315 243.27 155.421 219.152 155.421 219.152H110.937C99.612 219.152 90.4169 209.957 90.4169 198.631L84.0162 159.973Z" fill="#023341"/>
<path fill-rule="evenodd" clip-rule="evenodd" d="M83.1967 163.102C83.1967 151.776 92.3918 142.581 103.717 142.581H179.94C191.266 142.581 200.461 151.776 200.461 163.102V204.143C200.461 215.469 191.266 224.664 179.94 224.664V250.325C179.94 251.064 179.716 251.787 179.297 252.396C178.878 253.006 178.285 253.474 177.594 253.74C176.903 254.005 176.148 254.055 175.428 253.883C174.708 253.711 174.057 253.325 173.561 252.776C164.297 242.505 148.2 224.664 148.2 224.664H103.717C92.3918 224.664 83.1967 215.469 83.1967 204.143V163.102Z" fill="#6993A4"/>
<path fill-rule="evenodd" clip-rule="evenodd" d="M102.177 162.758C92.0373 173.717 92.7013 190.816 103.657 200.953C108.355 205.299 114.445 207.839 120.84 208.117L121.722 187.865C120.122 187.796 118.599 187.161 117.424 186.074C114.686 183.541 114.52 179.265 117.055 176.524L102.177 162.758ZM125.913 207.861C132.03 206.968 137.656 204.006 141.854 199.469C151.673 188.857 151.401 172.396 141.236 162.113L131.625 171.615C136.706 176.755 136.843 184.986 131.934 190.291C129.834 192.561 127.022 194.04 123.965 194.488L125.913 207.861ZM136.526 158.312C127.028 152.267 114.778 152.743 105.778 159.506L111.545 167.182C117.348 162.822 125.248 162.515 131.371 166.412L136.526 158.312Z" fill="white"/>
<path fill-rule="evenodd" clip-rule="evenodd" d="M178.72 164.471C178.719 163.685 178.406 162.932 177.85 162.377C177.295 161.823 176.542 161.511 175.756 161.511H159.461C158.678 161.511 157.923 161.823 157.371 162.378C157.095 162.652 156.877 162.978 156.727 163.338C156.578 163.697 156.502 164.082 156.502 164.471V164.538C156.502 165.322 156.813 166.075 157.371 166.63C157.645 166.905 157.971 167.123 158.329 167.272C158.688 167.421 159.073 167.498 159.461 167.497H175.756C176.542 167.497 177.295 167.186 177.85 166.631C178.406 166.076 178.719 165.323 178.72 164.538V164.471Z" fill="white"/>
<path fill-rule="evenodd" clip-rule="evenodd" d="M192.574 178.678C192.574 178.025 192.312 177.399 191.851 176.938C191.39 176.476 190.763 176.217 190.11 176.217H158.961C158.308 176.217 157.682 176.476 157.22 176.938C156.759 177.399 156.498 178.025 156.498 178.678V178.68C156.498 179.332 156.759 179.958 157.22 180.42C157.682 180.881 158.308 181.14 158.961 181.14H190.11C190.763 181.14 191.39 180.881 191.851 180.42C192.312 179.958 192.574 179.332 192.574 178.68V178.678Z" fill="white"/>
<path fill-rule="evenodd" clip-rule="evenodd" d="M192.574 186.954C192.574 186.302 192.312 185.676 191.851 185.215C191.39 184.753 190.763 184.494 190.11 184.494H158.961C158.308 184.494 157.682 184.753 157.22 185.215C156.759 185.676 156.498 186.302 156.498 186.954V186.957C156.498 187.609 156.759 188.235 157.22 188.696C157.682 189.158 158.308 189.417 158.961 189.417H190.11C190.763 189.417 191.39 189.158 191.851 188.696C192.312 188.235 192.574 187.609 192.574 186.957V186.954Z" fill="white"/>
<path fill-rule="evenodd" clip-rule="evenodd" d="M192.574 195.231C192.574 194.578 192.312 193.952 191.851 193.491C191.39 193.029 190.763 192.77 190.11 192.77H158.961C158.308 192.77 157.682 193.029 157.22 193.491C156.759 193.952 156.498 194.578 156.498 195.231V195.233C156.498 195.885 156.759 196.511 157.22 196.973C157.682 197.434 158.308 197.693 158.961 197.693H190.11C190.763 197.693 191.39 197.434 191.851 196.973C192.312 196.511 192.574 195.885 192.574 195.233V195.231Z" fill="white"/>
</svg>
