<svg width="25" height="24" viewBox="0 0 25 24" fill="none" xmlns="http://www.w3.org/2000/svg">
<path fill-rule="evenodd" clip-rule="evenodd" d="M18.2063 2.75C17.5071 2.75174 16.9395 3.32012 16.9395 4.01V10.25H19.6094C20.2389 10.25 20.6797 10.054 20.9616 9.77217C21.2435 9.49029 21.4395 9.04943 21.4395 8.42V6C21.4395 5.10967 21.0762 4.2965 20.4873 3.69852C19.9053 3.11742 19.0947 2.75912 18.2063 2.75ZM15.4395 4.01C15.4395 2.48094 16.6901 1.25 18.2095 1.25H18.2164L18.2164 1.25003C19.5056 1.26186 20.6928 1.78264 21.5498 2.63967L21.5535 2.64333L21.5534 2.64334C22.4035 3.50519 22.9395 4.69126 22.9395 6V8.42C22.9395 9.37057 22.6354 10.2197 22.0223 10.8328C21.4091 11.446 20.56 11.75 19.6094 11.75H16.1895C15.7752 11.75 15.4395 11.4142 15.4395 11V4.01Z" fill="#696969"/>
<path fill-rule="evenodd" clip-rule="evenodd" d="M2.49681 2.68106C3.3016 1.74912 4.53591 1.25 6.18945 1.25H18.1895C18.6037 1.25 18.9395 1.58579 18.9395 2C18.9395 2.41421 18.6037 2.75 18.1895 2.75C17.5037 2.75 16.9395 3.31421 16.9395 4V21C16.9395 22.4418 15.2929 23.2564 14.1424 22.4022L14.14 22.4004L12.4221 21.1145C12.3359 21.0482 12.1981 21.0521 12.1098 21.1403L10.4298 22.8203C9.74691 23.5032 8.63199 23.5032 7.9491 22.8203L7.94751 22.8187L6.28913 21.1503C6.28897 21.1502 6.28929 21.1505 6.28913 21.1503C6.1899 21.0515 6.04713 21.0467 5.94945 21.12L4.24232 22.3978C4.24165 22.3983 4.24098 22.3988 4.24031 22.3993C3.08212 23.2744 1.43945 22.4434 1.43945 21V6C1.43945 4.79713 1.70979 3.59244 2.49681 2.68106ZM15.7412 2.75H6.18945C4.84299 2.75 4.07731 3.14588 3.63209 3.66144C3.16912 4.19756 2.93945 4.99287 2.93945 6V21C2.93945 21.2157 3.17483 21.3247 3.33654 21.2022L3.33999 21.1996L5.04945 19.92C5.75162 19.3934 6.72904 19.4689 7.34979 20.0897L7.35139 20.0913L9.00976 21.7597C9.00961 21.7595 9.00991 21.7598 9.00976 21.7597C9.10693 21.8563 9.27219 21.8566 9.36914 21.7597L11.0491 20.0797C11.6595 19.4693 12.6387 19.3922 13.3322 19.9221L15.0366 21.1978C15.0368 21.198 15.0371 21.1982 15.0374 21.1984C15.2068 21.3232 15.4395 21.1979 15.4395 21V4C15.4395 3.55044 15.5484 3.12542 15.7412 2.75Z" fill="#696969"/>
<path fill-rule="evenodd" clip-rule="evenodd" d="M5.43945 9C5.43945 8.58579 5.77524 8.25 6.18945 8.25H12.1895C12.6037 8.25 12.9395 8.58579 12.9395 9C12.9395 9.41421 12.6037 9.75 12.1895 9.75H6.18945C5.77524 9.75 5.43945 9.41421 5.43945 9Z" fill="#696969"/>
<path fill-rule="evenodd" clip-rule="evenodd" d="M6.18945 13C6.18945 12.5858 6.52524 12.25 6.93945 12.25H11.4395C11.8537 12.25 12.1895 12.5858 12.1895 13C12.1895 13.4142 11.8537 13.75 11.4395 13.75H6.93945C6.52524 13.75 6.18945 13.4142 6.18945 13Z" fill="#696969"/>
</svg>
