<svg width="28" height="28" viewBox="0 0 28 28" fill="none" xmlns="http://www.w3.org/2000/svg">
<path d="M17.5007 26.5423H10.5007C4.16565 26.5423 1.45898 23.8356 1.45898 17.5007V10.5007C1.45898 4.16565 4.16565 1.45898 10.5007 1.45898H16.334C16.8123 1.45898 17.209 1.85565 17.209 2.33398C17.209 2.81232 16.8123 3.20898 16.334 3.20898H10.5007C5.12232 3.20898 3.20898 5.12232 3.20898 10.5007V17.5007C3.20898 22.879 5.12232 24.7923 10.5007 24.7923H17.5007C22.879 24.7923 24.7923 22.879 24.7923 17.5007V11.6673C24.7923 11.189 25.189 10.7923 25.6673 10.7923C26.1457 10.7923 26.5423 11.189 26.5423 11.6673V17.5007C26.5423 23.8356 23.8356 26.5423 17.5007 26.5423Z" fill="#0E0E10"/>
<path d="M25.6673 12.5425H21.0007C17.0107 12.5425 15.459 10.9909 15.459 7.00088V2.33422C15.459 1.98422 15.669 1.65755 15.9957 1.52922C16.3223 1.38922 16.6957 1.47088 16.9523 1.71588L26.2857 11.0492C26.5307 11.2942 26.6123 11.6792 26.4723 12.0059C26.3323 12.3325 26.0173 12.5425 25.6673 12.5425ZM17.209 4.44588V7.00088C17.209 10.0109 17.9907 10.7925 21.0007 10.7925H23.5557L17.209 4.44588Z" fill="#0E0E10"/>
</svg>
