<svg width="28" height="28" viewBox="0 0 28 28" fill="none" xmlns="http://www.w3.org/2000/svg">
<path d="M21.4197 26.5417H6.52135C4.74801 26.5417 3.12635 25.6433 2.19301 24.1267C1.25968 22.61 1.17801 20.7667 1.97135 19.1683L3.97801 15.1433C4.63135 13.8367 5.68135 13.02 6.85968 12.8917C8.03801 12.7633 9.23968 13.3467 10.1497 14.4783L10.4063 14.805C10.9197 15.435 11.5147 15.7733 12.098 15.715C12.6813 15.6683 13.218 15.2483 13.6147 14.5367L15.8197 10.5583C16.7297 8.91333 17.943 8.06166 19.2613 8.12C20.568 8.19 21.688 9.17 22.4347 10.8967L26.0863 19.425C26.763 21 26.5997 22.7967 25.6547 24.2317C24.7213 25.69 23.1347 26.5417 21.4197 26.5417ZM7.18635 14.6417C7.13968 14.6417 7.09301 14.6417 7.04635 14.6533C6.46301 14.7117 5.92635 15.1783 5.54135 15.9367L3.53468 19.9617C3.00968 21 3.06801 22.225 3.67468 23.2167C4.28135 24.2083 5.35468 24.8033 6.52135 24.8033H21.408C22.5513 24.8033 23.5663 24.255 24.1963 23.2983C24.8263 22.3417 24.9313 21.1983 24.4763 20.1483L20.8247 11.62C20.3813 10.57 19.763 9.92833 19.168 9.905C18.6197 9.87 17.908 10.4533 17.348 11.445L15.143 15.4233C14.4663 16.6367 13.4047 17.395 12.2497 17.5C11.0947 17.5933 9.91635 17.0333 9.04135 15.9367L8.78468 15.61C8.29468 14.9683 7.73468 14.6417 7.18635 14.6417Z" fill="#0E0E10"/>
<path d="M8.13086 10.209C5.72753 10.209 3.75586 8.24898 3.75586 5.83398C3.75586 3.41898 5.71586 1.45898 8.13086 1.45898C10.5459 1.45898 12.5059 3.41898 12.5059 5.83398C12.5059 8.24898 10.5459 10.209 8.13086 10.209ZM8.13086 3.20898C6.68419 3.20898 5.50586 4.38732 5.50586 5.83398C5.50586 7.28065 6.68419 8.45898 8.13086 8.45898C9.57753 8.45898 10.7559 7.28065 10.7559 5.83398C10.7559 4.38732 9.57753 3.20898 8.13086 3.20898Z" fill="#0E0E10"/>
</svg>
