<svg width="33" height="32" viewBox="0 0 33 32" fill="none" xmlns="http://www.w3.org/2000/svg">
<path d="M20.4825 30.3327H12.4825C5.2425 30.3327 2.14917 27.2393 2.14917 19.9993V11.9993C2.14917 4.75935 5.2425 1.66602 12.4825 1.66602H20.4825C27.7225 1.66602 30.8158 4.75935 30.8158 11.9993V19.9993C30.8158 27.2393 27.7225 30.3327 20.4825 30.3327ZM12.4825 3.66602C6.33584 3.66602 4.14917 5.85268 4.14917 11.9993V19.9993C4.14917 26.146 6.33584 28.3327 12.4825 28.3327H20.4825C26.6292 28.3327 28.8158 26.146 28.8158 19.9993V11.9993C28.8158 5.85268 26.6292 3.66602 20.4825 3.66602H12.4825Z" fill="#5D3FD3"/>
<path d="M20.2556 16.9053C19.709 16.9053 19.2556 16.4519 19.2556 15.9053V11.252H14.6023C14.0556 11.252 13.6023 10.7986 13.6023 10.252C13.6023 9.70529 14.0556 9.25195 14.6023 9.25195H20.2556C20.8023 9.25195 21.2556 9.70529 21.2556 10.252V15.9053C21.2556 16.4519 20.8023 16.9053 20.2556 16.9053Z" fill="#5D3FD3"/>
<path d="M12.7088 18.7855C12.4555 18.7855 12.2022 18.6922 12.0022 18.4922C11.6155 18.1055 11.6155 17.4655 12.0022 17.0789L19.5488 9.53219C19.9355 9.14552 20.5755 9.14552 20.9622 9.53219C21.3488 9.91885 21.3488 10.5589 20.9622 10.9455L13.4155 18.4922C13.2288 18.6922 12.9622 18.7855 12.7088 18.7855Z" fill="#5D3FD3"/>
<path d="M16.4824 24.3062C13.669 24.3062 10.8424 23.8529 8.16235 22.9596C7.64235 22.7862 7.36235 22.2129 7.53568 21.6929C7.70902 21.1729 8.28237 20.8796 8.80237 21.0662C13.7624 22.7196 19.2157 22.7196 24.1757 21.0662C24.6957 20.8929 25.269 21.1729 25.4424 21.6929C25.6157 22.2129 25.3357 22.7862 24.8157 22.9596C22.1224 23.8662 19.2957 24.3062 16.4824 24.3062Z" fill="#5D3FD3"/>
</svg>
