<svg width="33" height="32" viewBox="0 0 33 32" fill="none" xmlns="http://www.w3.org/2000/svg">
<path d="M19.4422 28.8391C17.8689 28.8391 15.6422 27.7325 13.8822 22.4391L12.9222 19.5591L10.0422 18.5991C4.76218 16.8391 3.65552 14.6125 3.65552 13.0391C3.65552 11.4791 4.76218 9.23912 10.0422 7.46579L21.3622 3.69245C24.1889 2.74578 26.5488 3.02578 28.0022 4.46578C29.4555 5.90579 29.7355 8.27912 28.7888 11.1058L25.0155 22.4258C23.2422 27.7325 21.0155 28.8391 19.4422 28.8391ZM10.6689 9.37245C6.96218 10.6125 5.64218 12.0791 5.64218 13.0391C5.64218 13.9991 6.96218 15.4658 10.6689 16.6925L14.0289 17.8125C14.3222 17.9058 14.5622 18.1458 14.6555 18.4391L15.7755 21.7991C17.0022 25.5058 18.4822 26.8258 19.4422 26.8258C20.4022 26.8258 21.8689 25.5058 23.1089 21.7991L26.8822 10.4791C27.5622 8.42579 27.4422 6.74579 26.5755 5.87912C25.7088 5.01245 24.0289 4.90579 21.9889 5.58579L10.6689 9.37245Z" fill="#5D3FD3"/>
<path d="M13.9625 19.1993C13.7092 19.1993 13.4558 19.106 13.2558 18.906C12.8692 18.5194 12.8692 17.8793 13.2558 17.4927L18.0292 12.706C18.4158 12.3193 19.0558 12.3193 19.4425 12.706C19.8292 13.0927 19.8292 13.7327 19.4425 14.1193L14.6692 18.906C14.4825 19.106 14.2158 19.1993 13.9625 19.1993Z" fill="#5D3FD3"/>
</svg>
