<svg width="25" height="24" viewBox="0 0 25 24" fill="none" xmlns="http://www.w3.org/2000/svg">
<path d="M14.7199 21.6293C13.5399 21.6293 11.8699 20.7993 10.5499 16.8293L9.82988 14.6693L7.66988 13.9493C3.70988 12.6293 2.87988 10.9593 2.87988 9.77934C2.87988 8.60934 3.70988 6.92934 7.66988 5.59934L16.1599 2.76934C18.2799 2.05934 20.0499 2.26934 21.1399 3.34934C22.2299 4.42934 22.4399 6.20934 21.7299 8.32934L18.8999 16.8193C17.5699 20.7993 15.8999 21.6293 14.7199 21.6293ZM8.13988 7.02934C5.35988 7.95934 4.36988 9.05934 4.36988 9.77934C4.36988 10.4993 5.35988 11.5993 8.13988 12.5193L10.6599 13.3593C10.8799 13.4293 11.0599 13.6093 11.1299 13.8293L11.9699 16.3493C12.8899 19.1293 13.9999 20.1193 14.7199 20.1193C15.4399 20.1193 16.5399 19.1293 17.4699 16.3493L20.2999 7.85934C20.8099 6.31934 20.7199 5.05934 20.0699 4.40934C19.4199 3.75934 18.1599 3.67934 16.6299 4.18934L8.13988 7.02934Z" fill="#5D3FD3"/>
<path d="M10.6098 14.4C10.4198 14.4 10.2298 14.33 10.0798 14.18C9.7898 13.89 9.7898 13.41 10.0798 13.12L13.6598 9.53C13.9498 9.24 14.4298 9.24 14.7198 9.53C15.0098 9.82 15.0098 10.3 14.7198 10.59L11.1398 14.18C10.9998 14.33 10.7998 14.4 10.6098 14.4Z" fill="#5D3FD3"/>
</svg>
