<svg width="25" height="24" viewBox="0 0 25 24" fill="none" xmlns="http://www.w3.org/2000/svg">
<path d="M12.1895 15.75C10.1195 15.75 8.43945 14.07 8.43945 12C8.43945 9.93 10.1195 8.25 12.1895 8.25C14.2595 8.25 15.9395 9.93 15.9395 12C15.9395 14.07 14.2595 15.75 12.1895 15.75ZM12.1895 9.75C10.9495 9.75 9.93945 10.76 9.93945 12C9.93945 13.24 10.9495 14.25 12.1895 14.25C13.4295 14.25 14.4395 13.24 14.4395 12C14.4395 10.76 13.4295 9.75 12.1895 9.75Z" fill="#696969"/>
<path d="M15.3995 22.1903C15.1895 22.1903 14.9795 22.1603 14.7695 22.1103C14.1495 21.9403 13.6295 21.5503 13.2995 21.0003L13.1795 20.8003C12.5895 19.7803 11.7795 19.7803 11.1895 20.8003L11.0795 20.9903C10.7495 21.5503 10.2295 21.9503 9.60945 22.1103C8.97945 22.2803 8.32945 22.1903 7.77945 21.8603L6.05945 20.8703C5.44945 20.5203 5.00945 19.9503 4.81945 19.2603C4.63945 18.5703 4.72945 17.8603 5.07945 17.2503C5.36945 16.7403 5.44945 16.2803 5.27945 15.9903C5.10945 15.7003 4.67945 15.5303 4.08945 15.5303C2.62945 15.5303 1.43945 14.3403 1.43945 12.8803V11.1203C1.43945 9.66029 2.62945 8.47029 4.08945 8.47029C4.67945 8.47029 5.10945 8.30029 5.27945 8.01029C5.44945 7.72029 5.37945 7.26029 5.07945 6.75029C4.72945 6.14029 4.63945 5.42029 4.81945 4.74029C4.99945 4.05029 5.43945 3.48029 6.05945 3.13029L7.78945 2.14029C8.91945 1.47029 10.4095 1.86029 11.0895 3.01029L11.2095 3.21029C11.7995 4.23029 12.6095 4.23029 13.1995 3.21029L13.3095 3.02029C13.9895 1.86029 15.4795 1.47029 16.6195 2.15029L18.3395 3.14029C18.9495 3.49029 19.3895 4.06029 19.5795 4.75029C19.7595 5.44029 19.6695 6.15029 19.3195 6.76029C19.0295 7.27029 18.9495 7.73029 19.1195 8.02029C19.2895 8.31029 19.7195 8.48029 20.3095 8.48029C21.7695 8.48029 22.9595 9.67029 22.9595 11.1303V12.8903C22.9595 14.3503 21.7695 15.5403 20.3095 15.5403C19.7195 15.5403 19.2895 15.7103 19.1195 16.0003C18.9495 16.2903 19.0195 16.7503 19.3195 17.2603C19.6695 17.8703 19.7695 18.5903 19.5795 19.2703C19.3995 19.9603 18.9595 20.5303 18.3395 20.8803L16.6095 21.8703C16.2295 22.0803 15.8195 22.1903 15.3995 22.1903ZM12.1895 18.4903C13.0795 18.4903 13.9095 19.0503 14.4795 20.0403L14.5895 20.2303C14.7095 20.4403 14.9095 20.5903 15.1495 20.6503C15.3895 20.7103 15.6295 20.6803 15.8295 20.5603L17.5595 19.5603C17.8195 19.4103 18.0195 19.1603 18.0995 18.8603C18.1795 18.5603 18.1395 18.2503 17.9895 17.9903C17.4195 17.0103 17.3495 16.0003 17.7895 15.2303C18.2295 14.4603 19.1395 14.0203 20.2795 14.0203C20.9195 14.0203 21.4295 13.5103 21.4295 12.8703V11.1103C21.4295 10.4803 20.9195 9.96029 20.2795 9.96029C19.1395 9.96029 18.2295 9.52029 17.7895 8.75029C17.3495 7.98029 17.4195 6.97029 17.9895 5.99029C18.1395 5.73029 18.1795 5.42029 18.0995 5.12029C18.0195 4.82029 17.8295 4.58029 17.5695 4.42029L15.8395 3.43029C15.4095 3.17029 14.8395 3.32029 14.5795 3.76029L14.4695 3.95029C13.8995 4.94029 13.0695 5.50029 12.1795 5.50029C11.2895 5.50029 10.4595 4.94029 9.88945 3.95029L9.77945 3.75029C9.52945 3.33029 8.96945 3.18029 8.53945 3.43029L6.80945 4.43029C6.54945 4.58029 6.34945 4.83029 6.26945 5.13029C6.18945 5.43029 6.22945 5.74029 6.37945 6.00029C6.94945 6.98029 7.01945 7.99029 6.57945 8.76029C6.13945 9.53029 5.22945 9.97029 4.08945 9.97029C3.44945 9.97029 2.93945 10.4803 2.93945 11.1203V12.8803C2.93945 13.5103 3.44945 14.0303 4.08945 14.0303C5.22945 14.0303 6.13945 14.4703 6.57945 15.2403C7.01945 16.0103 6.94945 17.0203 6.37945 18.0003C6.22945 18.2603 6.18945 18.5703 6.26945 18.8703C6.34945 19.1703 6.53945 19.4103 6.79945 19.5703L8.52945 20.5603C8.73945 20.6903 8.98945 20.7203 9.21945 20.6603C9.45945 20.6003 9.65945 20.4403 9.78945 20.2303L9.89945 20.0403C10.4695 19.0603 11.2995 18.4903 12.1895 18.4903Z" fill="#696969"/>
</svg>
