<svg width="28" height="28" viewBox="0 0 28 28" fill="none" xmlns="http://www.w3.org/2000/svg">
<path fill-rule="evenodd" clip-rule="evenodd" d="M5.5625 10.6288V9C5.5625 6.76224 6.45145 4.61613 8.03379 3.03379C9.61613 1.45145 11.7622 0.5625 14 0.5625C16.2378 0.5625 18.3839 1.45145 19.9662 3.03379C21.5486 4.61613 22.4375 6.76224 22.4375 9V10.6288C22.7208 10.6479 22.9883 10.6746 23.24 10.7087C24.365 10.8587 25.3125 11.1837 26.065 11.935C26.8175 12.6875 27.14 13.635 27.2925 14.76C27.4375 15.8438 27.4375 17.2225 27.4375 18.9312V19.0688C27.4375 20.7775 27.4375 22.1562 27.2925 23.24C27.14 24.365 26.8175 25.3125 26.065 26.065C25.3125 26.8175 24.365 27.14 23.24 27.2925C22.1562 27.4375 20.7775 27.4375 19.0688 27.4375H8.93125C7.2225 27.4375 5.84375 27.4375 4.76 27.2925C3.635 27.14 2.6875 26.8175 1.935 26.065C1.1825 25.3125 0.86 24.365 0.70875 23.24C0.5625 22.1562 0.5625 20.7775 0.5625 19.0688V18.9312C0.5625 17.2225 0.5625 15.8438 0.70875 14.76C0.85875 13.635 1.18375 12.6875 1.935 11.935C2.6875 11.1825 3.635 10.86 4.76 10.7087C5.01083 10.6746 5.27833 10.6479 5.5625 10.6288ZM7.4375 9C7.4375 7.25952 8.1289 5.59032 9.35961 4.35961C10.5903 3.1289 12.2595 2.4375 14 2.4375C15.7405 2.4375 17.4097 3.1289 18.6404 4.35961C19.8711 5.59032 20.5625 7.25952 20.5625 9V10.5662C20.0958 10.5629 19.5979 10.5617 19.0688 10.5625H8.93125C8.40292 10.5625 7.905 10.5638 7.4375 10.5662V9ZM3.26125 13.2613C3.6075 12.915 4.0925 12.69 5.01125 12.5662C5.95375 12.44 7.20625 12.4375 9 12.4375H19C20.7938 12.4375 22.045 12.44 22.99 12.5662C23.9075 12.69 24.3925 12.9163 24.7388 13.2613C25.085 13.6075 25.31 14.0925 25.4338 15.0112C25.56 15.955 25.5625 17.2062 25.5625 19C25.5625 20.7938 25.56 22.045 25.4338 22.99C25.31 23.9075 25.0837 24.3925 24.7388 24.7388C24.3925 25.085 23.9075 25.31 22.9888 25.4338C22.045 25.56 20.7938 25.5625 19 25.5625H9C7.20625 25.5625 5.95375 25.56 5.01 25.4338C4.0925 25.31 3.6075 25.0837 3.26125 24.7388C2.915 24.3925 2.69 23.9075 2.56625 22.9888C2.44 22.045 2.4375 20.7938 2.4375 19C2.4375 17.2062 2.44 15.9537 2.56625 15.01C2.69 14.0925 2.91625 13.6075 3.26125 13.2613Z" fill="#5D3FD3"/>
</svg>
