<svg width="25" height="24" viewBox="0 0 25 24" fill="none" xmlns="http://www.w3.org/2000/svg">
<path d="M14.8892 22.7507H9.48922C4.54922 22.7507 2.44922 20.6407 2.44922 15.7107V11.2207C2.44922 10.8107 2.78922 10.4707 3.19922 10.4707C3.60922 10.4707 3.94922 10.8107 3.94922 11.2207V15.7107C3.94922 19.8007 5.39922 21.2507 9.48922 21.2507H14.8792C18.9692 21.2507 20.4192 19.8007 20.4192 15.7107V11.2207C20.4192 10.8107 20.7592 10.4707 21.1692 10.4707C21.5792 10.4707 21.9192 10.8107 21.9192 11.2207V15.7107C21.9292 20.6407 19.8192 22.7507 14.8892 22.7507Z" fill="#696969"/>
<path d="M12.1895 12.75C11.0895 12.75 10.0895 12.32 9.37945 11.53C8.66945 10.74 8.33945 9.71 8.44945 8.61L9.11945 1.93C9.15945 1.55 9.47945 1.25 9.86945 1.25H14.5395C14.9295 1.25 15.2495 1.54 15.2895 1.93L15.9595 8.61C16.0695 9.71 15.7395 10.74 15.0295 11.53C14.2895 12.32 13.2895 12.75 12.1895 12.75ZM10.5395 2.75L9.93945 8.76C9.86945 9.43 10.0695 10.06 10.4895 10.52C11.3395 11.46 13.0395 11.46 13.8895 10.52C14.3095 10.05 14.5095 9.42 14.4395 8.76L13.8395 2.75H10.5395Z" fill="#696969"/>
<path d="M18.4995 12.75C16.4695 12.75 14.6595 11.11 14.4495 9.09L13.7495 2.08C13.7295 1.87 13.7995 1.66 13.9395 1.5C14.0795 1.34 14.2795 1.25 14.4995 1.25H17.5495C20.4895 1.25 21.8595 2.48 22.2695 5.5L22.5495 8.28C22.6695 9.46 22.3095 10.58 21.5395 11.43C20.7695 12.28 19.6895 12.75 18.4995 12.75ZM15.3295 2.75L15.9495 8.94C16.0795 10.19 17.2395 11.25 18.4995 11.25C19.2595 11.25 19.9395 10.96 20.4295 10.43C20.9095 9.9 21.1295 9.19 21.0595 8.43L20.7795 5.68C20.4695 3.42 19.7395 2.75 17.5495 2.75H15.3295Z" fill="#696969"/>
<path d="M5.82947 12.75C4.63947 12.75 3.55947 12.28 2.78947 11.43C2.01947 10.58 1.65947 9.46 1.77947 8.28L2.04947 5.53C2.46947 2.48 3.83947 1.25 6.77947 1.25H9.82947C10.0395 1.25 10.2395 1.34 10.3895 1.5C10.5395 1.66 10.5995 1.87 10.5795 2.08L9.87947 9.09C9.66947 11.11 7.85947 12.75 5.82947 12.75ZM6.77947 2.75C4.58947 2.75 3.85947 3.41 3.53947 5.7L3.26947 8.43C3.18947 9.19 3.41947 9.9 3.89947 10.43C4.37947 10.96 5.05947 11.25 5.82947 11.25C7.08947 11.25 8.25947 10.19 8.37947 8.94L8.99948 2.75H6.77947Z" fill="#696969"/>
<path d="M14.6895 22.75H9.68945C9.27945 22.75 8.93945 22.41 8.93945 22V19.5C8.93945 17.4 10.0895 16.25 12.1895 16.25C14.2895 16.25 15.4395 17.4 15.4395 19.5V22C15.4395 22.41 15.0995 22.75 14.6895 22.75ZM10.4395 21.25H13.9395V19.5C13.9395 18.24 13.4495 17.75 12.1895 17.75C10.9295 17.75 10.4395 18.24 10.4395 19.5V21.25Z" fill="#696969"/>
</svg>
