<svg width="32" height="32" viewBox="0 0 32 32" fill="none" xmlns="http://www.w3.org/2000/svg">
<path d="M16.0002 30.3339C10.6668 30.3339 6.3335 26.5072 6.3335 21.8005V16.8672C6.3335 16.3205 6.78683 15.8672 7.3335 15.8672C7.88016 15.8672 8.3335 16.3205 8.3335 16.8672C8.3335 20.3605 11.6268 23.0005 16.0002 23.0005C20.3735 23.0005 23.6668 20.3605 23.6668 16.8672C23.6668 16.3205 24.1202 15.8672 24.6668 15.8672C25.2135 15.8672 25.6668 16.3205 25.6668 16.8672V21.8005C25.6668 26.5072 21.3335 30.3339 16.0002 30.3339ZM8.3335 21.9472C8.42683 25.4805 11.8268 28.3339 16.0002 28.3339C20.1735 28.3339 23.5735 25.4805 23.6668 21.9472C21.9335 23.8272 19.1868 25.0005 16.0002 25.0005C12.8135 25.0005 10.0802 23.8272 8.3335 21.9472Z" fill="#696969"/>
<path d="M16.0002 18.3346C12.3202 18.3346 9.01348 16.6813 7.40015 14.0146C6.70681 12.8813 6.3335 11.5613 6.3335 10.2013C6.3335 7.90797 7.36017 5.74797 9.2135 4.1213C11.0268 2.53464 13.4402 1.66797 16.0002 1.66797C18.5602 1.66797 20.9602 2.53464 22.7868 4.10797C24.6402 5.74797 25.6668 7.90797 25.6668 10.2013C25.6668 11.5613 25.2935 12.868 24.6002 14.0146C22.9868 16.6813 19.6802 18.3346 16.0002 18.3346ZM16.0002 3.66797C13.9202 3.66797 11.9735 4.3613 10.5202 5.6413C9.10685 6.86797 8.3335 8.49464 8.3335 10.2013C8.3335 11.2013 8.60014 12.1346 9.10681 12.9746C10.3735 15.0546 13.0135 16.3346 16.0002 16.3346C18.9868 16.3346 21.6268 15.0413 22.8935 12.9746C23.4135 12.1346 23.6668 11.2013 23.6668 10.2013C23.6668 8.49464 22.8935 6.86797 21.4668 5.61463C20.0135 4.3613 18.0802 3.66797 16.0002 3.66797Z" fill="#696969"/>
<path d="M16.0002 25.0013C10.4935 25.0013 6.3335 21.508 6.3335 16.868V10.2013C6.3335 5.49464 10.6668 1.66797 16.0002 1.66797C18.5602 1.66797 20.9602 2.53464 22.7868 4.10797C24.6402 5.74797 25.6668 7.90797 25.6668 10.2013V16.868C25.6668 21.508 21.5068 25.0013 16.0002 25.0013ZM16.0002 3.66797C11.7735 3.66797 8.3335 6.6013 8.3335 10.2013V16.868C8.3335 20.3613 11.6268 23.0013 16.0002 23.0013C20.3735 23.0013 23.6668 20.3613 23.6668 16.868V10.2013C23.6668 8.49464 22.8935 6.86797 21.4668 5.61463C20.0135 4.3613 18.0802 3.66797 16.0002 3.66797Z" fill="#696969"/>
</svg>
