<svg width="25" height="24" viewBox="0 0 25 24" fill="none" xmlns="http://www.w3.org/2000/svg">
<path d="M11.0804 15.5796C10.8804 15.5796 10.6904 15.4996 10.5504 15.3596L7.72043 12.5296C7.43043 12.2396 7.43043 11.7596 7.72043 11.4696C8.01043 11.1796 8.49043 11.1796 8.78043 11.4696L11.0804 13.7696L16.2204 8.62961C16.5104 8.33961 16.9904 8.33961 17.2804 8.62961C17.5704 8.91961 17.5704 9.39961 17.2804 9.68961L11.6104 15.3596C11.4704 15.4996 11.2804 15.5796 11.0804 15.5796Z" fill="#008600"/>
<path d="M15.5 22.75H9.5C4.07 22.75 1.75 20.43 1.75 15V9C1.75 3.57 4.07 1.25 9.5 1.25H15.5C20.93 1.25 23.25 3.57 23.25 9V15C23.25 20.43 20.93 22.75 15.5 22.75ZM9.5 2.75C4.89 2.75 3.25 4.39 3.25 9V15C3.25 19.61 4.89 21.25 9.5 21.25H15.5C20.11 21.25 21.75 19.61 21.75 15V9C21.75 4.39 20.11 2.75 15.5 2.75H9.5Z" fill="#008600"/>
</svg>
