<svg width="15" height="15" viewBox="0 0 15 15" fill="none" xmlns="http://www.w3.org/2000/svg">
<path d="M7.50078 13.9498C3.94278 13.9498 1.05078 11.0578 1.05078 7.4998C1.05078 3.9418 3.94278 1.0498 7.50078 1.0498C11.0588 1.0498 13.9508 3.9418 13.9508 7.4998C13.9508 11.0578 11.0588 13.9498 7.50078 13.9498ZM7.50078 1.9498C4.44078 1.9498 1.95078 4.4398 1.95078 7.4998C1.95078 10.5598 4.44078 13.0498 7.50078 13.0498C10.5608 13.0498 13.0508 10.5598 13.0508 7.4998C13.0508 4.4398 10.5608 1.9498 7.50078 1.9498Z" fill="#F59E0B"/>
<path d="M9.72794 9.85747C9.64994 9.85747 9.57194 9.83947 9.49994 9.79147L7.63994 8.68147C7.17794 8.40547 6.83594 7.79947 6.83594 7.26547V4.80547C6.83594 4.55947 7.03994 4.35547 7.28594 4.35547C7.53194 4.35547 7.73594 4.55947 7.73594 4.80547V7.26547C7.73594 7.48147 7.91594 7.79947 8.10194 7.90747L9.96194 9.01747C10.1779 9.14347 10.2439 9.41947 10.1179 9.63547C10.0279 9.77947 9.87794 9.85747 9.72794 9.85747Z" fill="#F59E0B"/>
</svg>
