<svg width="25" height="24" viewBox="0 0 25 24" fill="none" xmlns="http://www.w3.org/2000/svg">
<path d="M12.1895 12.75C9.01945 12.75 6.43945 10.17 6.43945 7C6.43945 3.83 9.01945 1.25 12.1895 1.25C15.3595 1.25 17.9395 3.83 17.9395 7C17.9395 10.17 15.3595 12.75 12.1895 12.75ZM12.1895 2.75C9.84945 2.75 7.93945 4.66 7.93945 7C7.93945 9.34 9.84945 11.25 12.1895 11.25C14.5295 11.25 16.4395 9.34 16.4395 7C16.4395 4.66 14.5295 2.75 12.1895 2.75Z" fill="#696969"/>
<path d="M20.7796 22.75C20.3696 22.75 20.0296 22.41 20.0296 22C20.0296 18.55 16.5096 15.75 12.1896 15.75C7.86961 15.75 4.34961 18.55 4.34961 22C4.34961 22.41 4.00961 22.75 3.59961 22.75C3.18961 22.75 2.84961 22.41 2.84961 22C2.84961 17.73 7.03961 14.25 12.1896 14.25C17.3396 14.25 21.5296 17.73 21.5296 22C21.5296 22.41 21.1896 22.75 20.7796 22.75Z" fill="#696969"/>
</svg>
