<svg width="15" height="15" viewBox="0 0 15 15" fill="none" xmlns="http://www.w3.org/2000/svg">
<path d="M7.50078 9.15C7.25478 9.15 7.05078 8.946 7.05078 8.7V5.7C7.05078 5.454 7.25478 5.25 7.50078 5.25C7.74678 5.25 7.95078 5.454 7.95078 5.7V8.7C7.95078 8.946 7.74678 9.15 7.50078 9.15Z" fill="#DB0000"/>
<path d="M7.50039 11.099C7.46439 11.099 7.42239 11.093 7.38039 11.087C7.34439 11.081 7.30839 11.069 7.27239 11.051C7.23639 11.039 7.20039 11.021 7.16439 10.997C7.13439 10.973 7.10439 10.949 7.07439 10.925C6.96639 10.811 6.90039 10.655 6.90039 10.499C6.90039 10.343 6.96639 10.187 7.07439 10.073C7.10439 10.049 7.13439 10.025 7.16439 10.001C7.20039 9.97696 7.23639 9.95896 7.27239 9.94696C7.30839 9.92896 7.34439 9.91696 7.38039 9.91096C7.45839 9.89296 7.54239 9.89296 7.61439 9.91096C7.65639 9.91696 7.69239 9.92896 7.72839 9.94696C7.76439 9.95896 7.80039 9.97696 7.83639 10.001C7.86639 10.025 7.89639 10.049 7.92639 10.073C8.03439 10.187 8.10039 10.343 8.10039 10.499C8.10039 10.655 8.03439 10.811 7.92639 10.925C7.89639 10.949 7.86639 10.973 7.83639 10.997C7.80039 11.021 7.76439 11.039 7.72839 11.051C7.69239 11.069 7.65639 11.081 7.61439 11.087C7.57839 11.093 7.53639 11.099 7.50039 11.099Z" fill="#DB0000"/>
<path d="M11.1367 13.5953H3.86467C2.69467 13.5953 1.80067 13.1693 1.34467 12.4013C0.894669 11.6333 0.954669 10.6433 1.52467 9.61732L5.16067 3.07732C5.76067 1.99732 6.58867 1.40332 7.50067 1.40332C8.41267 1.40332 9.24067 1.99732 9.84067 3.07732L13.4767 9.62332C14.0467 10.6493 14.1127 11.6333 13.6567 12.4073C13.2007 13.1693 12.3067 13.5953 11.1367 13.5953ZM7.50067 2.30332C6.93667 2.30332 6.38467 2.73532 5.94667 3.51532L2.31667 10.0613C1.90867 10.7933 1.84267 11.4653 2.12467 11.9513C2.40667 12.4373 3.03067 12.7013 3.87067 12.7013H11.1427C11.9827 12.7013 12.6007 12.4373 12.8887 11.9513C13.1767 11.4653 13.1047 10.7993 12.6967 10.0613L9.05467 3.51532C8.61667 2.73532 8.06467 2.30332 7.50067 2.30332Z" fill="#DB0000"/>
</svg>
